<svg width="44" height="44" viewBox="0 0 44 44" fill="none" xmlns="http://www.w3.org/2000/svg">
<path d="M19.1914 10.3533L19.3199 5.86118L20.8555 5.75522L21.8943 8.39384L22.9748 5.73438L24.4895 5.86118L24.6389 10.3533L23.5358 10.2056L23.4525 6.98507L22.3598 9.43261H21.4166L20.3466 6.98507L20.2736 10.2056L19.1914 10.3533Z" fill="#706F6F"/>
<path d="M31.2073 8.51172L28.8379 12.2221L29.8002 13.0576L32.1123 11.8087L30.8807 14.1607L31.7145 15.1143L35.4423 12.7398L34.7266 11.873L32.2391 13.5423L33.3595 11.3015L32.6456 10.5702L30.3648 11.7305L32.0567 9.23434L31.2073 8.51172Z" fill="#706F6F"/>
<path d="M14.3505 10.959C14.0204 10.6533 13.5306 10.6029 13.0772 10.7818C13.1693 10.358 13.072 9.93416 12.7732 9.65623C12.2799 9.19764 11.4304 9.31228 10.8746 9.90984L8.51562 12.4494L11.7587 15.5414L14.2393 12.8698C14.7952 12.2723 14.8438 11.4159 14.3522 10.9573L14.3505 10.959ZM9.91397 12.2948L11.5312 10.5317C11.7396 10.3042 12.0506 10.252 12.2278 10.4153C12.4049 10.5769 12.3789 10.893 12.1704 11.1206L10.5289 12.9098L9.91397 12.2948ZM13.5549 12.2201L11.7761 14.1014L11.1855 13.5108L12.9174 11.6295C13.1276 11.4037 13.4402 11.3533 13.6157 11.5166C13.7911 11.6799 13.7651 11.9943 13.5549 12.2201Z" fill="#706F6F"/>
<path d="M21.9999 3.5C11.7824 3.5 3.5 11.7824 3.5 21.9999C3.5 32.2173 11.7824 40.4997 21.9999 40.4997C32.2174 40.4997 40.4998 32.2173 40.4998 21.9999C40.4998 11.7824 32.2174 3.5 21.9999 3.5ZM21.9999 39.3237C12.4321 39.3237 4.676 31.5677 4.676 21.9999C4.676 12.432 12.4321 4.676 21.9999 4.676C31.5677 4.676 39.3238 12.432 39.3238 21.9999C39.3238 31.5677 31.5677 39.3237 21.9999 39.3237Z" fill="#706F6F"/>
<path d="M22.0013 11.0312C15.9441 11.0312 11.0352 15.942 11.0352 21.9974C11.0352 28.0529 15.9441 32.9636 22.0013 32.9636C28.0585 32.9636 32.9675 28.0546 32.9675 21.9974C32.9675 15.9402 28.0585 11.0312 22.0013 11.0312ZM22.0013 32.4233C16.2429 32.4233 11.5754 27.7558 11.5754 21.9974C11.5754 16.239 16.2429 11.5715 22.0013 11.5715C27.7597 11.5715 32.4273 16.239 32.4273 21.9974C32.4273 27.7558 27.7597 32.4233 22.0013 32.4233Z" fill="#706F6F"/>
<path d="M22.0013 11.0391C15.9441 11.0391 11.0352 15.9498 11.0352 22.0052H22.0013V11.0391Z" fill="#0661A6"/>
<path d="M22.002 22.0117V32.9779C28.0591 32.9779 32.9681 28.0689 32.9681 22.0117H22.002Z" fill="#0661A6"/>
</svg>
