<svg width="44" height="44" viewBox="0 0 44 44" fill="none" xmlns="http://www.w3.org/2000/svg">
<g clip-path="url(#clip0_11335_188411)">
<path d="M10.1962 14.8598H13.1266V22.4655C13.1266 23.7751 12.5596 26.5145 8.50062 26.5145C4.4416 26.5145 4.00195 23.9614 4.00195 22.524V21.123H6.83471V22.4965C6.83471 23.3368 7.39361 24.1167 8.47002 24.1167C9.54012 24.1167 10.1971 23.5235 10.1971 22.5235V14.8594L10.1962 14.8598ZM31.4093 29.1035V18.3521H34.1165V19.574C34.5435 18.4039 35.6951 18.1384 36.5375 18.133C37.8898 18.133 39.998 19.0672 39.998 22.3737C39.998 24.9281 38.7425 26.7913 36.569 26.7976C35.4723 26.801 34.6461 26.4121 34.148 25.767V29.1035H31.4093ZM34.0823 22.4655C34.0517 24.055 34.3981 24.8912 35.7203 24.8912C37.0397 24.8912 37.2337 23.4623 37.2337 22.3719C37.2337 21.2796 36.9781 20.2225 35.5934 20.2225C34.7474 20.2225 34.1174 20.8737 34.0823 22.4646" fill="black"/>
<path d="M17.6571 18.037C19.9521 18.037 21.9726 18.9114 21.9726 22.9244H16.5231C16.5231 24.2056 17.0595 24.7344 18.0036 24.7344C18.9441 24.7344 19.2605 23.9901 19.2605 23.9901H21.938C21.938 25.1422 20.3333 26.6966 17.9069 26.6723C15.1385 26.6723 13.7812 24.6417 13.7812 22.558C13.7812 20.4699 14.9841 18.0352 17.6558 18.0352M19.2951 21.3069C19.2951 20.5284 18.8547 19.7791 17.8461 19.7791C16.8674 19.7791 16.5231 20.4694 16.5231 21.3069H19.2951Z" fill="black"/>
<path d="M26.3876 18.037C28.6826 18.037 30.7031 18.9114 30.7031 22.9244H25.2536C25.2536 24.2056 25.79 24.7344 26.7341 24.7344C27.6746 24.7344 27.9909 23.9901 27.9909 23.9901H30.6684C30.6684 25.1422 29.0637 26.6966 26.6373 26.6723C23.8689 26.6723 22.5117 24.6417 22.5117 22.558C22.5117 20.4699 23.7146 18.0352 26.3862 18.0352M28.0256 21.3069C28.0256 20.5284 27.5852 19.7791 26.5766 19.7791C25.5978 19.7791 25.2536 20.4694 25.2536 21.3069H28.0256Z" fill="black"/>
</g>
<defs>
<clipPath id="clip0_11335_188411">
<rect width="36.0001" height="14.2437" fill="white" transform="translate(4 14.8789)"/>
</clipPath>
</defs>
</svg>
