<svg width="32" height="32" viewBox="0 0 32 32" fill="none" xmlns="http://www.w3.org/2000/svg">
<path d="M11.8127 17.6449H11.1918V14.3589H12.1155L12.9262 16.9867L13.7319 14.3589H14.6555V17.6449H14.0141V15.2083L13.27 17.6449H12.5773L11.8127 15.1924V17.6449ZM16.0308 17.6449H15.374V14.3589H16.0308V17.6449ZM17.3855 17.6449H16.7543V14.3589H17.5292L18.7967 16.7425V14.3589H19.4278V17.6449H18.653L17.3855 15.272V17.6449ZM20.8082 17.6449H20.1514V14.3589H20.8082V17.6449ZM25.4727 18.8553H22.4606C22.6196 18.4678 22.7479 18.0643 22.8454 17.6449H26.6479L27.6536 16.6045H23.0045C23.0199 16.4027 23.0301 16.201 23.0301 15.9993C23.0301 15.7976 23.0199 15.5958 23.0045 15.3941H28.8236L29.8294 14.3536H22.8454C22.753 13.9343 22.6248 13.5308 22.4606 13.1433H30.9942L32 12.1028H21.9269C20.6799 10.0749 18.4888 8.72656 15.9949 8.72656C13.5061 8.72656 11.3149 10.0749 10.068 12.1028H0L1.00064 13.1433H9.53945C9.38037 13.5308 9.25209 13.9343 9.15459 14.3536H2.17062L3.17126 15.3941H8.99551C8.98012 15.5958 8.96985 15.7976 8.96985 15.9993C8.96985 16.201 8.98012 16.4027 8.99551 16.6045H4.34638L5.34702 17.6449H9.14946C9.24182 18.0643 9.37011 18.4678 9.53432 18.8553H6.517L7.51764 19.8958H10.0629C11.3098 21.9236 13.501 23.272 15.9897 23.272C18.4785 23.272 20.6697 21.9236 21.9217 19.8958H24.467L25.4727 18.8553ZM16 22.2315C12.6799 22.2315 9.97563 19.4339 9.97563 15.9993C9.97563 12.5647 12.6799 9.76704 16 9.76704C19.3201 9.76704 22.0244 12.5647 22.0244 15.9993C22.0244 19.4339 19.3201 22.2315 16 22.2315Z" fill="black"/>
</svg>
