<svg width="44" height="44" viewBox="0 0 44 44" fill="none" xmlns="http://www.w3.org/2000/svg">
<path d="M25.2079 25.632C25.2079 25.7072 25.2299 25.748 25.2738 25.748C25.3051 25.748 25.3333 25.7354 25.371 25.7103L37.8388 17.6155C38.0583 17.4713 38.259 17.396 38.5569 17.396H41.2976C41.7178 17.396 42 17.6782 42 18.0983V23.3276C42 23.9609 41.8589 24.3246 41.2976 24.6632L37.9737 26.6603C37.9298 26.6885 37.8921 26.701 37.8608 26.701C37.82 26.701 37.7824 26.6697 37.7824 26.5568V20.4527C37.7824 20.3869 37.7604 20.3367 37.7165 20.3367C37.6852 20.3367 37.6569 20.3493 37.6193 20.3712L28.5036 26.2903C28.2496 26.4565 28.0395 26.5066 27.8043 26.5066H21.7617C21.3415 26.5066 21.0593 26.2245 21.0593 25.8044V18.2644C21.0593 18.208 21.0342 18.1578 20.9934 18.1578C20.9621 18.1578 20.9338 18.1704 20.8962 18.1955L14.8849 21.8071C14.8253 21.8416 14.8097 21.873 14.8097 21.9012C14.8097 21.9263 14.8191 21.9513 14.863 21.9921L19.1558 26.2841C19.2123 26.3405 19.2531 26.3844 19.2531 26.4283C19.2531 26.4784 19.1903 26.5035 19.1182 26.5035H15.233C14.9288 26.5035 14.6936 26.4565 14.5306 26.2935L11.9279 23.6913C11.9028 23.6662 11.8808 23.6506 11.8526 23.6506C11.8307 23.6506 11.7993 23.6631 11.7711 23.6788L7.41549 26.2966C7.15209 26.4534 6.97021 26.5066 6.71308 26.5066H2.70241C2.28222 26.5066 2 26.2245 2 25.8044V20.6691C2 20.0358 2.14111 19.6752 2.70241 19.3366L6.04516 17.327C6.07965 17.3051 6.10787 17.2988 6.13609 17.2988C6.18626 17.2988 6.21449 17.3521 6.21449 17.4681V24.334C6.21449 24.4061 6.2333 24.4406 6.28034 24.4406C6.3117 24.4406 6.33992 24.4218 6.38068 24.3999L17.6789 17.6092C17.9486 17.4462 18.1148 17.3992 18.4252 17.3992H24.5055C24.9257 17.3992 25.2079 17.6813 25.2079 18.1014V25.632Z" fill="#231F20"/>
</svg>
