<svg width="44" height="44" viewBox="0 0 44 44" fill="none" xmlns="http://www.w3.org/2000/svg">
<path d="M35.7342 14.6289C33.9985 14.6289 32.4057 15.2472 31.1562 16.2773C29.9064 15.2472 28.3136 14.6289 26.5783 14.6289C24.8427 14.6289 23.2499 15.2472 22.0002 16.2772C20.7506 15.247 19.1578 14.6289 17.4221 14.6289C15.6867 14.6289 14.0939 15.2472 12.8442 16.2772C11.5944 15.2472 10.0016 14.6289 8.26599 14.6289C4.25302 14.6289 1 17.9292 1 22.0006C1 26.0719 4.25302 29.3722 8.26599 29.3722C10.0016 29.3722 11.5944 28.7539 12.8441 27.7238C14.0937 28.7539 15.6865 29.3722 17.422 29.3722C19.1576 29.3722 20.7504 28.7539 22.0001 27.7238C23.2499 28.7539 24.8427 29.3722 26.5782 29.3722C28.3136 29.3722 29.9064 28.7539 31.1561 27.7238C32.4057 28.7539 33.9985 29.3722 35.734 29.3722C39.747 29.3722 43 26.0719 43 22.0006C43 17.9292 39.7471 14.6289 35.7342 14.6289ZM31.1561 25.3135C30.4982 24.3793 30.1097 23.2364 30.1097 22.0006C30.1097 20.7648 30.4982 19.6219 31.1561 18.6876C31.8141 19.6219 32.2024 20.7648 32.2024 22.0006C32.2024 23.2364 31.8141 24.3793 31.1561 25.3135ZM22.0001 25.3135C21.3421 24.3793 20.9536 23.2364 20.9536 22.0006C20.9536 20.7648 21.3421 19.6217 22.0001 18.6875C22.6579 19.6217 23.0464 20.7648 23.0464 22.0006C23.0464 23.2364 22.6579 24.3793 22.0001 25.3135ZM12.8441 25.3135C12.1861 24.3793 11.7976 23.2364 11.7976 22.0006C11.7976 20.7648 12.1861 19.6217 12.8441 18.6875C13.5021 19.6217 13.8906 20.7648 13.8906 22.0006C13.8906 23.2364 13.5021 24.3793 12.8441 25.3135ZM2.6414 22.0006C2.6414 18.8489 5.15965 16.2942 8.26599 16.2942C9.55445 16.2942 10.741 16.7348 11.6892 17.4741C10.7294 18.7235 10.156 20.2937 10.156 22.0006C10.156 23.7073 10.7294 25.2776 11.6892 26.5269C10.741 27.2662 9.55445 27.7068 8.26599 27.7068C5.15965 27.7068 2.6414 25.1521 2.6414 22.0006ZM13.9989 26.5269C14.9587 25.2774 15.5321 23.7073 15.5321 22.0006C15.5321 20.2937 14.9587 18.7235 13.9989 17.4741C14.9472 16.7348 16.1337 16.2942 17.4221 16.2942C18.7106 16.2942 19.8971 16.7348 20.8454 17.4741C19.8854 18.7235 19.3122 20.2937 19.3122 22.0006C19.3122 23.7073 19.8856 25.2774 20.8454 26.5269C19.8971 27.2662 18.7106 27.7068 17.4221 27.7068C16.1335 27.7068 14.9472 27.2662 13.9989 26.5269ZM23.1549 26.5269C24.1149 25.2774 24.6883 23.7073 24.6883 22.0006C24.6883 20.2937 24.1149 18.7235 23.1549 17.4741C24.1032 16.7348 25.2897 16.2942 26.5782 16.2942C27.8666 16.2942 29.053 16.7348 30.0014 17.4742C29.0414 18.7237 28.4682 20.2937 28.4682 22.0006C28.4682 23.7073 29.0414 25.2774 30.0014 26.5269C29.0531 27.2662 27.8666 27.7068 26.5782 27.7068C25.2897 27.7068 24.1032 27.2662 23.1549 26.5269ZM35.7342 27.7068C34.4458 27.7068 33.2593 27.2662 32.3109 26.5269C33.2707 25.2774 33.8441 23.7073 33.8441 22.0006C33.8441 20.2937 33.2707 18.7235 32.3108 17.4742C33.2592 16.7348 34.4455 16.2942 35.734 16.2942C38.8403 16.2942 41.3586 18.8491 41.3586 22.0006C41.3586 25.1521 38.8405 27.7068 35.7342 27.7068Z" fill="black"/>
</svg>
