<svg width="44" height="44" viewBox="0 0 44 44" fill="none" xmlns="http://www.w3.org/2000/svg">
<g clip-path="url(#clip0_15133_254518)">
<path d="M33.0753 29.4913H10.928C10.3822 29.4913 9.94531 29.0479 9.94531 28.5098C9.94531 29.0485 10.3828 29.7445 10.928 30.0566L33.0753 42.8495C33.6182 43.1604 34.0586 42.9743 34.0586 42.4315V29.4112C34.0586 29.2581 34.0203 29.0962 33.9556 28.9302C33.796 29.2723 33.4527 29.4907 33.0753 29.4907" fill="#EC0080"/>
<path d="M33.0753 27.8674L22.9237 22L10.928 28.9255C10.3822 29.2376 9.94531 29.0498 9.94531 28.511C9.94531 29.0492 10.3828 29.4908 10.928 29.4908H33.0753C33.4633 29.4908 33.8019 29.2635 33.9556 28.932C33.8019 28.5139 33.4633 28.0888 33.0753 27.8674Z" fill="#85288F"/>
<path d="M34.0578 1.56914C34.0578 1.02332 33.6162 0.837848 33.0781 1.15462L10.9273 13.9364C10.3838 14.2496 9.94336 14.9444 9.94336 15.4885C9.94336 14.9444 10.3832 14.5064 10.9273 14.5064H33.0745C33.452 14.5052 33.7958 14.7236 33.9548 15.0657C34.0213 14.8997 34.0578 14.7336 34.0578 14.5847V1.56914Z" fill="#FCB832"/>
<path d="M33.0753 14.5059H10.928C10.3822 14.5059 9.94531 14.9457 9.94531 15.4868C9.94531 14.9451 10.3828 14.759 10.928 15.0723L22.9237 21.9984L33.0788 16.131C33.4633 15.9072 33.8019 15.4856 33.9556 15.0646C33.8019 14.7349 33.4633 14.5059 33.0753 14.5059Z" fill="#F5841E"/>
<path d="M10.9267 28.9249L22.9218 21.9993L10.9267 15.0732C10.3826 14.7618 9.94336 14.9461 9.94336 15.4878V28.5098C9.94336 29.0491 10.3826 29.2363 10.9267 28.9243" fill="#44207A"/>
</g>
<defs>
<clipPath id="clip0_15133_254518">
<rect width="24.1145" height="42" fill="white" transform="translate(9.94336 1)"/>
</clipPath>
</defs>
</svg>
