<svg width="44" height="44" viewBox="0 0 44 44" fill="none" xmlns="http://www.w3.org/2000/svg">
<g clip-path="url(#clip0_11335_188187)">
<path d="M22.0024 38.9412L26.7596 12.1907C31.2941 12.1907 32.7234 12.6881 32.9299 14.7166C32.9299 14.7166 35.9708 13.5823 37.506 11.2789C31.5194 8.50494 25.5046 8.38025 25.5046 8.38025L21.9944 12.6546H22.0024L18.4923 8.37891C18.4923 8.37891 12.4775 8.5036 6.49219 11.2776C8.02471 13.581 11.067 14.7153 11.067 14.7153C11.2748 12.6854 12.7027 12.1893 17.2064 12.1853L22.0011 38.9399" fill="#E82127"/>
<path d="M21.9999 7.13361C26.8388 7.09607 32.3776 7.88174 38.0478 10.3527C38.8053 8.9892 39.0011 8.38587 39.0011 8.38587C32.8026 5.93498 26.9983 5.09567 21.9999 5.07422C17.0014 5.09567 11.1971 5.93498 5 8.38721C5 8.38721 5.2762 9.12998 5.95196 10.3541C11.6208 7.88174 17.161 7.09607 21.9999 7.13361Z" fill="#E82127"/>
</g>
<defs>
<clipPath id="clip0_11335_188187">
<rect width="33.9997" height="33.8539" fill="white" transform="translate(5 5.07227)"/>
</clipPath>
</defs>
</svg>
