<svg width="44" height="44" viewBox="0 0 44 44" fill="none" xmlns="http://www.w3.org/2000/svg">
<g clip-path="url(#clip0_12575_210519)">
<path d="M35.4184 7.11582C34.0259 6.55883 32.5917 6.08539 31.1296 5.72335C29.1105 5.23599 27.0636 4.90179 25.0027 4.7347C23.9862 4.65115 23.0811 4.60938 22.0507 4.60938H21.9671C20.9506 4.6233 20.0316 4.65115 19.0151 4.7347C16.9403 4.90179 14.8934 5.22206 12.8882 5.70942C11.4261 6.08539 9.9919 6.5449 8.59943 7.10189C8.5298 7.12974 8.50195 7.14367 8.50195 7.14367C8.50195 7.14367 8.66905 17.6011 8.8083 22.7672C8.83615 24.2989 9.11464 25.8027 9.62985 27.237C10.2147 28.8662 11.0084 30.4257 11.9692 31.8739C12.9718 33.3638 14.1972 34.7006 15.5896 35.8424C16.1327 36.3019 16.7175 36.7197 17.3163 37.1096C18.2632 37.6805 19.2379 38.1818 20.2544 38.5995C20.5886 38.7388 20.881 38.878 21.1456 38.9615C21.4241 39.0729 21.7026 39.1565 21.995 39.2261C22.2874 39.1565 22.5659 39.0729 22.8444 38.9615C23.109 38.878 23.4014 38.7388 23.7356 38.5995C24.7521 38.1818 25.7407 37.6805 26.6737 37.1096C27.2725 36.7336 27.8434 36.3019 28.4004 35.8424C29.7928 34.7006 31.0182 33.3638 32.0208 31.8739C32.9816 30.4257 33.7753 28.8662 34.3601 27.237C34.8753 25.8027 35.1538 24.2849 35.1817 22.7672C35.307 17.5872 35.488 7.14367 35.488 7.14367C35.4741 7.12974 35.4463 7.11582 35.4184 7.11582Z" fill="url(#paint0_linear_12575_210519)"/>
<path d="M21.6743 33.7118H14.0157C14.5867 34.3384 15.1993 34.9093 15.8399 35.4523C16.369 35.8979 16.9121 36.3017 17.4969 36.6777C18.402 37.2347 19.3489 37.7081 20.3236 38.1259C20.6439 38.2651 20.9224 38.3904 21.187 38.4879C21.368 38.5575 21.5351 38.6132 21.6743 38.655V33.7118ZM21.6743 27.9887C20.5186 27.8912 19.4324 27.4317 18.5413 26.6937C18.4856 26.6519 18.4299 26.5963 18.3742 26.5545H9.92188C9.97757 26.7355 10.0333 26.9165 10.1029 27.0975C10.4232 28.0026 10.8131 28.8799 11.2586 29.7293H21.6743V27.9887ZM34.7635 19.2301H27.2999V19.8149V22.5024H34.7078C34.7218 21.5416 34.7357 20.4137 34.7635 19.2301ZM34.9028 12.3652H22.1338V15.5401H34.8471C34.861 14.4261 34.8749 13.3539 34.9028 12.3652Z" fill="#B12B28"/>
<path fill-rule="evenodd" clip-rule="evenodd" d="M32.0207 31.8733C31.0182 33.3633 29.7928 34.7 28.4003 35.8418C27.8572 36.3014 27.2724 36.7191 26.6736 37.109C25.7268 37.6799 24.752 38.1812 23.7355 38.5989C23.4013 38.7382 23.1089 38.8774 22.8444 38.961C22.5659 39.0724 22.2874 39.1559 21.9949 39.2255C21.7025 39.1559 21.424 39.0724 21.1455 38.961C20.881 38.8774 20.5886 38.7382 20.2544 38.5989C19.2379 38.1812 18.2492 37.6799 17.3162 37.109C16.7175 36.733 16.1466 36.3014 15.5896 35.8418C14.4338 34.895 13.3895 33.8088 12.4844 32.6113L12.5261 32.667C13.4313 33.9063 14.4895 35.0342 15.6731 36.0229C16.2301 36.4824 16.815 36.9001 17.4276 37.29C18.3328 37.847 19.2796 38.3483 20.2544 38.78C20.5886 38.9192 20.881 39.0445 21.1455 39.142C21.424 39.2534 21.7025 39.3369 21.9949 39.4066C22.2874 39.3369 22.5659 39.2534 22.8444 39.142C23.1089 39.0585 23.4013 38.9192 23.7355 38.78C24.752 38.3622 25.7407 37.8609 26.6736 37.29C27.2724 36.9141 27.8433 36.4824 28.4003 36.0229C29.7928 34.881 31.0182 33.5443 32.0207 32.0543C32.9815 30.6062 33.7752 29.0327 34.3601 27.3896C34.5272 26.9161 34.6664 26.4288 34.7639 25.9414C34.5829 26.5959 34.3601 27.2364 34.3601 27.2364C33.7752 28.8795 32.9815 30.4252 32.0207 31.8733Z" fill="#613E18"/>
<path fill-rule="evenodd" clip-rule="evenodd" d="M34.918 7.5191L34.8902 7.50518C33.5395 6.96212 32.1609 6.5026 30.7545 6.15448C28.819 5.68105 26.8417 5.36078 24.8505 5.19368C23.8757 5.11013 22.9985 5.08228 22.0098 5.06836H21.9263C20.9516 5.08228 20.0604 5.11013 19.0856 5.19368C17.0944 5.36078 15.1171 5.68105 13.1816 6.15448C11.7891 6.51653 10.4106 6.96212 9.07378 7.50518L8.99023 7.53303V7.72797C9.00416 7.71405 9.03201 7.71405 9.04593 7.70012L9.05986 7.6862C10.3966 7.14314 11.7613 6.69755 13.1676 6.33551C15.1032 5.86207 17.0805 5.5418 19.0717 5.3747C20.0464 5.29115 20.9237 5.24938 21.9124 5.23546H22.0098C22.9846 5.24938 23.8757 5.27723 24.8505 5.36078C26.8417 5.52787 28.819 5.84814 30.7545 6.32158C32.1609 6.68362 33.5395 7.12921 34.8902 7.67227L34.918 7.6862C34.9459 7.70012 34.9737 7.71405 35.0016 7.72797V7.53303C34.9737 7.53303 34.9459 7.5191 34.918 7.5191Z" fill="#613E18"/>
<path fill-rule="evenodd" clip-rule="evenodd" d="M19.1139 9.12105C19.9912 9.0375 20.7988 9.00965 21.6622 8.99573V8.80078C20.7988 8.81471 19.9912 8.84256 19.1139 8.9261C17.1366 9.0932 15.1593 9.41347 13.2238 9.88691C11.8174 10.2489 10.4388 10.6945 9.08814 11.2515L9.07422 11.2654V11.4465H9.08814C10.4388 10.9034 11.8174 10.4578 13.2099 10.0958C15.1593 9.60841 17.1227 9.27422 19.1139 9.12105Z" fill="#613E18"/>
<path fill-rule="evenodd" clip-rule="evenodd" d="M27.2871 23.0167H34.6533C34.6672 22.961 34.6811 22.9053 34.6811 22.8496H27.2871V23.0167Z" fill="#634014"/>
<path fill-rule="evenodd" clip-rule="evenodd" d="M31.2012 28.6427V28.7124C31.2012 28.768 31.1873 28.782 31.1594 28.782C30.8531 28.8516 30.5746 28.9908 30.3518 29.2136C30.3379 29.2276 30.3239 29.2415 30.31 29.2554L30.2961 29.2415C30.2961 29.2415 30.2961 29.2276 30.2961 29.2136C30.2961 29.1719 30.3239 29.1301 30.3796 29.0883C30.6024 28.8794 30.8809 28.7402 31.1873 28.6706C31.1873 28.6706 31.2012 28.6567 31.2012 28.6427ZM29.7252 27.7933C29.4745 27.8908 29.2517 28.044 29.0846 28.2389C28.9593 28.3642 28.8619 28.5313 28.8062 28.6984C28.8062 28.6984 28.7922 28.7402 28.8201 28.7541C28.8758 28.6149 28.9732 28.4756 29.0846 28.3642C29.2517 28.1693 29.4745 28.0161 29.7113 27.9186C29.7391 27.9047 29.753 27.8908 29.753 27.8629L29.767 27.7515C29.753 27.7794 29.753 27.7933 29.7252 27.7933ZM28.1656 27.4313C27.8314 27.6402 27.5529 27.9186 27.3719 28.2668C27.2744 28.4478 27.2327 28.6427 27.2187 28.8516C27.2187 28.8794 27.2187 28.8934 27.2327 28.9073H27.2466C27.2605 28.7263 27.3023 28.5313 27.3719 28.3642C27.539 28.03 27.8175 27.7515 28.1517 27.5705C28.1795 27.5009 28.1935 27.4174 28.1935 27.3338C28.2074 27.3895 28.1935 27.4174 28.1656 27.4313ZM26.1048 27.8629C25.9794 27.9743 25.868 28.0997 25.7845 28.2389C25.6035 28.5453 25.5199 28.9073 25.5617 29.2693C25.5617 28.963 25.6452 28.6567 25.7984 28.3782C25.868 28.2389 25.9655 28.1136 26.0769 28.0022C26.1048 27.9465 26.1187 27.8769 26.1187 27.8072C26.1326 27.8351 26.1326 27.849 26.1048 27.8629ZM22.8325 30.5783C22.8464 30.5783 22.8464 30.5643 22.8464 30.5504C22.8464 30.5504 22.8464 30.5365 22.8325 30.5365C22.6932 30.4251 22.6097 30.2719 22.5957 30.1048C22.5679 30.2858 22.6375 30.4808 22.7768 30.6061C22.7907 30.5922 22.8185 30.5922 22.8325 30.5783ZM29.6834 23.978C29.4745 24.0754 29.2935 24.2147 29.1543 24.3957C29.0011 24.5489 28.9036 24.7438 28.8479 24.9388C28.8479 24.9527 28.834 24.9805 28.8479 24.9945C28.9176 24.8134 29.015 24.6603 29.1543 24.521C29.2935 24.34 29.4745 24.2008 29.6834 24.1033C29.7391 24.0754 29.7391 24.0197 29.7391 23.9083C29.7252 23.9501 29.7113 23.964 29.6834 23.978ZM31.7164 24.3122C31.4518 24.3539 31.2151 24.4653 31.0063 24.6185C30.8252 24.7438 30.6721 24.9248 30.5607 25.1198C30.5607 25.1337 30.5189 25.1755 30.5746 25.1894C30.686 25.0223 30.8252 24.8831 30.9784 24.7577C31.1873 24.5906 31.424 24.4792 31.6886 24.4375C31.7164 24.4375 31.7303 24.3957 31.7303 24.3818V24.2704C31.7443 24.2982 31.7443 24.3122 31.7164 24.3122ZM33.2481 25.3147C33.2481 25.3426 33.2342 25.3565 33.2203 25.3426C32.9279 25.3565 32.6494 25.454 32.4266 25.635C32.3709 25.6768 32.3152 25.7185 32.2595 25.7742C32.2177 25.8021 32.2316 25.8299 32.2316 25.8299C32.2456 25.8439 32.2595 25.8578 32.2734 25.8717C32.3152 25.8299 32.357 25.8021 32.3987 25.7742C32.6354 25.5932 32.9139 25.4818 33.2203 25.4679C33.2342 25.4679 33.2481 25.3844 33.2481 25.3147ZM24.1971 27.9186C24.1971 27.9326 24.1971 27.9326 24.1971 27.9465C24.1832 28.0997 24.0718 28.2389 23.9186 28.2668C23.7376 28.3503 23.5287 28.3085 23.3894 28.1693C23.278 28.2946 23.1109 28.3642 22.9439 28.3225C22.8046 28.2946 22.6932 28.2111 22.6236 28.0857C22.5957 28.0161 22.5818 27.9604 22.5818 27.9465H22.5679C22.4147 27.9604 22.2615 27.9743 22.1223 27.9743V28.1136C22.2755 28.1136 22.4286 28.0997 22.5818 28.0857C22.5957 28.1414 22.6097 28.1832 22.6236 28.225C22.6932 28.3364 22.8046 28.4199 22.9299 28.4478C23.097 28.4756 23.2641 28.4199 23.3755 28.2946C23.5287 28.4339 23.7376 28.4756 23.9325 28.3921C24.0718 28.3503 24.1692 28.225 24.1832 28.0718C24.1971 28.03 24.1971 27.9743 24.1971 27.9186ZM24.587 31.8315C24.392 31.9429 24.1414 31.9429 23.9464 31.8315C23.8629 31.7758 23.7933 31.7062 23.7376 31.6087C23.7236 31.5948 23.7097 31.5808 23.6958 31.5808C23.5565 31.7062 23.3755 31.7619 23.1945 31.7479C22.9996 31.734 22.8046 31.6226 22.6932 31.4555C22.6097 31.3302 22.5679 31.1909 22.5679 31.0378L22.554 31.0517C22.54 31.2327 22.5957 31.4277 22.7071 31.5808C22.8046 31.7479 22.9856 31.8454 23.1666 31.8733C23.3616 31.8872 23.5426 31.8176 23.6958 31.6922C23.6958 31.6922 23.7236 31.7062 23.7376 31.7201C23.7933 31.8036 23.8629 31.8733 23.9464 31.9429C24.1414 32.0543 24.392 32.0543 24.587 31.9429C24.7819 31.8036 24.9072 31.5808 24.9212 31.3441C24.8794 31.553 24.768 31.734 24.587 31.8315ZM29.2935 32.7923C29.1403 32.848 29.0011 32.9176 28.8619 33.0012C28.6669 33.1404 28.5137 33.3493 28.4302 33.5721C28.4302 33.5721 28.4302 33.586 28.4441 33.5999L28.458 33.6138C28.5555 33.4189 28.6808 33.2518 28.8619 33.1125C29.0011 33.029 29.1403 32.9594 29.2935 32.9037C29.3074 32.9037 29.3214 32.8201 29.3214 32.7784C29.3214 32.7784 29.3074 32.7923 29.2935 32.7923ZM28.2213 32.1657C28.2213 32.1796 28.2213 32.1796 28.2074 32.1796C27.7618 32.291 27.3998 32.5834 27.2048 33.0012V33.0429L27.2327 33.0568C27.4415 32.6948 27.7896 32.4302 28.1935 32.3049C28.2213 32.291 28.2213 32.2214 28.2213 32.1657ZM26.3554 32.0125C26.1744 32.1796 26.0073 32.3885 25.8959 32.5973C25.7984 32.7644 25.7706 32.9733 25.7984 33.1682C25.7984 33.1822 25.8123 33.1961 25.8123 33.1961C25.7984 33.029 25.8402 32.8758 25.9098 32.7227C26.0351 32.5138 26.1744 32.3188 26.3415 32.1517C26.3554 32.096 26.3693 32.0264 26.3693 31.9707C26.3693 31.9846 26.3554 31.9986 26.3554 32.0125ZM24.7262 32.667C24.5313 32.8758 24.4477 33.1682 24.5034 33.4607C24.4756 33.21 24.573 32.9733 24.7401 32.7923C24.7541 32.7366 24.7541 32.6948 24.7541 32.6391C24.7401 32.6391 24.7262 32.653 24.7262 32.667ZM23.8907 34.2683L23.9325 34.2404C23.9604 34.2265 23.9186 34.2126 23.9047 34.1987C23.835 34.0873 23.7933 33.948 23.7654 33.8227C23.7376 33.7113 23.7236 33.5999 23.7236 33.4885C23.7236 33.6278 23.7376 33.7809 23.7654 33.9202C23.8072 34.0316 23.835 34.1569 23.8907 34.2683ZM24.7123 35.8418C24.587 35.9532 24.4059 35.995 24.2389 35.9393C24.0857 35.8836 23.9464 35.7861 23.8629 35.6468C23.849 35.6329 23.8211 35.6468 23.8211 35.6608C23.7236 35.8696 23.5287 36.0367 23.3059 36.1064C23.1527 36.1203 22.9996 36.0785 22.8882 35.981C22.7907 35.8975 22.735 35.7582 22.735 35.6329C22.735 36.0089 22.7768 36.0228 22.8882 36.1064C23.0135 36.2038 23.1666 36.2456 23.3198 36.2317C23.5426 36.1621 23.7376 35.995 23.835 35.7861C23.835 35.7861 23.8629 35.7582 23.8768 35.7722C23.9743 35.9114 24.0996 36.0089 24.2528 36.0646C24.4199 36.1203 24.587 36.0785 24.7262 35.9671C24.8515 35.8279 24.9212 35.6608 24.9072 35.4658C24.8933 35.619 24.8237 35.7443 24.7123 35.8418ZM22.9717 35.1455L23.0413 35.0899C23.0553 35.0759 23.0413 35.062 23.0274 35.062C22.8185 34.9924 22.6793 34.8114 22.6654 34.6025C22.6514 34.8253 22.7768 35.0342 22.9717 35.1455ZM9.81286 13.9522C9.84071 13.9383 9.84071 13.9104 9.82678 13.8965C9.78501 13.8129 9.75716 13.7294 9.75716 13.6459V13.6598C9.75716 13.7572 9.78501 13.8547 9.81286 13.9522ZM10.2167 21.1095C10.2445 21.0816 10.2584 21.0538 10.2445 21.0399C10.1888 20.9702 10.147 20.9006 10.1053 20.8171C10.0774 20.7614 10.0774 20.7057 10.0774 20.65C10.0774 20.7474 10.0914 20.8588 10.1192 20.9563C10.1331 21.012 10.1749 21.0677 10.2167 21.1095ZM12.1104 21.6943C12.0965 21.8614 11.999 22.0007 11.8598 22.0703C11.7066 22.1678 11.5256 22.2095 11.3446 22.1538C11.2193 22.1121 11.1079 22.0424 11.0243 21.945C10.9965 21.9032 10.9547 21.945 10.9129 21.9728C10.8015 22.0424 10.6901 22.0981 10.5787 22.1538C10.3559 22.2652 10.0774 22.1956 9.93818 21.9867C9.86856 21.8893 9.82678 21.7779 9.82678 21.6525C9.81286 21.8057 9.85463 21.9728 9.93818 22.1121C10.0774 22.3209 10.3559 22.4045 10.5926 22.2931C10.704 22.2374 10.8154 22.1817 10.9268 22.1121C10.9686 22.0842 10.9965 22.0424 11.0243 22.0703C11.1079 22.1678 11.2332 22.2513 11.3585 22.2931C11.5395 22.3488 11.7205 22.307 11.8737 22.2095C12.0547 22.126 12.1522 21.9171 12.1104 21.7222V21.6943ZM11.5952 18.1574C11.5952 18.3385 11.4977 18.4916 11.3446 18.5752C11.0939 18.7284 10.7597 18.6587 10.6066 18.4081L10.5926 18.3942C10.5787 18.3663 10.5091 18.3524 10.4812 18.3802C10.3281 18.4916 10.1331 18.5473 9.9521 18.5334C9.75716 18.5195 9.59006 18.4081 9.52044 18.2271C9.49259 18.1714 9.47866 18.1157 9.47866 18.06C9.46474 18.1435 9.47866 18.241 9.52044 18.3245C9.59006 18.5056 9.75716 18.6309 9.93818 18.6587C10.1331 18.6587 10.3281 18.603 10.4812 18.4916C10.5091 18.4777 10.5509 18.4777 10.5648 18.5056C10.704 18.7841 11.0522 18.8815 11.3167 18.7423C11.5256 18.6309 11.6091 18.5195 11.5952 18.1574ZM9.91033 17.4891C9.92425 17.4891 9.92425 17.4751 9.93818 17.4751C9.9521 17.4612 9.9521 17.4334 9.93818 17.4055C9.85463 17.322 9.79893 17.2106 9.79893 17.0852C9.79893 17.2245 9.84071 17.3637 9.91033 17.4891ZM12.6117 18.3802C12.4168 18.5752 12.2915 18.8258 12.2218 19.0904C12.1801 19.2853 12.1801 19.4803 12.2218 19.6752C12.2079 19.5221 12.2218 19.3828 12.2497 19.2296C12.3054 18.9651 12.4446 18.7284 12.6256 18.5334C12.6256 18.5195 12.6396 18.5056 12.6396 18.4777V18.3663C12.6256 18.3663 12.6117 18.3802 12.6117 18.3802ZM14.3105 17.8233C13.7953 18.1296 13.5168 18.7144 13.6143 19.3132C13.5725 18.7701 13.851 18.2549 14.3245 17.9764C14.3523 17.9625 14.3384 17.865 14.3384 17.7954C14.3245 17.8093 14.3245 17.8233 14.3105 17.8233ZM15.1599 18.8537C15.1599 18.8676 15.2017 18.8955 15.2156 18.8955H15.2574C15.4524 18.4081 15.7866 17.9764 16.2321 17.684C16.2461 17.6701 16.2461 17.6144 16.2461 17.5865V17.503C16.2461 17.5169 16.2321 17.5448 16.2182 17.5448C15.7309 17.8511 15.3688 18.3106 15.1599 18.8537ZM12.7231 15.0244C12.5839 15.1079 12.4586 15.2333 12.375 15.3725C12.1801 15.6649 12.1104 16.013 12.1661 16.3472C12.1661 16.3612 12.1661 16.389 12.1801 16.4029C12.1661 16.0966 12.2497 15.7903 12.4168 15.5396C12.4864 15.4004 12.5978 15.289 12.737 15.2054L12.751 15.1915V15.0105C12.737 15.0105 12.737 15.0105 12.7231 15.0244ZM14.5194 14.537C14.3245 14.6345 14.1574 14.7877 14.0181 14.9687C13.851 15.1915 13.7396 15.4421 13.6839 15.7206C13.6839 15.7624 13.6978 15.7903 13.7396 15.8042C13.8092 15.5535 13.9206 15.3307 14.0738 15.1219C14.1991 14.9408 14.3523 14.7877 14.5333 14.6763C14.5751 14.6624 14.5751 14.6206 14.5751 14.5649V14.4813C14.589 14.5092 14.5612 14.5231 14.5194 14.537ZM16.6777 14.4953C16.4132 14.5092 16.1486 14.6067 15.9258 14.7459C15.6752 14.8991 15.4941 15.1497 15.4245 15.4421C15.4245 15.4839 15.4524 15.5118 15.4802 15.5257C15.5638 15.275 15.7309 15.0662 15.9676 14.913C16.1764 14.7598 16.4271 14.6624 16.6917 14.6345C16.7334 14.6345 16.7195 14.5788 16.7195 14.551V14.4396C16.7195 14.4674 16.7056 14.4813 16.6777 14.4953ZM17.5271 15.5118L17.5968 15.47C17.8474 15.3029 18.1398 15.1915 18.4322 15.1358C18.4601 15.1358 18.474 15.1219 18.474 15.0522V14.9687C18.474 14.9826 18.4601 14.9826 18.4462 14.9826C18.0702 15.0522 17.7221 15.2054 17.4157 15.4282C17.374 15.47 17.3322 15.4978 17.4018 15.4978L17.5271 15.5118ZM13.1826 11.0837C12.9041 11.2787 12.6535 11.5015 12.4446 11.766C12.2775 12.0445 12.194 12.3787 12.2079 12.7129C12.2079 12.7268 12.2218 12.7268 12.2358 12.7268C12.2497 12.4483 12.3472 12.1698 12.4864 11.9331C12.6953 11.6685 12.932 11.4458 13.1966 11.2369C13.2105 11.1673 13.2105 11.0976 13.2105 11.028C13.2105 11.0419 13.2105 11.0698 13.1826 11.0837ZM15.5498 10.5406C15.5498 10.5546 15.5498 10.5546 15.5359 10.5685C15.2853 10.7356 15.0485 10.9166 14.8258 11.1255C14.603 11.3622 14.4776 11.6685 14.4359 11.9888C14.4359 12.0027 14.4498 12.0167 14.4637 12.0167H14.4916C14.5612 11.7521 14.6865 11.5154 14.8536 11.3065C15.0625 11.0976 15.2853 10.9166 15.522 10.7495C15.5359 10.7356 15.5359 10.6799 15.5359 10.666L15.5498 10.5406ZM17.9588 10.4153C17.5968 10.5267 17.2626 10.7077 16.9841 10.9584C16.7891 11.1673 16.6499 11.4318 16.6081 11.7103C16.6081 11.7242 16.636 11.7242 16.6499 11.7242C16.7195 11.5015 16.8309 11.2926 16.998 11.1255C17.2904 10.8748 17.6246 10.6938 17.9727 10.5685C18.0006 10.5546 18.0145 10.5267 18.0145 10.4989C18.0145 10.4571 18.0145 10.3457 18.0145 10.3457C18.0006 10.3736 17.9867 10.4014 17.9588 10.4153ZM20.0057 11.3761C19.7133 11.3761 19.4209 11.404 19.1424 11.4597C18.9614 11.5293 18.7943 11.6268 18.655 11.7799C18.6411 11.7939 18.655 11.8217 18.669 11.8356L18.7525 11.8635C18.8639 11.766 18.9892 11.6825 19.1285 11.6407C19.4209 11.585 19.7133 11.5711 20.0057 11.5711C20.0197 11.5711 20.0475 11.5432 20.0475 11.5293V11.3761C20.0475 11.3622 20.0197 11.3761 20.0057 11.3761ZM11.637 14.5927C11.5674 14.8016 11.5117 14.8294 11.3446 14.9408C11.1914 15.0383 10.9965 15.0801 10.8154 15.0244C10.704 14.9826 10.6066 14.913 10.523 14.8155C10.5091 14.8016 10.4952 14.8016 10.4812 14.8155C10.3698 14.8851 10.2445 14.9548 10.1192 14.9965C9.8964 15.0801 9.63184 14.9965 9.50651 14.7877C9.50651 14.7877 9.49259 14.7738 9.47866 14.7598V14.7459C9.47866 14.732 9.46474 14.7181 9.46474 14.7041V14.6902C9.46474 14.6763 9.45081 14.6624 9.45081 14.6345V14.6206C9.45081 14.5927 9.45081 14.5788 9.45081 14.551C9.45081 14.5649 9.45081 14.5788 9.45081 14.5927C9.43689 14.7181 9.46474 14.8573 9.52044 14.9826C9.67361 15.1776 9.93818 15.2611 10.1749 15.1915C10.3002 15.1358 10.4116 15.0662 10.523 14.9965C10.5369 14.9965 10.5509 14.9965 10.5648 14.9965C10.6483 15.094 10.7458 15.1776 10.8711 15.2193C11.0522 15.2611 11.2471 15.2193 11.4003 15.1219C11.4977 15.0662 11.5813 14.9826 11.6231 14.8712C11.6648 14.7738 11.6788 14.6624 11.6648 14.5649C11.6509 14.5649 11.637 14.5788 11.637 14.5927ZM19.8386 13.2977C19.8247 13.3395 19.7829 13.3534 19.7551 13.3674C19.7272 13.3674 19.6855 13.3674 19.6715 13.3395C19.0867 12.8521 18.3487 12.5597 17.5828 12.5458C15.4802 12.6015 13.4054 13.1306 11.5256 14.0914C11.5117 14.1054 11.4977 14.1471 11.5117 14.1611C11.5395 14.1889 11.5674 14.2168 11.5813 14.2585C13.4472 13.2977 15.522 12.7686 17.6246 12.7129C18.3905 12.7407 19.1285 13.0192 19.7133 13.5066C19.7272 13.5345 19.769 13.5484 19.7969 13.5484C19.8247 13.5345 19.8526 13.4788 19.8665 13.4509C19.8943 13.3256 19.8943 13.2003 19.8943 13.0749C19.8804 13.1585 19.8665 13.2281 19.8386 13.2977ZM16.7613 16.584C16.5524 16.5004 16.3296 16.4586 16.1068 16.4308C14.5055 16.4726 12.9598 16.9042 11.5674 17.6979C11.5395 17.7119 11.5117 17.7536 11.5117 17.7815C11.5256 17.8233 11.5395 17.865 11.5534 17.9068C11.5674 17.8929 11.5813 17.879 11.5952 17.865C12.9738 17.0713 14.5333 16.6257 16.1347 16.5979C16.3435 16.6118 16.5663 16.6675 16.7613 16.7371C16.7752 16.7371 16.7891 16.7371 16.7891 16.7511V16.584C16.7752 16.584 16.7752 16.584 16.7613 16.584ZM16.7891 19.7588V19.7866C16.7613 19.7866 16.7613 19.7866 16.7195 19.7866C15.898 19.7449 15.0764 19.8423 14.2827 20.0791C13.4472 20.3297 12.6396 20.6917 11.8876 21.1373C11.8319 21.1652 11.8459 21.1652 11.8876 21.2209C11.9016 21.2348 11.9155 21.2487 11.9294 21.2766C12.6813 20.8449 13.4751 20.4968 14.3105 20.2461C15.1042 20.0094 15.9258 19.898 16.7474 19.9398C16.7891 19.9398 16.7752 19.9398 16.8031 19.9398L16.7891 19.7588ZM25.1718 26.9578C24.8376 27.1946 24.4756 27.3895 24.0996 27.5427L24.1553 27.6402V27.6541C24.5173 27.5009 24.8515 27.306 25.1718 27.0832L25.1997 27.0692C25.7427 26.93 27.901 26.1641 29.2239 26.1363C30.0455 26.1224 30.8531 26.3173 31.5772 26.7072C31.9531 26.9161 32.2734 27.1946 32.5658 27.5148C32.5797 27.5288 32.5797 27.5566 32.6215 27.5566C32.6494 27.5566 32.6633 27.5427 32.6633 27.5288C32.7468 27.306 32.7886 27.0692 32.7886 26.8325C32.7886 27.0275 32.7468 27.2224 32.6633 27.4034C32.6494 27.4174 32.6354 27.4313 32.6215 27.4313C32.5797 27.4313 32.5797 27.3895 32.5658 27.3756C32.2873 27.0553 31.9531 26.7907 31.5772 26.5819C30.8531 26.192 30.0455 25.9831 29.2378 25.997C27.915 26.011 25.7706 26.7907 25.2275 26.93C25.2275 26.9439 25.1857 26.9578 25.1718 26.9578ZM30.8252 30.8428C30.7695 30.8707 30.7138 30.8846 30.6581 30.8846C30.491 30.6757 30.2961 30.4808 30.0733 30.2998C29.8087 30.077 29.5024 29.9238 29.1543 29.8542C28.6391 29.7567 28.1238 29.7428 27.6086 29.8124C26.606 29.9516 25.6452 30.2858 24.7819 30.7871C24.7401 30.815 24.7123 30.8289 24.7401 30.8568C24.7541 30.8846 24.768 30.8985 24.7819 30.9124C25.6592 30.4112 26.606 30.0909 27.6086 29.9516C28.1238 29.8681 28.653 29.882 29.1543 29.9795C29.4885 30.0491 29.7948 30.2162 30.0594 30.4251C30.2682 30.5922 30.4632 30.7871 30.6442 31.0099C30.6999 31.0238 30.7695 31.0099 30.8113 30.9681C30.867 30.8568 30.8949 30.7314 30.8949 30.5922C30.8949 30.6897 30.867 30.7732 30.8252 30.8428ZM28.6948 34.6164C28.6808 34.6303 28.6251 34.6164 28.6112 34.6025C28.472 34.4493 28.3049 34.324 28.1238 34.2126C27.6643 33.9898 27.1491 33.9063 26.6478 33.9759C25.9098 34.0873 25.2136 34.3936 24.6287 34.8671C24.587 34.8949 24.573 34.9367 24.587 34.9506L24.6427 34.9924C25.2275 34.5189 25.9237 34.2126 26.6617 34.1012C27.163 34.0316 27.6783 34.1151 28.1378 34.3379C28.3188 34.4493 28.4859 34.5746 28.6251 34.7278C28.653 34.7417 28.6948 34.7278 28.7087 34.7139C28.834 34.6025 28.8897 34.4354 28.8758 34.2683C28.8619 34.3936 28.7922 34.5329 28.6948 34.6164Z" fill="#432918"/>
<path fill-rule="evenodd" clip-rule="evenodd" d="M34.9461 10.8746C34.9739 8.91124 35.0018 7.56055 35.0018 7.56055C35.0018 7.56055 34.9739 7.56055 34.9739 7.57447C34.9739 7.5884 34.9739 7.69979 34.9461 7.72764C34.9461 7.72764 34.9321 8.99479 34.9043 10.8468L34.9461 10.8746Z" fill="#36250D"/>
<path d="M26.6041 25.4961L26.7294 25.4683L27.4674 25.3012C27.4952 25.3012 27.5231 25.2594 27.5231 25.2455C27.6066 24.8835 27.7598 24.5493 27.9687 24.2429C28.1358 24.0201 28.3725 23.853 28.6371 23.7695C28.9991 23.6302 29.4029 23.6581 29.7232 23.853C29.765 23.8809 29.765 23.9226 29.7371 23.9644C29.7232 23.9783 29.7232 23.9783 29.7093 23.9923C29.5004 24.0758 29.3194 24.229 29.1801 24.41C29.027 24.5632 28.9156 24.7581 28.8599 24.9531C28.8599 24.9809 28.8459 25.0088 28.8738 25.0227C28.9016 25.0505 29.2637 25.0227 29.4029 25.0505C29.4308 25.0505 29.4308 25.0366 29.4586 25.0088C29.57 24.6328 29.7928 24.2847 30.0992 24.034C30.4194 23.7834 30.8372 23.7138 31.2271 23.8391C31.4638 23.8948 31.6587 24.048 31.7701 24.2708C31.7841 24.2847 31.7841 24.3265 31.7423 24.3265C31.4777 24.3682 31.241 24.4796 31.0321 24.6467C30.8511 24.7721 30.6979 24.9391 30.6005 25.1341C30.6005 25.148 30.5587 25.1898 30.6283 25.2037C30.8093 25.2455 30.9904 25.3012 31.1574 25.3569C31.1714 25.3847 31.2271 25.3569 31.241 25.343C31.4499 25.0366 31.7562 24.8138 32.1322 24.7442C32.6752 24.6607 33.1905 24.8974 33.274 25.2594C33.2879 25.3151 33.3019 25.3708 33.2601 25.3708C32.9677 25.3847 32.6752 25.4961 32.4524 25.6772C32.3967 25.7189 32.341 25.7607 32.2993 25.8025C32.2575 25.8303 32.2714 25.8582 32.2714 25.8582C32.3967 25.9835 32.8006 26.2759 32.8284 26.6797C32.8423 26.9304 32.8145 27.1949 32.717 27.4177C32.7031 27.4317 32.6892 27.4456 32.6752 27.4456C32.6335 27.4456 32.6335 27.4177 32.6195 27.4038C32.341 27.0835 32.0069 26.8051 31.6309 26.5962C30.9068 26.2063 30.0992 26.0113 29.2776 26.0253C27.9548 26.0392 25.7825 26.819 25.2534 26.9582L25.2255 26.9722C25.1837 26.9861 25.4762 26.6658 26.6041 25.4961ZM30.0435 28.1836C29.765 28.3089 29.5283 28.5178 29.389 28.7824C29.3751 28.7963 29.3612 28.852 29.3333 28.8381C29.208 28.8241 28.9852 28.7963 28.8599 28.7824C28.8042 28.7824 28.8181 28.7267 28.832 28.7127C28.8877 28.5456 28.9852 28.3785 29.1105 28.2532C29.2915 28.0583 29.5004 27.8912 29.7511 27.7937C29.765 27.7937 29.7789 27.7798 29.7789 27.7659V27.7519C29.6118 27.557 29.3751 27.4317 29.1105 27.4177C28.7763 27.4038 28.4561 27.5291 28.2193 27.7659C27.9408 28.0583 27.7737 28.4342 27.732 28.8381C27.718 28.8659 27.7041 28.8798 27.6763 28.8798C27.537 28.9077 27.4117 28.9077 27.2725 28.9216C27.2585 28.9216 27.2585 28.8938 27.2585 28.8659C27.2585 28.657 27.3142 28.4621 27.4117 28.2811C27.5927 27.933 27.8712 27.6405 28.2054 27.4456C28.2611 27.4038 28.2611 27.3342 28.2472 27.3203C27.8434 27.1532 27.3699 27.1949 27.0079 27.4456C26.7572 27.5848 26.5623 27.7798 26.437 28.0444C26.2977 28.4064 26.2142 28.7824 26.1863 29.1583C26.1724 29.1862 26.1585 29.2001 26.1306 29.214C25.9635 29.2419 25.8104 29.2836 25.6433 29.3393C25.6293 29.3393 25.6154 29.3254 25.6154 29.3115C25.5597 28.9495 25.6433 28.5735 25.8243 28.2671C25.9078 28.1279 26.0053 27.9887 26.1446 27.8912C26.1724 27.8773 26.1724 27.8355 26.1585 27.8216C26.1446 27.8076 26.1306 27.7937 26.1167 27.7937C25.7964 27.738 25.4622 27.7937 25.1838 27.9608C24.8217 28.1558 24.585 28.5178 24.5293 28.9216C24.5014 29.214 24.5154 29.4925 24.585 29.7849C24.585 29.7989 24.5989 29.8267 24.5571 29.8267C24.4457 29.8824 24.1533 30.0356 24.0419 30.0913C24.0419 30.0913 24.0141 30.1052 24.0141 30.0774C23.9584 29.8546 23.8191 29.6735 23.6242 29.5621C23.4153 29.4786 23.1786 29.4925 22.9836 29.59C22.8444 29.6596 22.7469 29.7849 22.6773 29.9103C22.5798 30.147 22.6495 30.4255 22.8583 30.5647C22.8722 30.5786 22.8862 30.5926 22.8583 30.6065C22.733 30.6761 22.733 30.69 22.6216 30.8432C22.5241 31.0521 22.552 31.3027 22.6912 31.4837C22.8026 31.6508 22.9836 31.7483 23.1786 31.7762C23.3735 31.7901 23.5546 31.7344 23.6938 31.6091C23.6938 31.6091 23.7217 31.623 23.7356 31.6369C23.7913 31.7205 23.8609 31.7901 23.9445 31.8597C24.1533 31.9711 24.39 31.9711 24.5989 31.8597C24.8078 31.7344 24.9331 31.4977 24.9053 31.261C24.9053 31.1217 24.8496 30.9825 24.7521 30.885C24.7382 30.8571 24.7521 30.8571 24.7939 30.8154C25.6711 30.3141 26.6319 29.9938 27.6206 29.8546C28.1358 29.771 28.6649 29.7849 29.1662 29.8824C29.5004 29.966 29.8067 30.1191 30.0713 30.328C30.2802 30.4951 30.4751 30.69 30.6562 30.9128C30.7119 30.9268 30.7815 30.9128 30.8233 30.8711C30.9347 30.6343 30.9347 30.3698 30.8372 30.1191C30.7119 29.7989 30.5308 29.5064 30.2802 29.2697C30.2802 29.2697 30.2802 29.2558 30.2802 29.2419C30.2802 29.2001 30.308 29.1723 30.3498 29.1305C30.5726 28.9216 30.8511 28.7684 31.1574 28.6988C31.1992 28.6988 31.2131 28.671 31.1853 28.6292C30.9764 28.2114 30.4751 28.0165 30.0435 28.1836ZM35.502 7.15734C35.502 7.15734 35.3349 17.6008 35.1956 22.7808C35.1678 24.2986 34.8893 25.8164 34.3741 27.2506C33.7892 28.8798 32.9955 30.4394 32.0347 31.8876C31.0321 33.3775 29.8068 34.7143 28.4143 35.8561C27.8712 36.3156 27.2864 36.7334 26.6876 37.1232C25.7407 37.6942 24.766 38.1954 23.7495 38.6132C23.4153 38.7524 23.1229 38.8917 22.8583 38.9752C22.5798 39.0866 22.3013 39.1702 22.0089 39.2398C21.7165 39.1702 21.438 39.0866 21.1595 38.9752C20.8949 38.8917 20.6025 38.7524 20.2683 38.6132C19.2518 38.1954 18.2632 37.6942 17.3302 37.1232C16.7315 36.7473 16.1605 36.3156 15.6036 35.8561C14.2111 34.7143 12.9857 33.3775 11.9831 31.8876C11.0223 30.4394 10.2286 28.8798 9.64378 27.2506C9.12856 25.8164 8.85007 24.2986 8.82222 22.7808C8.66905 17.6008 8.50195 7.15734 8.50195 7.15734C8.50195 7.15734 8.5298 7.14341 8.5855 7.12949C9.97797 6.5725 11.4122 6.09906 12.8743 5.73702C14.8934 5.24966 16.9403 4.91547 19.0012 4.74837C20.0177 4.66482 20.9228 4.62305 21.9532 4.62305H22.0368C23.0533 4.63697 23.9723 4.66482 24.9888 4.74837C27.0497 4.91547 29.1105 5.24966 31.1157 5.73702C32.5778 6.11299 34.012 6.5725 35.4045 7.12949C35.4463 7.12949 35.4741 7.14341 35.502 7.15734ZM9.81088 26.1784H18.0125C17.2467 25.3569 16.815 24.2708 16.8011 23.1568V23.0315H9.32351C9.36528 24.0897 9.53238 25.148 9.81088 26.1784ZM21.6747 33.7117H14.0161C14.587 34.3383 15.1997 34.9092 15.8403 35.4523C16.3694 35.8979 16.9125 36.3017 17.4973 36.6777C18.4024 37.2346 19.3493 37.7081 20.324 38.1258C20.6443 38.2651 20.9228 38.3904 21.1874 38.4879C21.3684 38.5575 21.5355 38.6132 21.6747 38.655V33.7117ZM21.6747 30.1331H11.4818C11.7464 30.6204 12.0388 31.1078 12.3591 31.5951C12.749 32.1939 13.1807 32.7648 13.6541 33.3079H21.6747V30.1331ZM21.6747 27.9887C20.519 27.8912 19.4328 27.4317 18.5417 26.6937C18.486 26.6519 18.4303 26.5962 18.3746 26.5544H9.92227C9.97797 26.7354 10.0337 26.9165 10.1033 27.0975C10.4236 28.0026 10.8135 28.8798 11.259 29.7292H21.6747V27.9887ZM21.6747 8.87007C20.8114 8.884 20.0038 8.91185 19.1265 8.9954C17.1353 9.16249 15.1719 9.46883 13.2364 9.94227C11.83 10.3043 10.4514 10.7499 9.10072 11.293C9.10072 11.293 9.08679 11.293 9.08679 11.3069C9.14249 14.6627 9.23996 19.5364 9.30959 22.6137H16.815V19.8009C16.7872 19.8009 16.7872 19.8009 16.7454 19.8009C15.9238 19.7592 15.1023 19.8566 14.3086 20.0934C13.4731 20.344 12.6654 20.6921 11.9135 21.1377C11.8578 21.1656 11.8717 21.1656 11.9135 21.2213C12.011 21.3327 12.0806 21.4719 12.1224 21.6112C12.1642 21.8061 12.0667 22.015 11.8857 22.0985C11.7325 22.196 11.5515 22.2378 11.3704 22.1821C11.2451 22.1403 11.1337 22.0567 11.0502 21.9593C11.0223 21.9175 10.9945 21.9732 10.9527 22.001C10.8413 22.0707 10.7299 22.1264 10.6185 22.1821C10.3818 22.2935 10.1172 22.2099 9.96405 22.001C9.8248 21.7922 9.8248 21.5137 9.97797 21.3187C10.0476 21.2491 10.159 21.1934 10.2425 21.1238C10.2565 21.1099 10.2704 21.082 10.2565 21.0542C10.2008 20.9845 10.159 20.9149 10.1172 20.8314C10.0476 20.6086 10.1172 20.3579 10.2843 20.2048C10.4653 20.0794 10.7021 20.0516 10.897 20.1491C11.0223 20.2048 11.1198 20.3858 11.2033 20.4972C11.2173 20.525 11.2451 20.539 11.273 20.525L11.4679 20.4136C11.4958 20.3997 11.4818 20.344 11.4679 20.3162C11.2173 19.7035 11.1616 19.2997 11.3983 18.868C11.5375 18.5895 11.7882 18.3946 12.0806 18.3249C12.2616 18.2692 12.4566 18.2832 12.6237 18.3528C12.6376 18.3667 12.6376 18.3946 12.6237 18.4085C12.4426 18.6034 12.3034 18.8541 12.2338 19.1186C12.192 19.3554 12.192 19.5921 12.2616 19.8288C12.2755 19.8706 12.3034 19.8845 12.3312 19.8706C12.4148 19.8427 12.6794 19.7452 12.7908 19.7174C12.8186 19.7035 12.8047 19.6478 12.8047 19.6199C12.7072 19.244 12.7211 18.8401 12.8465 18.4781C13.0971 17.9768 13.6123 17.6844 14.1693 17.7122C14.2668 17.7122 14.3921 17.7958 14.3225 17.8654C13.8073 18.1718 13.5288 18.7566 13.6262 19.3554C13.6262 19.3832 13.6541 19.3971 13.6819 19.3971C13.863 19.3414 14.0718 19.2857 14.2389 19.23C14.2668 19.2161 14.2668 19.1743 14.2668 19.1326C14.2668 18.673 14.4339 18.2275 14.7124 17.8654C15.0326 17.5034 15.52 17.3084 16.0074 17.3363C16.1048 17.3641 16.1884 17.4059 16.2441 17.4755C16.258 17.5034 16.258 17.5451 16.2302 17.573C15.7567 17.8933 15.3808 18.3528 15.1858 18.8819C15.1858 18.8958 15.2137 18.9237 15.2276 18.9237C15.5061 18.8958 15.7985 18.8541 16.077 18.8401C16.1188 18.8401 16.1188 18.8262 16.1327 18.8123C16.2441 18.4781 16.453 18.1996 16.7593 18.0186C16.7732 18.0047 16.7872 17.9907 16.8011 17.9907V16.64C16.7872 16.64 16.7732 16.6261 16.7732 16.6261C16.5644 16.5426 16.3416 16.5008 16.1188 16.4729C14.5174 16.4869 12.9579 16.9325 11.5654 17.7262C11.5375 17.7401 11.5097 17.7819 11.5097 17.8097C11.6768 18.2275 11.5793 18.4642 11.3426 18.6173C11.078 18.7844 10.7438 18.7009 10.5767 18.4363C10.5628 18.4085 10.521 18.4085 10.4932 18.4224C10.34 18.5338 10.1451 18.5895 9.96405 18.5756C9.7691 18.5616 9.602 18.4503 9.53238 18.2692C9.42098 17.949 9.602 17.6008 9.92227 17.5034H9.9362C9.96405 17.4894 9.96405 17.4755 9.9362 17.4477C9.75518 17.2249 9.78303 16.8907 10.0058 16.7097C10.0197 16.6957 10.0476 16.6818 10.0615 16.6679C10.3261 16.5147 10.6742 16.5983 10.8274 16.8628C10.8552 16.9046 10.8692 16.9464 10.8831 16.9882C10.897 17.016 10.897 17.0021 10.9249 17.0021C11.0223 16.9882 11.1059 16.9464 11.1894 16.9046C11.2312 16.8907 11.273 16.7654 11.273 16.7236C11.3008 16.0274 11.259 15.5957 11.7186 15.1362C11.9135 14.9412 12.5819 14.7881 12.7351 14.9969C12.749 15.0109 12.749 15.0248 12.7351 15.0387C12.5819 15.1223 12.4705 15.2476 12.3869 15.3868C12.192 15.6792 12.1224 16.0274 12.1781 16.3615C12.1781 16.3755 12.1781 16.4312 12.2059 16.4172C12.4009 16.3476 12.5958 16.278 12.7768 16.2084C12.7908 16.1945 12.7768 16.1666 12.7768 16.1388C12.749 15.6653 12.8882 15.2058 13.1667 14.8298C13.4731 14.4956 14.2111 14.1615 14.587 14.4817C14.6149 14.5096 14.587 14.5513 14.5453 14.5792C14.3503 14.6767 14.1832 14.8298 14.0579 14.9969C13.8908 15.2197 13.7655 15.4704 13.7098 15.7489C13.7098 15.7767 13.7516 15.8463 13.7794 15.8324C13.9465 15.8046 14.2389 15.7628 14.406 15.7071C14.4896 15.6792 14.4617 15.6653 14.4757 15.5678C14.5314 14.8298 15.1162 14.245 15.8403 14.1754C16.0909 14.1336 16.3416 14.1615 16.5644 14.2868C16.6201 14.3285 16.6758 14.3703 16.7175 14.426C16.7315 14.4539 16.7315 14.4817 16.7036 14.5096L16.6897 14.5235C16.4251 14.5513 16.1605 14.6349 15.9377 14.7881C15.6871 14.9412 15.5061 15.1919 15.4365 15.4843C15.4365 15.5121 15.4504 15.5678 15.4922 15.5678C15.701 15.5678 15.9656 15.5678 16.1745 15.5539C16.2023 15.5539 16.2302 15.54 16.2302 15.5121C16.3833 15.0944 16.7175 14.7741 17.1353 14.6488C17.6087 14.4817 18.1239 14.607 18.472 14.9552C18.5138 15.0109 18.4999 15.0248 18.472 15.0387C18.0961 15.1083 17.748 15.2615 17.4416 15.4843C17.3998 15.5261 17.3581 15.5539 17.4277 15.5539H21.6886L21.6747 8.87007ZM25.1838 26.9861C24.8496 27.2228 24.4875 27.4177 24.1115 27.5848H24.1255L24.1812 27.6823C24.2229 27.7798 24.2369 27.8773 24.2229 27.9747C24.2229 28.1279 24.1115 28.2671 23.9723 28.3089C23.7774 28.3925 23.5685 28.3507 23.4153 28.2114C23.3039 28.3368 23.1368 28.4064 22.9697 28.3646C22.8305 28.3368 22.7191 28.2532 22.6495 28.1279C22.6216 28.0583 22.6077 28.0026 22.6077 27.9887C22.4545 28.0026 22.3013 28.0165 22.1482 28.0165V38.5436V38.7107C22.3153 38.6689 22.552 38.5853 22.8305 38.4879C23.0811 38.4043 23.3735 38.2651 23.6938 38.1258C24.6685 37.722 25.6154 37.2346 26.5205 36.6777C27.1054 36.3017 27.6484 35.8979 28.1776 35.4523C29.5143 34.3383 30.6979 33.0433 31.6587 31.5951C32.5917 30.1888 33.3436 28.6849 33.9145 27.0975C34.388 25.7468 34.6525 24.3265 34.7082 22.8922H27.3142V23.1429C27.2446 24.6885 26.4648 26.1227 25.1838 26.9861ZM34.7639 19.23H27.3003V19.8149V22.5023H34.7082C34.7222 21.5415 34.75 20.4136 34.7639 19.23ZM34.8336 15.9856H27.3003V16.6122V17.9629V18.7705H34.7779C34.7918 17.8654 34.8196 16.9185 34.8336 15.9856ZM34.9032 12.3652H22.1342V15.54H34.8475C34.8614 14.426 34.8753 13.3538 34.9032 12.3652ZM34.9171 11.3069C34.9171 11.3069 34.9032 11.3069 34.9032 11.293C33.5525 10.7499 32.174 10.3043 30.7676 9.94227C28.832 9.46883 26.8547 9.14857 24.8774 8.98147C23.9305 8.89792 23.0811 8.87007 22.1342 8.85615V11.9474H34.9032C34.9171 11.7386 34.9171 11.5158 34.9171 11.3069ZM34.9867 7.60293C34.9589 7.589 34.931 7.57508 34.9032 7.56115C33.5525 7.01809 32.174 6.5725 30.7676 6.21046C28.832 5.73702 26.8547 5.41675 24.8774 5.24966C23.9027 5.16611 23.0254 5.13826 22.0507 5.12434H21.9671C20.9924 5.13826 20.1152 5.16611 19.1404 5.24966C17.1353 5.41675 15.1719 5.73702 13.2364 6.21046C11.83 6.5725 10.4514 7.01809 9.10072 7.56115L9.01717 7.589C9.01717 7.589 9.04502 8.92577 9.07287 10.8752C9.08679 10.8752 9.08679 10.8613 9.10072 10.8613C10.4514 10.3322 11.83 9.88657 13.2364 9.52453C15.1719 9.05109 17.1353 8.73083 19.1265 8.56373C20.1012 8.48018 20.9785 8.42448 21.9671 8.41056H22.0507C23.0254 8.42448 23.9027 8.48018 24.8774 8.56373C26.8686 8.73083 28.832 9.05109 30.7676 9.52453C32.174 9.88657 33.5525 10.3322 34.9032 10.8752C34.9171 10.8752 34.9171 10.8892 34.931 10.8892C34.9589 8.9397 34.9867 7.60293 34.9867 7.60293ZM28.0522 32.5281C27.8434 32.6813 27.6763 32.8762 27.5509 33.099C27.537 33.1129 27.537 33.1547 27.5092 33.1408L27.2028 33.0433C27.2028 33.0433 27.2028 33.0155 27.2028 33.0015C27.4117 32.5977 27.7737 32.3053 28.2054 32.18C28.2333 32.1661 28.2193 32.1521 28.2193 32.1382C28.0662 31.7483 27.2585 31.7901 26.8826 32.0268C26.5205 32.2635 26.2699 32.6395 26.1724 33.0572C26.1724 33.0851 26.1863 33.1129 26.1585 33.1129C26.0471 33.1547 25.9357 33.1826 25.8243 33.1965C25.8104 33.1965 25.7964 33.1826 25.7964 33.1686C25.7686 32.9737 25.7964 32.7787 25.8939 32.5977C26.0192 32.3749 26.1863 32.18 26.3534 32.0129C26.3813 31.985 26.3813 31.9433 26.3534 31.9293C26.1306 31.7901 25.8382 31.7901 25.6154 31.9293C25.2951 32.0964 25.0445 32.3889 24.9331 32.737C24.8635 33.0015 24.8774 33.294 24.947 33.5585C24.947 33.5724 24.961 33.5864 24.947 33.6003C24.8356 33.6421 24.7521 33.6978 24.6407 33.7395C24.6407 33.7395 24.6128 33.7535 24.5989 33.7395C24.404 33.3914 24.4597 32.9598 24.7242 32.6813C24.7521 32.6534 24.766 32.6256 24.7103 32.6116C24.4179 32.5699 24.1394 32.6673 23.9445 32.8901C23.7217 33.1547 23.666 33.5168 23.7774 33.837C23.8052 33.9623 23.847 34.1016 23.9166 34.213C23.9166 34.213 23.9584 34.2408 23.9445 34.2548C23.8609 34.3105 23.8052 34.3662 23.7217 34.4219C23.7217 34.4219 23.7077 34.4358 23.6938 34.4219C23.6103 34.2548 23.4571 34.1294 23.2761 34.0737C23.109 34.032 22.9419 34.0877 22.8165 34.1991C22.6077 34.4079 22.6077 34.7282 22.8165 34.9371C22.8722 34.9928 22.9558 35.0485 23.0393 35.0624C23.0533 35.0624 23.0672 35.0763 23.0533 35.0902C22.9419 35.1738 22.8444 35.2713 22.7748 35.3966C22.6912 35.6055 22.7469 35.8282 22.9001 35.9814C23.0115 36.0789 23.1647 36.1346 23.3178 36.1067C23.5406 36.0371 23.7356 35.87 23.8331 35.6612C23.8331 35.6612 23.8609 35.6333 23.8748 35.6472C23.9723 35.7865 24.0976 35.8839 24.2508 35.9396C24.4179 35.9953 24.585 35.9536 24.7242 35.8422C24.9053 35.7029 24.961 35.4662 24.8913 35.2713C24.8217 35.1459 24.7242 35.0345 24.5989 34.9649C24.585 34.951 24.5989 34.9092 24.6268 34.8814C25.2116 34.4079 25.9078 34.1016 26.6458 33.9902C27.1471 33.9206 27.6623 34.0041 28.1219 34.2269C28.3029 34.3383 28.47 34.4636 28.6092 34.6168C28.6231 34.6307 28.6789 34.6446 28.6928 34.6307C28.9156 34.4219 28.9434 34.0737 28.7485 33.837C28.6649 33.7395 28.5675 33.656 28.4561 33.6003C28.4561 33.6003 28.4421 33.5864 28.4421 33.5725C28.5257 33.3497 28.6789 33.1547 28.8738 33.0015C29.013 32.918 29.1523 32.8484 29.3055 32.7927C29.3333 32.7787 29.3333 32.7648 29.3194 32.723C29.1384 32.3192 28.4004 32.3053 28.0522 32.5281ZM19.2936 10.7778C19.6417 10.8056 19.9341 11.0284 20.0595 11.3487C20.0595 11.3626 20.0316 11.3904 20.0177 11.3904C19.7253 11.3904 19.4328 11.4183 19.1404 11.4601C18.9594 11.5297 18.7923 11.6411 18.6531 11.7803C18.6391 11.7943 18.6531 11.8221 18.667 11.836C19.0012 11.9057 19.3075 12.0867 19.5442 12.3373C19.8227 12.574 19.9341 12.9639 19.8367 13.312C19.8227 13.3538 19.7949 13.3817 19.7531 13.3956C19.7113 13.3956 19.6835 13.3817 19.6696 13.3538C19.3632 13.0893 19.0151 12.8804 18.6252 12.7551C18.291 12.6297 17.9429 12.5601 17.5809 12.5601C15.4782 12.6158 13.4034 13.1449 11.5236 14.1058C11.5097 14.1197 11.4958 14.1615 11.5097 14.1754C11.6072 14.3007 11.6629 14.4539 11.635 14.607C11.5654 14.8159 11.5097 14.8438 11.3426 14.9552C11.1059 15.1501 10.7438 15.1083 10.5489 14.8716C10.535 14.8577 10.535 14.8577 10.521 14.8438C10.5071 14.8298 10.4932 14.8298 10.4793 14.8438C10.3679 14.9134 10.2425 14.983 10.1172 15.0248C9.89442 15.1223 9.62985 15.0387 9.50453 14.8298C9.35136 14.5096 9.47668 14.1336 9.79695 13.9804C9.79695 13.9804 9.79695 13.9804 9.81088 13.9804C9.83872 13.9665 9.83872 13.9387 9.8248 13.9247C9.68555 13.6741 9.78303 13.3538 10.0197 13.2146C10.2425 13.0893 10.7438 13.0057 10.8831 13.4234C10.8831 13.4374 10.9109 13.4513 10.9249 13.4513C11.0362 13.4095 11.1476 13.3677 11.259 13.326C11.2869 13.312 11.3008 13.2563 11.2869 13.2006C11.1476 12.6437 11.2451 12.0588 11.5793 11.5715C12.0528 11.0423 12.6097 10.7917 13.2085 11.0284C13.2364 11.0423 13.2085 11.0841 13.1946 11.098C12.9579 11.3347 12.6376 11.4879 12.4705 11.7803C12.2895 12.0588 12.2059 12.393 12.2198 12.7272C12.2198 12.7411 12.2616 12.7411 12.2755 12.7411C12.568 12.6437 12.9439 12.5183 13.306 12.4069C13.3338 12.393 13.3756 12.393 13.3756 12.3791C13.3756 12.1841 13.3895 11.9892 13.4174 11.7803C13.5009 11.2233 13.8769 10.7499 14.3921 10.5271C14.7541 10.3739 15.1719 10.36 15.5479 10.5132C15.5757 10.5271 15.5896 10.5689 15.5618 10.5828C15.3111 10.7499 15.0744 10.9448 14.8516 11.1537C14.6288 11.3904 14.5035 11.6829 14.4757 12.0031C14.4757 12.017 14.4896 12.031 14.4896 12.031C14.8098 11.9474 15.144 11.8917 15.4643 11.85C15.4922 11.85 15.52 11.8221 15.52 11.7943C15.5757 11.4879 15.8124 10.6524 16.2302 10.3739C16.6618 10.0676 17.2188 9.9562 17.734 10.0954C17.8454 10.1511 17.9429 10.2347 18.0265 10.3461C18.0404 10.3739 18.0125 10.4157 17.9847 10.4157C17.6226 10.541 17.2884 10.7221 17.0099 10.9727C16.815 11.1816 16.6897 11.4322 16.6479 11.7246C16.6479 11.7386 16.6758 11.7525 16.7036 11.7386C16.9821 11.7386 17.2745 11.7386 17.5669 11.7525C17.5809 11.7525 17.6087 11.7386 17.6087 11.7246C17.748 11.3904 17.9986 11.098 18.3328 10.9309C18.6113 10.7917 18.9594 10.7499 19.2936 10.7778Z" fill="url(#paint1_linear_12575_210519)"/>
<path fill-rule="evenodd" clip-rule="evenodd" d="M31.2125 6.64145C32.2708 6.91994 33.3152 7.26806 34.3456 7.65795C34.3734 7.67187 34.3734 7.69972 34.3734 7.72757C34.3874 7.95037 34.3734 7.96429 34.3734 8.20101C34.3734 8.25671 34.3456 8.25671 34.2899 8.24278C33.6633 8.01999 32.7721 7.69972 31.9645 7.49085C31.9505 7.49085 31.9366 7.49085 31.9366 7.50478V7.78327C31.9366 7.79719 31.9505 7.81112 31.9645 7.81112C32.7999 8.03391 33.5797 8.29848 34.3317 8.56305C34.3456 8.56305 34.3595 8.57698 34.3595 8.60483C34.3734 8.82762 34.3734 9.05041 34.3595 9.27321C34.3595 9.28713 34.3595 9.30106 34.3456 9.30106C33.6215 9.03649 32.7721 8.758 31.9366 8.52128C31.9227 8.52128 31.9088 8.52128 31.9088 8.5352L31.8948 8.79977C31.8948 8.8137 31.9088 8.82762 31.9227 8.84154C32.7303 9.06434 33.5379 9.31498 34.3177 9.62133C34.3317 9.63525 34.3456 9.64918 34.3595 9.6631C34.3734 9.85805 34.3595 10.0669 34.3595 10.2619C34.3595 10.2758 34.3595 10.3036 34.3177 10.2897C33.3012 9.89982 32.2569 9.56563 31.1986 9.27321C31.1847 9.27321 31.1707 9.24536 31.1707 9.23144C31.1847 8.35418 31.1986 7.54655 31.2264 6.6693C31.1986 6.65537 31.1986 6.64145 31.2125 6.64145ZM27.5921 8.5352C27.8149 8.57698 28.0655 8.60483 28.2466 8.6466C28.2605 8.6466 28.3023 8.63267 28.3023 8.61875C28.3023 8.32633 28.3023 7.97821 28.3023 7.69972C28.3023 7.6858 28.3162 7.67187 28.3301 7.6858C28.8732 7.78327 29.3884 7.88074 29.9175 8.00606C29.9314 8.00606 29.9871 8.01999 29.9871 8.04784C29.9871 8.35418 29.9732 8.61875 29.9732 8.93902C29.9732 8.96687 29.9871 8.98079 30.015 8.99472C30.2239 9.03649 30.4188 9.09219 30.6277 9.13396C30.6834 9.14789 30.6834 9.13396 30.6834 9.12004C30.7112 8.46558 30.7252 7.42123 30.7391 6.54397C30.7391 6.53005 30.7391 6.51612 30.7252 6.51612C30.5024 6.46042 30.2935 6.41865 30.0707 6.36295C30.0568 6.36295 30.0428 6.3908 30.0428 6.41865C30.015 6.73892 30.0289 7.03134 30.0011 7.36553C30.0011 7.37945 30.0011 7.37945 29.9871 7.37945C29.458 7.26806 28.8871 7.14273 28.358 7.04526C28.344 7.04526 28.344 7.01741 28.344 7.00349C28.344 6.68322 28.344 6.37688 28.344 6.05661C28.344 6.04268 28.3301 6.01484 28.3023 6.01484C28.0934 5.97306 27.9124 5.94521 27.7035 5.91736C27.6896 5.91736 27.6756 5.93129 27.6756 5.95914C27.6617 6.34903 27.606 8.06176 27.606 8.52128L27.5921 8.5352ZM24.8489 5.55532C24.5565 5.5414 24.3059 5.75027 24.2502 6.02876L24.2362 7.76934C24.2502 7.96429 24.3894 8.14531 24.5844 8.18708C25.4616 8.27063 26.325 8.35418 27.3136 8.49343C27.3275 8.49343 27.3554 8.4795 27.3554 8.46558V7.86682C27.3554 7.85289 27.3275 7.83897 27.3136 7.82504C26.6591 7.7415 25.7958 7.6301 25.016 7.54655C24.9743 7.53263 24.9325 7.49085 24.9325 7.44908V6.26548C24.9325 6.20978 25.0021 6.19586 25.0578 6.19586C25.8237 6.25155 26.5756 6.3908 27.3415 6.47435C27.3554 6.47435 27.3972 6.46043 27.3972 6.4465L27.4111 5.88951C27.4111 5.86166 27.3972 5.84774 27.3693 5.84774C26.5199 5.73634 25.8794 5.66672 24.8489 5.55532ZM23.6793 5.4857C22.8438 5.44392 21.9247 5.43 21.0753 5.45785C20.8943 5.47177 20.6576 5.61102 20.6576 5.79204L20.6437 6.72499C20.6437 6.91994 20.8943 7.07311 21.0893 7.07311C21.7576 7.08704 22.3425 7.07311 22.9969 7.11488C23.0387 7.11488 23.0805 7.14273 23.0805 7.19843V7.39338C23.0805 7.42123 23.0526 7.463 23.0248 7.463C23.0248 7.463 23.0248 7.463 23.0109 7.463C22.2589 7.463 21.4652 7.42123 20.7133 7.49085C20.6715 7.49085 20.6715 7.47693 20.6715 7.5187L20.6437 8.07569V8.11746C21.5488 8.06176 22.4539 8.06176 23.359 8.11746C23.5818 8.11746 23.7628 7.95037 23.8046 7.7415L23.8185 6.83639C23.8185 6.65537 23.5957 6.51612 23.4425 6.5022C22.802 6.46042 22.0779 6.48827 21.4374 6.46042C21.3956 6.46042 21.3678 6.43258 21.3678 6.3908L21.3817 6.18193C21.3817 6.14016 21.4095 6.12623 21.4513 6.12623C22.0918 6.09838 23.0526 6.14016 23.7071 6.15408C23.7628 6.14016 23.7907 6.09838 23.7907 6.05661V5.58317C23.7628 5.55532 23.721 5.4857 23.6793 5.4857ZM19.836 7.15666C20.0171 7.08704 20.1285 6.90601 20.1145 6.71107C20.1285 6.43258 20.1145 6.16801 20.0867 5.88951C20.0449 5.68064 19.8639 5.5414 19.655 5.52747C19.0423 5.5414 17.7195 5.70849 16.9675 5.80597V8.40988V8.43773L17.6499 8.35418C17.6638 8.35418 17.6638 8.34026 17.6638 8.32633V7.5744L19.0284 7.42123C19.1537 7.39338 19.293 7.49085 19.3904 7.65795C19.474 7.81112 19.5297 7.97821 19.5575 8.14531L20.2259 8.08961C20.2399 8.08961 20.2677 8.08961 20.2677 8.07569C20.2677 7.7415 20.1006 7.39338 19.836 7.15666ZM19.3626 6.58575C19.3626 6.69714 19.279 6.80854 19.1677 6.82247L17.6359 6.97564L17.622 6.96171V6.37688H17.6359L19.2373 6.22371C19.293 6.20978 19.3487 6.25155 19.3626 6.32118C19.3626 6.32118 19.3626 6.32118 19.3626 6.3351V6.58575ZM16.5637 6.3351C16.5498 6.22371 16.4941 6.11231 16.4106 6.05661C16.327 5.97306 16.2017 5.93129 16.0764 5.94521C15.2966 6.07053 14.5029 6.23763 13.7092 6.40473C13.5838 6.4465 13.4724 6.51612 13.375 6.6136C13.2914 6.69714 13.2357 6.79462 13.2218 6.90601V8.52128C13.2218 8.66052 13.2775 8.79977 13.375 8.91117C13.4446 9.00864 13.556 9.06434 13.6674 9.06434C14.4611 8.89724 15.2548 8.73015 16.0207 8.60483C16.1738 8.56305 16.3131 8.4795 16.4106 8.36811C16.4941 8.27063 16.5498 8.15924 16.5498 8.03391L16.5637 6.3351ZM15.7839 7.83897C15.7839 7.89467 15.7561 7.95037 15.7143 7.99214C15.6586 8.03391 15.6029 8.04784 15.5472 8.06176C15.1295 8.14531 14.5307 8.25671 14.113 8.34026C14.0712 8.35418 14.0294 8.34026 13.9877 8.31241C13.9598 8.27063 13.932 8.21493 13.9459 8.17316V7.12881C13.9459 7.07311 13.9737 7.03134 14.0016 6.98956C14.0434 6.94779 14.113 6.91994 14.1687 6.90601C14.5864 6.82247 15.1295 6.72499 15.5612 6.65537C15.6169 6.64145 15.6726 6.65537 15.7143 6.68322C15.77 6.71107 15.7979 6.78069 15.7979 6.83639L15.7839 7.83897ZM12.9572 7.11488C12.9433 7.00349 12.8876 6.89209 12.7901 6.83639C12.6648 6.75284 12.5116 6.72499 12.3724 6.75284C11.4394 6.98956 10.4926 7.3516 9.54568 7.69972C9.51783 7.71365 9.50391 7.7415 9.50391 7.76934V9.8859V10.3593C9.50391 10.3593 10.1862 10.1087 10.3255 10.053C10.3394 10.053 10.3394 10.0251 10.3394 10.0112L10.3255 9.25928C10.3255 9.23144 10.3255 9.20359 10.3533 9.20359L12.6927 8.4795C12.7762 8.45165 12.8458 8.39596 12.8876 8.34026C12.9433 8.27063 12.9712 8.20101 12.9572 8.11746V7.11488ZM12.2053 7.89467C12.2053 7.96429 12.1078 8.03391 12.0521 8.06176L10.3394 8.61875C10.3255 8.61875 10.2976 8.61875 10.2976 8.60483V8.08961C10.2976 8.06176 10.3255 8.04784 10.3533 8.03391C10.9242 7.81112 11.4951 7.61617 12.0939 7.44908C12.1496 7.43515 12.1914 7.49085 12.2053 7.53262C12.2053 7.65795 12.2053 7.78327 12.2053 7.89467Z" fill="url(#paint2_linear_12575_210519)"/>
<path fill-rule="evenodd" clip-rule="evenodd" d="M10.3411 8.15952C10.3132 8.15952 10.2854 8.18737 10.2854 8.21522V8.0899C10.2854 8.06205 10.3132 8.04812 10.3411 8.0342C10.912 7.8114 11.4829 7.61646 12.0678 7.44936C12.1235 7.43544 12.1652 7.49114 12.1791 7.53291L12.1931 7.65823C12.1931 7.61646 12.1374 7.56076 12.0817 7.57468C11.4968 7.74178 10.912 7.93672 10.3411 8.15952ZM12.9729 8.10382C12.9729 8.18737 12.945 8.25699 12.9032 8.32662C12.8475 8.39624 12.7779 8.43801 12.7083 8.46586L10.3689 9.18995C10.355 9.18995 10.3411 9.21779 10.3411 9.24564V9.37097C10.3411 9.35704 10.3411 9.31527 10.355 9.31527L12.6944 8.60511C12.7779 8.57726 12.8475 8.52156 12.8893 8.46586C12.945 8.39624 12.9729 8.32662 12.9589 8.24307L12.9729 8.10382ZM10.355 9.99758C10.355 10.0115 10.355 10.0394 10.3411 10.0394C10.2018 10.0811 9.51953 10.3457 9.51953 10.3457V10.4571C9.51953 10.471 9.51953 10.471 9.51953 10.4849C9.51953 10.4849 10.2018 10.2343 10.3411 10.1786C10.355 10.1786 10.355 10.1507 10.355 10.1368V9.99758ZM15.716 6.6835C15.6743 6.65565 15.6046 6.64173 15.5629 6.65565C15.1312 6.71135 14.5881 6.82275 14.1704 6.9063C14.1008 6.92022 14.0451 6.94807 14.0033 6.98985C13.9615 7.03162 13.9476 7.07339 13.9476 7.12909V7.26834C13.9476 7.21264 13.9754 7.17087 14.0033 7.12909C14.0451 7.08732 14.1147 7.05947 14.1704 7.04555C14.5881 6.962 15.1312 6.86452 15.5629 6.7949C15.6186 6.78098 15.6743 6.7949 15.716 6.82275C15.7717 6.8506 15.7996 6.92022 15.7996 6.97592V6.83668C15.7996 6.76705 15.7717 6.71135 15.716 6.6835ZM16.0502 8.59118C15.2704 8.73043 14.4767 8.8836 13.6969 9.0507C13.5716 9.0507 13.4741 8.995 13.4045 8.89753C13.321 8.80005 13.2653 8.67473 13.2514 8.53549V8.52156V8.50764V8.64688C13.2653 8.78613 13.321 8.91145 13.4045 9.00892C13.502 9.12032 13.6134 9.18995 13.6969 9.17602C14.4767 9.00892 15.2704 8.85575 16.0502 8.73043C16.2034 8.68866 16.3426 8.60511 16.4401 8.49371C16.5237 8.41016 16.5794 8.28484 16.5794 8.15952V8.02027C16.5794 8.14559 16.5237 8.25699 16.4401 8.35446C16.3287 8.46586 16.1895 8.54941 16.0502 8.59118ZM19.239 6.22399L17.6376 6.37716H17.6237V6.51641H17.6376L19.239 6.36324C19.2947 6.34931 19.3504 6.39109 19.3643 6.44678C19.3643 6.44678 19.3643 6.44678 19.3643 6.46071V6.32146C19.3643 6.26576 19.3086 6.21006 19.239 6.22399ZM20.1302 6.8506V6.6835C20.1441 6.87845 20.0327 7.05947 19.8517 7.14302C19.8795 7.17087 19.9213 7.19872 19.9491 7.22657C20.0605 7.14302 20.1302 7.00377 20.1302 6.8506ZM20.2416 8.11775L19.5732 8.17344C19.5592 8.00635 19.4896 7.83925 19.4061 7.68608C19.2947 7.50506 19.1554 7.42151 19.044 7.44936L17.6794 7.60253V7.74178L19.044 7.58861C19.1694 7.56076 19.3086 7.65823 19.4061 7.82533C19.4896 7.9785 19.5453 8.14559 19.5732 8.31269L20.2416 8.25699C20.2555 8.25699 20.2833 8.25699 20.2833 8.24307V8.10382C20.2833 8.11775 20.2555 8.11775 20.2416 8.11775ZM17.6516 8.36839L16.9692 8.45194V8.59118L17.6516 8.50764C17.6655 8.50764 17.6655 8.49371 17.6655 8.47979V8.34054C17.6655 8.35446 17.6655 8.35446 17.6516 8.36839ZM23.681 6.27969C23.7367 6.26576 23.7645 6.22399 23.7645 6.18222V6.04297C23.7645 6.09867 23.7227 6.14044 23.681 6.14044C23.0265 6.12652 22.0657 6.08474 21.4252 6.11259C21.3834 6.11259 21.3555 6.12652 21.3555 6.16829L21.3416 6.29361C21.3416 6.25184 21.3834 6.25184 21.4252 6.23791C22.0657 6.22399 23.0265 6.25184 23.681 6.27969ZM21.091 7.19872C21.7593 7.21264 22.3442 7.19872 22.9986 7.24049C23.0404 7.24049 23.0822 7.26834 23.0822 7.31011V7.18479C23.0822 7.14302 23.0404 7.11517 22.9986 7.10124C22.3581 7.05947 21.7593 7.07339 21.091 7.05947C20.896 7.05947 20.6454 6.9063 20.6454 6.71135V6.8506C20.6454 7.04555 20.896 7.19872 21.091 7.19872ZM23.3468 8.10382C22.4417 8.04812 21.5366 8.04812 20.6314 8.10382V8.24307C21.5366 8.18737 22.4417 8.18737 23.3468 8.24307C23.5696 8.24307 23.7506 8.07597 23.7924 7.8671V7.72785C23.7506 7.93672 23.5696 8.0899 23.3468 8.10382ZM27.3432 6.48856C26.5773 6.40501 25.8254 6.26576 25.0595 6.21006C25.0038 6.21006 24.9342 6.23791 24.9342 6.27969V6.41894C24.9342 6.36324 25.0038 6.34931 25.0595 6.34931C25.8254 6.40501 26.5773 6.54426 27.3432 6.62781C27.3571 6.62781 27.3989 6.61388 27.3989 6.59996V6.46071C27.3989 6.47463 27.371 6.48856 27.3432 6.48856ZM27.3153 8.49371C26.3267 8.34054 25.4633 8.27092 24.5861 8.18737C24.3911 8.14559 24.2519 7.96457 24.2379 7.76963V7.90888C24.2519 8.10382 24.3911 8.28484 24.5861 8.32662C25.4633 8.41016 26.3266 8.47979 27.3014 8.63296C27.3153 8.63296 27.3432 8.61903 27.3432 8.60511L27.3571 8.47979C27.3571 8.47979 27.3292 8.49371 27.3153 8.49371ZM29.9888 8.17344C29.9888 8.11775 29.9888 8.0899 29.9888 8.0342C29.9888 7.99242 29.9192 7.99242 29.9192 7.99242C29.3901 7.88103 28.8609 7.76963 28.3318 7.67216C28.3179 7.67216 28.304 7.67216 28.304 7.68608C28.304 7.74178 28.304 7.76963 28.304 7.82533C28.304 7.8114 28.3179 7.79748 28.3318 7.8114C28.8749 7.90888 29.3901 8.00635 29.9192 8.13167C29.9192 8.13167 29.9888 8.14559 29.9888 8.17344ZM28.2483 8.64688C28.0672 8.60511 27.8166 8.57726 27.5938 8.53549V8.64688C27.8166 8.68866 28.0533 8.71651 28.2343 8.74436C28.2483 8.74436 28.29 8.73043 28.29 8.71651V8.61903C28.29 8.63296 28.2622 8.64688 28.2483 8.64688ZM30.6155 9.13425C30.4205 9.09247 30.2116 9.03677 30.0028 8.995C29.9749 8.98108 29.961 8.96715 29.961 8.9393V9.07855C29.961 9.1064 29.9749 9.12032 30.0028 9.13425C30.2116 9.17602 30.4066 9.23172 30.6015 9.27349C30.6572 9.28742 30.6572 9.27349 30.6572 9.25957L30.6712 9.12032C30.6712 9.13425 30.6712 9.14817 30.6155 9.13425ZM34.2916 8.22914C33.665 8.00635 32.7738 7.68608 31.9662 7.47721C31.9522 7.47721 31.9383 7.47721 31.9383 7.49113V7.61646C31.9383 7.60253 31.9662 7.60253 31.9662 7.60253C32.7738 7.8114 33.665 8.11775 34.2916 8.35446C34.3473 8.36839 34.3751 8.36839 34.3751 8.31269L34.3891 8.20129C34.3751 8.24307 34.3334 8.25699 34.2916 8.22914ZM34.3334 9.30134C33.6093 9.03677 32.7599 8.75828 31.9244 8.52156C31.9105 8.52156 31.8965 8.52156 31.8965 8.53549V8.66081C31.9105 8.66081 31.9244 8.64688 31.9383 8.66081C32.7877 8.89753 33.6093 9.17602 34.3473 9.44059C34.3612 9.44059 34.3612 9.42666 34.3612 9.41274L34.3751 9.27349C34.3473 9.28742 34.3473 9.30134 34.3334 9.30134ZM34.2916 10.29C33.2751 9.9001 32.2307 9.56591 31.1724 9.27349C31.1585 9.27349 31.1446 9.24564 31.1446 9.23172V9.37097C31.1446 9.38489 31.1585 9.41274 31.1724 9.41274C32.2307 9.69123 33.2612 10.0254 34.2777 10.4153C34.3194 10.4292 34.3194 10.4014 34.3194 10.3875L34.3334 10.2621C34.3334 10.2761 34.3194 10.29 34.2916 10.29Z" fill="#432918"/>
<path d="M34.2636 7.93834C34.2636 7.99404 34.2636 8.09151 34.2636 8.14721L34.0965 8.09151L33.9851 8.04974H33.9712C33.6927 7.95227 33.4142 7.85479 33.1496 7.77125C32.8851 7.6877 32.6484 7.60415 32.4116 7.54845L32.2028 7.49275L31.9939 7.43705L31.8129 7.39528V7.38136V7.50668V7.632V7.6877V7.86872L31.9243 7.89657L32.0078 7.92442L32.1471 7.96619L32.2863 8.00797C32.5787 8.09151 32.8851 8.18899 33.1775 8.27253C33.4699 8.37001 33.7623 8.46748 34.0547 8.56495L34.1244 8.5928L34.2636 8.63458V8.7042C34.2636 8.7599 34.2636 9.14979 34.2636 9.14979H34.2497L34.0965 9.10802L33.9851 9.08017C33.6788 8.96877 33.3585 8.8713 33.0382 8.7599C32.718 8.66243 32.3838 8.55103 32.0496 8.46748L31.785 8.39786V8.6485V8.88522L31.8964 8.91307L32.1053 8.96877L32.3002 9.02447L32.3838 9.05232L32.4673 9.08017C32.7598 9.16371 33.0243 9.26119 33.2889 9.34473C33.5535 9.42828 33.832 9.51183 34.0687 9.6093L34.0965 9.62323L34.1244 9.63715L34.1661 9.65108L34.2497 9.67893C34.2497 9.8321 34.2497 9.9992 34.2358 10.1524L34.0826 10.0967L34.0547 10.0827L34.0269 10.0688C33.5395 9.8878 33.0661 9.74855 32.6344 9.6093C32.2028 9.47006 31.6736 9.30296 31.2837 9.20549V9.19156C31.2837 8.98269 31.2977 8.57888 31.2977 8.18899C31.2977 7.7991 31.3255 6.78259 31.3255 6.74082C31.3673 6.74082 32.2863 7.00539 32.718 7.14464C33.1636 7.28388 33.5952 7.43705 34.0408 7.60415H34.0547L34.1244 7.65985L34.2636 7.71555C34.2636 7.77125 34.2636 7.88264 34.2636 7.93834ZM30.6014 6.6155C30.5318 6.60157 30.4761 6.58765 30.4065 6.5598C30.3369 6.53195 30.2115 6.51803 30.1558 6.5041V6.51803C30.1558 6.53195 30.1558 6.5598 30.1558 6.57372V6.60157V6.64335V6.68512V6.76867C30.1558 6.79652 30.1558 6.82437 30.1558 6.85222V6.88007C30.1558 6.96361 30.1558 7.03324 30.1558 7.11679C30.1558 7.20033 30.1419 7.28388 30.1419 7.36743V7.42313V7.5206L30.0166 7.49275L29.933 7.47883L29.8634 7.4649L29.7938 7.45098L29.2229 7.33958C29.0279 7.29781 28.833 7.25603 28.638 7.22818H28.6102H28.5823L28.4431 7.20033C28.4013 7.18641 28.3456 7.18641 28.3038 7.17249L28.2621 7.15856V6.88007V6.60157V6.5041V6.18383V6.12813C28.2342 6.12813 28.1785 6.11421 28.1367 6.11421L28.0532 6.10029C28.0114 6.10029 27.9836 6.08636 27.9418 6.08636C27.9 6.08636 27.8304 6.07244 27.7886 6.05851V6.12813V6.16991C27.7886 6.30916 27.7747 6.51803 27.7747 6.74082C27.7747 6.96361 27.7608 7.21426 27.7469 7.4649C27.7469 7.53453 27.7469 7.60415 27.7469 7.67377C27.7469 7.7434 27.7469 7.81302 27.7329 7.86872C27.7329 7.98012 27.719 8.07759 27.719 8.16114C27.719 8.25861 27.719 8.39786 27.719 8.46748C27.7469 8.46748 27.8165 8.4814 27.8443 8.49533L27.9139 8.50925L28.0393 8.52318C28.081 8.5371 28.1785 8.55103 28.2342 8.55103H28.2481V8.37001V8.23076C28.2481 8.23076 28.2481 8.14721 28.2481 8.04974C28.2481 7.95227 28.2481 7.82695 28.2481 7.7434V7.6877C28.2481 7.65985 28.2481 7.59023 28.2481 7.5763C28.2621 7.5763 28.3038 7.59023 28.3317 7.59023H28.3456H28.3595C28.4431 7.60415 28.6659 7.64592 28.9444 7.70162C29.2229 7.75732 29.5431 7.82695 29.8356 7.88264L29.8773 7.89657L29.9191 7.91049L30.0166 7.93834L30.1141 7.96619C30.1141 7.99404 30.1141 8.11936 30.1141 8.14721V8.21684V8.28646C30.1141 8.34216 30.1141 8.39786 30.1141 8.45356C30.1141 8.50925 30.1141 8.55103 30.1141 8.60673V8.67635V8.74597V8.77382V8.8713L30.2672 8.91307L30.3647 8.94092L30.4622 8.96877L30.6014 8.99662V8.85737V8.77382C30.6153 8.4814 30.6153 8.16114 30.6293 7.81302C30.6293 7.4649 30.6432 7.10286 30.6432 6.74082V6.6155H30.6014ZM25.7556 5.73824C25.3518 5.69647 25.0315 5.6547 24.8784 5.64077C24.753 5.62685 24.6277 5.68254 24.5302 5.76609C24.4328 5.83572 24.3632 5.93319 24.3492 6.05851C24.3353 6.15598 24.3492 6.89399 24.3492 6.89399V7.77125C24.3492 7.81302 24.3632 7.85479 24.3771 7.89657C24.391 7.93834 24.4189 7.96619 24.4467 7.99404C24.4885 8.03582 24.5581 8.07759 24.6138 8.09151C24.6556 8.10544 24.6834 8.10544 24.7252 8.10544H24.753H24.7809C25.1429 8.13329 25.5328 8.17506 25.9227 8.21684C26.3126 8.25861 26.6886 8.30038 27.0924 8.35608L27.2734 8.38393V8.14721V7.93834L27.0645 7.91049L26.9114 7.88264H26.8974H26.8835C26.5772 7.84087 26.2569 7.81302 25.9227 7.77125C25.5885 7.72947 25.2822 7.6877 24.948 7.65985C24.9341 7.65985 24.9062 7.64592 24.9062 7.632C24.8923 7.61807 24.8923 7.60415 24.8923 7.5763V6.26738C24.8923 6.22561 24.9062 6.18383 24.9341 6.14206C24.9758 6.11421 25.0176 6.10029 25.0733 6.10029C25.2822 6.11421 27.0785 6.35093 27.357 6.3927V6.16991C27.357 6.11421 27.357 6.04459 27.357 5.98889V5.93319C26.9392 5.87749 26.2848 5.79394 25.7556 5.73824ZM20.1022 7.59023C20.1718 7.72947 20.2136 7.88264 20.2275 8.04974L19.6566 8.07759C19.6148 7.91049 19.5591 7.75732 19.4895 7.60415C19.406 7.43705 19.2389 7.32566 19.0439 7.33958C18.7933 7.36743 17.5957 7.49275 17.5818 7.49275V8.27253L17.3173 8.31431L17.0527 8.34216V7.10286V5.87749C17.0527 5.87749 19.3781 5.61292 19.6427 5.62685C19.9072 5.64077 19.9629 5.78002 19.9769 5.91926C20.0047 6.21168 20.0186 6.49018 20.0047 6.78259C19.9629 6.93577 19.8655 7.07501 19.7401 7.14464C19.8794 7.26996 20.0047 7.42313 20.1022 7.59023ZM19.4756 6.32308C19.4756 6.26738 19.4617 6.22561 19.4199 6.18383C19.3642 6.14206 19.3085 6.12813 19.2389 6.12813L17.554 6.29523V6.6712V7.04716L18.3616 6.97754L19.1692 6.90792C19.2528 6.90792 19.3224 6.86614 19.392 6.81044C19.4477 6.75474 19.4756 6.6712 19.4756 6.60157V6.32308ZM16.44 6.337C16.44 6.4484 16.4539 7.88264 16.4539 8.00797C16.4261 8.23076 16.2729 8.41178 16.064 8.46748C15.8412 8.50925 13.9335 8.88522 13.7665 8.92699C13.5994 8.96877 13.3766 8.74597 13.3766 8.55103C13.3766 8.35608 13.3766 6.89399 13.3766 6.89399C13.3766 6.71297 13.5715 6.5598 13.7525 6.51803C13.9196 6.47625 15.9387 6.08636 16.064 6.05851C16.2311 6.03066 16.4121 6.15598 16.44 6.337ZM15.9109 6.78259C15.9109 6.64335 15.8552 6.51803 15.6324 6.54587C15.3539 6.58765 14.4488 6.75474 14.1563 6.81044C13.9057 6.85222 13.8082 6.94969 13.8082 7.15856V8.21684C13.8082 8.37001 13.9057 8.4814 14.0589 8.45356C14.212 8.42571 15.5349 8.17506 15.6881 8.13329C15.8273 8.10544 15.9248 7.98012 15.9109 7.84087C15.9248 7.70162 15.9109 6.85222 15.9109 6.78259ZM23.4441 6.57372C23.2492 6.5598 23.0403 6.5598 22.8314 6.54587C22.6226 6.54587 22.3998 6.54587 22.1909 6.54587C22.0517 6.54587 21.3415 6.54587 21.3276 6.54587C21.3136 6.54587 21.2997 6.53195 21.2858 6.51803C21.2719 6.49018 21.2579 6.46233 21.2579 6.43448C21.2579 6.40663 21.2579 6.37878 21.2579 6.337V6.26738C21.2579 6.19776 21.2579 6.12813 21.2719 6.05851C21.2858 6.03066 21.3136 6.01674 21.3833 6.00281C21.439 6.00281 22.3162 6.00281 22.9011 6.01674H23.0403H23.1239C23.2909 6.01674 23.4859 6.03066 23.6391 6.03066V5.58507C23.3745 5.57115 23.2074 5.55722 22.9428 5.55722H22.9011C22.7618 5.55722 22.5947 5.5433 22.4415 5.5433C21.8289 5.52937 21.1465 5.5433 21.0769 5.5433C21.0073 5.55722 20.9377 5.58507 20.882 5.62685C20.8263 5.6547 20.7984 5.71039 20.7845 5.76609V6.26738V6.76867C20.7984 6.82437 20.8263 6.88007 20.882 6.90792C20.9377 6.94969 21.0212 6.97754 21.0908 6.97754C21.2022 6.97754 21.3136 6.97754 21.425 6.97754H21.7453C21.9681 6.97754 22.1909 6.97754 22.4137 6.99146C22.6365 6.99146 22.8732 7.00539 23.096 7.01931C23.1656 7.01931 23.1796 7.04716 23.1935 7.08894C23.2074 7.14464 23.2074 7.18641 23.1935 7.24211V7.29781V7.35351C23.1935 7.4092 23.1935 7.4649 23.1796 7.50668C23.1656 7.53453 23.1239 7.54845 23.0403 7.54845C23.0403 7.54845 22.8175 7.54845 22.734 7.54845H22.4555H22.1352C22.0238 7.54845 21.9263 7.54845 21.8149 7.54845C21.6339 7.54845 21.4529 7.54845 21.2858 7.54845C21.1187 7.54845 20.9237 7.56238 20.7845 7.5763L20.7706 8.00797C21.0073 7.99404 21.2719 7.99404 21.4668 7.98012C21.6618 7.98012 21.8567 7.96619 22.0099 7.96619C22.177 7.96619 22.3162 7.96619 22.4415 7.96619C22.5669 7.96619 22.6922 7.98012 22.8314 7.98012L23.096 7.99404L23.4023 8.00797C23.472 8.00797 23.5416 7.98012 23.5973 7.92442C23.653 7.88264 23.6948 7.82695 23.7087 7.75732V7.28388V6.81044C23.6948 6.75474 23.6669 6.69905 23.6251 6.65727C23.5555 6.6155 23.4998 6.58765 23.4441 6.57372ZM12.8613 7.13071L12.8892 8.11936C12.8892 8.18899 12.8613 8.25861 12.8056 8.31431C12.7778 8.35608 12.7221 8.38393 12.6803 8.39786L10.2435 9.16371L10.2574 9.99919C10.2574 9.99919 9.64474 10.222 9.61689 10.222C9.61689 10.1802 9.61689 9.24726 9.61689 9.05232C9.61689 8.62065 9.60297 7.84087 9.60297 7.81302C9.60297 7.78517 9.61689 7.78517 9.64474 7.77125C9.67259 7.75732 10.4245 7.49275 11.3436 7.17249C11.622 7.07501 12.2626 6.88007 12.3879 6.86614C12.4993 6.83829 12.6107 6.86614 12.6942 6.92184C12.7778 6.94969 12.8474 7.03324 12.8613 7.13071ZM12.3044 7.88264C12.3044 7.81302 12.2904 7.60415 12.2904 7.53453C12.2904 7.49275 12.2626 7.45098 12.2347 7.4092C12.2069 7.36743 12.1512 7.35351 12.1094 7.35351H12.0816C12.0816 7.35351 11.5385 7.50668 11.2461 7.60415C10.9537 7.70162 10.2157 7.98012 10.2157 7.98012C10.2157 7.98012 10.2296 8.7042 10.2296 8.71812L12.0955 8.11936C12.1512 8.10544 12.2069 8.06366 12.2487 8.03582C12.2765 7.99404 12.3044 7.93834 12.3044 7.88264ZM20.4085 16.6413V17.3236C20.4085 17.3932 20.3946 17.4767 20.3528 17.5464C20.3111 17.6021 20.2414 17.6299 20.1718 17.6299C20.1022 17.6299 20.0326 17.6021 19.9908 17.5464C19.949 17.4767 19.9351 17.4071 19.9351 17.3236V16.6413C19.9351 16.5856 19.8933 16.5577 19.8515 16.5577C19.7958 16.5577 19.768 16.5995 19.768 16.6413V17.2679C19.7541 17.4071 19.7958 17.5324 19.8515 17.6438C19.9351 17.7413 20.0465 17.797 20.1857 17.797C20.3111 17.8109 20.4364 17.7552 20.5199 17.6438C20.5896 17.5324 20.6174 17.3932 20.6035 17.2679V16.6413C20.6035 16.5856 20.5617 16.5438 20.506 16.5438C20.4503 16.5438 20.4085 16.5995 20.4085 16.6413ZM21.3276 16.7248C21.3693 16.7248 21.4111 16.683 21.4111 16.6413C21.4111 16.5995 21.3693 16.5577 21.3276 16.5577H20.8124C20.7706 16.5577 20.7288 16.5995 20.7288 16.6413C20.7288 16.683 20.7706 16.7248 20.8124 16.7248H20.9794V17.7135C20.9794 17.7692 21.0212 17.797 21.063 17.797C21.1187 17.797 21.1465 17.7552 21.1465 17.7135V16.7248H21.3276ZM22.1352 16.7248C22.177 16.7248 22.2187 16.683 22.2187 16.6413C22.2187 16.5995 22.177 16.5577 22.1352 16.5577H21.62C21.5782 16.5577 21.5364 16.5995 21.5364 16.6413C21.5364 16.683 21.5782 16.7248 21.62 16.7248H21.7871V17.7135C21.7871 17.7692 21.8289 17.797 21.8706 17.8109C21.9263 17.8109 21.9542 17.7692 21.9681 17.7274V16.7387H22.1352V16.7248ZM23.1099 17.0729H22.8314C22.7618 17.0729 22.7479 17.1147 22.7479 17.1426C22.7479 17.1843 22.7757 17.2261 22.8175 17.2261C22.8175 17.2261 22.8175 17.2261 22.8314 17.2261H23.0264V17.2818C23.0403 17.435 22.9428 17.5881 22.7897 17.6299C22.6922 17.6299 22.6086 17.5742 22.5669 17.4767C22.5251 17.3793 22.4972 17.2679 22.4972 17.1426C22.4972 17.0312 22.5251 16.9198 22.5808 16.8223C22.6086 16.7387 22.6922 16.683 22.7757 16.683C22.8593 16.697 22.9289 16.7387 22.9707 16.8084C22.9985 16.8362 23.0403 16.8501 23.0682 16.8362C23.1099 16.8223 23.1239 16.7944 23.1099 16.7527C23.0542 16.6134 22.9289 16.5159 22.7757 16.5299C22.6365 16.5159 22.5112 16.5856 22.4555 16.7109C22.3719 16.8501 22.3441 16.9894 22.3441 17.1426C22.3441 17.2957 22.3719 17.4489 22.4555 17.5881C22.5112 17.7135 22.6365 17.797 22.7897 17.797C22.8593 17.797 22.9428 17.7692 23.0125 17.7413C23.1239 17.6578 23.1935 17.5324 23.2213 17.4071C23.2353 17.3375 23.2353 17.254 23.2353 17.1843C23.2213 17.1286 23.2074 17.0729 23.1099 17.0729ZM26.0898 16.7248C26.1316 16.7248 26.1734 16.683 26.1734 16.6413C26.1734 16.5995 26.1316 16.5577 26.0898 16.5577H25.5746C25.5328 16.5577 25.4911 16.5995 25.4911 16.6413C25.4911 16.683 25.5328 16.7248 25.5746 16.7248H25.7417V17.7135C25.7417 17.7692 25.7835 17.797 25.8252 17.8109C25.8809 17.8109 25.9088 17.7692 25.9227 17.7274V16.7387H26.0898V16.7248ZM25.0315 17.3375L25.0594 17.3236C25.129 17.2957 25.1847 17.2679 25.2265 17.2122C25.31 17.1426 25.3379 17.0312 25.324 16.9337C25.324 16.8223 25.2543 16.7109 25.1708 16.6413C25.0872 16.5856 24.9758 16.5577 24.8644 16.5577H24.5859C24.5581 16.5577 24.5302 16.5716 24.5163 16.5856C24.5024 16.5995 24.4885 16.6273 24.4885 16.6552V17.6995C24.4885 17.7413 24.5163 17.797 24.5581 17.797H24.572C24.6138 17.797 24.6556 17.7692 24.6695 17.7135V17.6995V17.3653H24.8366L25.1012 17.7413C25.1151 17.7692 25.1429 17.7831 25.1847 17.7831C25.2404 17.7831 25.2683 17.7552 25.2683 17.7135C25.2683 17.6856 25.2543 17.6578 25.2404 17.6299L25.0315 17.3375ZM24.6834 17.1983V16.7248H24.9062C24.9758 16.7248 25.0455 16.7387 25.0872 16.7944C25.129 16.8362 25.1569 16.8919 25.1569 16.9476C25.1569 17.0869 25.0315 17.1983 24.8923 17.1983C24.8784 17.1983 24.8784 17.1983 24.8644 17.1983H24.6834ZM23.9593 16.6413C23.9454 16.5856 23.8897 16.5438 23.834 16.5438C23.7783 16.5438 23.7226 16.5995 23.7087 16.6552L23.3745 17.7135C23.3606 17.7413 23.3745 17.7692 23.3884 17.7831C23.4023 17.8109 23.4302 17.8249 23.458 17.8249C23.4998 17.8249 23.5416 17.8249 23.5555 17.7552L23.6112 17.5742H24.0847L24.1404 17.7552C24.1543 17.797 24.1961 17.8249 24.2239 17.8249C24.2518 17.8249 24.2796 17.8109 24.3075 17.7831C24.3214 17.7552 24.3214 17.7135 24.3075 17.6856L23.9593 16.6413ZM24.015 17.421H23.6391L23.834 16.7387L24.0429 17.421H24.015ZM18.7236 17.1704C18.6122 17.1008 18.473 17.059 18.3338 17.059C18.2502 17.0451 18.1806 16.9615 18.1945 16.8641C18.2224 16.7666 18.3198 16.7109 18.4173 16.7248C18.5009 16.7248 18.5844 16.7527 18.6401 16.8223C18.6958 16.878 18.7793 16.8223 18.7793 16.7666C18.7793 16.7109 18.6958 16.5577 18.4312 16.5438C18.3338 16.5438 18.2502 16.5716 18.1667 16.6134C18.0831 16.6691 18.0274 16.7527 18.0274 16.8501C18.0135 16.9615 18.0553 17.059 18.1249 17.1286C18.1945 17.1983 18.2781 17.2261 18.3755 17.2261C18.4869 17.2261 18.5983 17.2818 18.654 17.3653C18.6819 17.421 18.6679 17.4907 18.6262 17.5324C18.5705 17.5881 18.4869 17.6021 18.4173 17.6021C18.3338 17.6021 18.2502 17.5742 18.1945 17.5185C18.1667 17.4907 18.1249 17.4767 18.0831 17.4767C18.0135 17.5046 18.0274 17.5742 18.0274 17.5881C18.111 17.7135 18.2502 17.797 18.4034 17.797C18.5287 17.8109 18.6679 17.7552 18.7654 17.6717C18.835 17.6021 18.8629 17.5185 18.8629 17.421C18.849 17.3236 18.8072 17.2261 18.7236 17.1704ZM19.5174 16.7248C19.5591 16.7248 19.6009 16.697 19.6148 16.6413C19.6148 16.5995 19.587 16.5577 19.5313 16.5438H19.5174H19.0021C18.9604 16.5438 18.9186 16.5716 18.9047 16.6273C18.9047 16.6691 18.9325 16.7109 18.9882 16.7248H19.0021H19.1692V17.7135C19.1692 17.7692 19.211 17.797 19.2528 17.797C19.3085 17.797 19.3363 17.7552 19.3363 17.7135V16.7248H19.5174ZM12.2069 11.9626C12.3461 11.6562 12.5689 11.3917 12.8613 11.2106C13.0006 11.1271 13.0006 11.0853 13.0006 11.0853C13.0006 11.0714 12.9727 11.0575 12.7917 11.0575C12.5132 11.0853 12.2487 11.1967 12.0398 11.3777C11.7752 11.6005 11.5942 11.893 11.5107 12.2271C11.455 12.6031 11.455 12.993 11.5385 13.3829C11.5385 13.3829 11.0651 13.6057 10.9119 13.6892C10.8701 13.5639 10.8144 13.4386 10.7309 13.3411C10.5777 13.2158 10.3827 13.2019 10.2017 13.2854C10.0486 13.355 9.96501 13.5082 9.99286 13.6753C10.0068 13.8006 10.0625 13.912 10.1321 14.0095C10.0068 14.0513 9.88146 14.1209 9.79791 14.2184C9.67259 14.3437 9.63081 14.5247 9.67259 14.6918C9.72829 14.845 9.88146 14.9285 10.0486 14.9007C10.2435 14.8589 10.4245 14.7614 10.5777 14.6222C10.6473 14.7057 10.7169 14.7754 10.7866 14.845C10.8701 14.9007 10.9537 14.9425 11.0511 14.9285C11.1347 14.9285 11.2043 14.9146 11.2739 14.8728C11.4132 14.7893 11.4967 14.6361 11.4689 14.4829C11.441 14.2601 11.2322 14.1766 11.2461 14.093C12.3044 13.4943 13.4462 13.0487 14.6298 12.7702C15.4374 12.5613 16.245 12.436 17.0805 12.3803C17.6097 12.3246 18.1388 12.3803 18.6401 12.5335C19.0578 12.6449 19.4338 12.8538 19.7401 13.1462H19.7541C19.7402 12.7563 19.5313 12.4082 19.1832 12.2411C18.9047 12.074 18.5844 11.9626 18.2641 11.9347C18.3477 11.7955 18.4312 11.6841 18.5426 11.5727C18.7236 11.4056 18.9464 11.2803 19.1832 11.2385C19.392 11.2106 19.6148 11.1967 19.8237 11.1967C19.7541 11.0157 19.5731 10.9043 19.392 10.9043C19.1414 10.8625 18.8907 10.8904 18.654 10.9739C18.2363 11.1549 17.9021 11.5031 17.7211 11.9208C17.2894 11.893 16.8438 11.893 16.4121 11.9208C16.4539 11.5727 16.5932 11.2385 16.7881 10.9461C17.0248 10.6676 17.3312 10.4726 17.6793 10.3752C17.735 10.3612 17.7768 10.3334 17.8325 10.3055C17.7628 10.2359 17.6654 10.1663 17.2894 10.1524C16.816 10.1663 16.3704 10.403 16.1197 10.7929C15.9109 11.141 15.7855 11.5309 15.7438 11.9486C15.0475 12.074 14.2399 12.2828 14.2399 12.2828C14.2538 12.0043 14.3095 11.7119 14.4209 11.4613C14.588 11.1271 14.8387 10.8486 15.1589 10.6676C15.1589 10.6676 15.2842 10.584 15.3121 10.5701C15.2146 10.5283 15.1171 10.5144 15.0058 10.5283C14.769 10.5423 14.5462 10.598 14.3374 10.7094C13.9057 10.9461 13.6411 11.4056 13.6411 11.893C13.6272 12.0043 13.6551 12.4221 13.6411 12.5196C13.0981 12.6588 12.5689 12.8259 12.0537 13.0208C11.998 12.6727 12.0537 12.2968 12.2069 11.9626ZM18.0274 14.9703C18.0274 14.9703 18.2084 14.9146 18.2781 14.9007C18.2363 14.8728 18.2084 14.8311 18.1527 14.8171C17.9996 14.7336 17.8185 14.6918 17.6375 14.6918C17.4565 14.6918 17.2755 14.7336 17.1084 14.8032C16.7603 14.9982 16.5096 15.3184 16.3982 15.6944C16.3982 15.6944 15.9805 15.7083 15.8273 15.7222L15.2285 15.764C15.2285 15.6665 15.2564 15.5691 15.2703 15.4577C15.326 15.2627 15.4235 15.0678 15.5627 14.9146C15.7855 14.65 16.1058 14.469 16.4539 14.3994C16.4818 14.3855 16.5235 14.3855 16.5375 14.3715C16.4261 14.3019 16.2868 14.2601 16.1476 14.2601C15.3817 14.2601 14.7412 14.8589 14.6855 15.6387L14.6576 15.8058C14.6576 15.8058 14.3652 15.8754 14.226 15.9033C13.9892 15.945 13.7386 16.0007 13.5158 16.0843C13.5297 15.7919 13.5994 15.5134 13.7247 15.2627C13.85 15.026 14.0171 14.8032 14.226 14.6361C14.2817 14.5943 14.3374 14.5526 14.3931 14.5108C14.3234 14.4969 14.2399 14.4829 14.1703 14.4829C13.7247 14.4829 13.3348 14.7614 13.1677 15.1792C13.0284 15.5412 12.9727 15.9311 12.9867 16.3071C12.7639 16.3628 12.2626 16.5577 12.0537 16.6413C11.998 16.3628 11.998 16.0843 12.0676 15.8058C12.1233 15.5691 12.2347 15.3463 12.4018 15.1792C12.4436 15.1374 12.4993 15.0817 12.555 15.0399C12.5411 15.0399 12.4993 15.0121 12.2904 15.0539C11.9284 15.1513 11.636 15.4298 11.5246 15.7919C11.441 16.1678 11.4132 16.5577 11.4271 16.9337C11.3018 17.0033 10.898 17.1843 10.8144 17.2122C10.8005 17.1147 10.7587 17.0172 10.703 16.9198C10.6334 16.8084 10.5081 16.7527 10.3827 16.7527C10.3131 16.7527 10.2435 16.7666 10.1739 16.8084C10.1043 16.8362 10.0625 16.9058 10.0346 16.9755C10.0068 17.0729 10.0068 17.1704 10.0625 17.254C10.0903 17.3096 10.1321 17.3514 10.16 17.4071C10.1878 17.4489 10.2574 17.5324 10.2574 17.5324C10.1182 17.5742 9.99286 17.6299 9.89538 17.7135C9.72829 17.8249 9.67259 18.0477 9.77006 18.2287C9.82576 18.3401 9.95108 18.4097 10.0764 18.4097C10.2853 18.3958 10.4802 18.2983 10.6195 18.1451C10.6195 18.1451 10.7587 18.3679 10.7866 18.3958C10.8562 18.4932 10.9676 18.5489 11.079 18.5489C11.1486 18.5489 11.2043 18.535 11.26 18.5072C11.3853 18.4236 11.4689 18.2983 11.455 18.1451C11.441 18.0198 11.3993 17.8945 11.3018 17.797L11.2879 17.7135L11.5803 17.5603C12.0537 17.2957 12.555 17.0729 13.0563 16.878C13.8779 16.5856 14.7273 16.3906 15.5906 16.2931C15.7716 16.2653 15.9526 16.2514 16.1197 16.2653C16.3425 16.2792 16.5653 16.321 16.7603 16.4045V15.5134H17.1223C17.373 15.2349 17.6793 15.0399 18.0274 14.9703ZM16.7881 18.2844V19.5933C16.6628 19.5794 16.4957 19.5654 16.3704 19.5654C15.2007 19.6351 14.0449 19.9136 12.9727 20.4009C12.4854 20.6098 12.0259 20.8604 11.5663 21.1389C11.7195 21.2225 11.8448 21.3617 11.9145 21.5288C11.9841 21.7795 11.8309 22.0301 11.4828 22.0301C11.1765 22.044 11.1068 21.7655 11.0094 21.6681C10.9815 21.682 10.7309 21.9326 10.6334 21.9744C10.5638 22.0162 10.4663 22.044 10.3827 22.044C10.2714 22.044 10.146 22.0023 10.0764 21.9048C10.0068 21.8212 9.97893 21.7098 10.0068 21.5984C10.0346 21.4592 10.1321 21.3478 10.2435 21.2921C10.3271 21.2503 10.4245 21.1946 10.4941 21.125C10.4802 21.0415 10.3131 20.9022 10.2574 20.7769C10.2017 20.5959 10.2574 20.4149 10.3967 20.2895C10.5359 20.206 10.7169 20.206 10.8423 20.3035C11.0094 20.4009 11.1068 20.7212 11.1347 20.749C11.2322 20.6794 11.5106 20.4984 11.6917 20.3731C11.4967 20.025 11.3993 19.6351 11.4132 19.2452C11.4967 18.6464 12.1233 18.2287 12.4297 18.3818C12.179 18.6325 12.0398 18.9806 12.0259 19.3427C11.9841 19.6072 12.0398 19.8857 12.1512 20.1224C12.1512 20.1224 12.8196 19.8579 13.0563 19.7882C12.8892 19.3705 12.8753 18.8971 13.0145 18.4654C13.2234 18.0616 13.6551 17.797 14.1146 17.797C13.5297 18.1869 13.2791 18.911 13.474 19.5794C13.6133 19.5515 14.3791 19.3009 14.4627 19.273C14.4348 18.8135 14.5602 18.3679 14.8387 18.0059C15.0615 17.6995 15.3956 17.4907 15.7716 17.435C15.8552 17.435 15.9248 17.435 16.0083 17.4628C16.0083 17.4907 16.0083 17.4907 15.9526 17.5324L15.9109 17.5603C15.5906 17.8109 15.326 18.1034 15.1032 18.4515C14.9918 18.6603 14.9361 18.8831 14.9501 19.1199V19.1477C14.9501 19.1477 15.3399 19.0781 15.6463 19.0502C15.9526 19.0224 16.259 19.0085 16.259 19.0085C16.3007 18.8831 16.3704 18.7578 16.44 18.6325C16.5514 18.4932 16.6628 18.3819 16.7881 18.2844ZM29.4735 23.9239C29.2229 24.0074 29.0001 24.1745 28.8608 24.3973C28.6241 24.7594 28.5406 25.1771 28.6798 25.1771C28.7773 25.1771 28.9305 25.1771 28.9722 25.1771C29.1393 25.1771 29.3064 25.1771 29.4735 25.2049C29.5014 25.2049 29.5431 25.1771 29.5571 25.1632C29.5849 25.1353 29.5988 25.0935 29.6267 25.0657C29.752 24.6619 30.0027 24.2998 30.3508 24.0492C30.49 23.9517 30.6432 23.896 30.8242 23.896C31.0749 23.8821 31.3255 23.9935 31.4926 24.1884C31.5483 24.272 31.2141 24.1049 30.685 24.648C30.5179 24.8151 30.3925 25.0239 30.2951 25.2328C30.2951 25.2467 30.309 25.2885 30.3229 25.2885C30.5596 25.3581 30.9913 25.4556 31.2002 25.5531C31.242 25.567 31.2977 25.5531 31.3255 25.5113C31.4369 25.3303 31.5901 25.1771 31.7711 25.0518C31.966 24.9264 32.1888 24.8708 32.4256 24.8708H32.4673C32.9547 24.9264 32.9965 25.1771 33.0104 25.2049C33.0382 25.2467 32.899 25.2467 32.8433 25.2606C32.5091 25.3303 32.2028 25.5252 31.98 25.8037C31.9521 25.8594 32.0774 25.9708 32.0774 25.9708C32.4534 26.1797 32.6483 26.5835 32.5787 27.0012C32.5648 27.0708 32.5787 27.1126 32.5091 27.1126C32.4395 27.0708 32.3699 27.0291 32.3142 26.9734C32.0914 26.7784 31.8686 26.6113 31.6318 26.4442C31.242 26.1936 30.8103 26.0265 30.3508 25.9429C30.0027 25.8733 29.6406 25.8455 29.2925 25.8316C28.4988 25.8455 27.7051 25.9569 26.9392 26.1797C26.8 26.2214 26.2987 26.3607 25.867 26.4999L25.6025 26.5835L25.7835 26.4303C25.9784 26.2493 26.1594 26.0543 26.3265 25.8455L26.4519 25.6923L26.6607 25.6366L27.538 25.4417C27.6355 25.4138 27.7051 25.3442 27.719 25.2467C27.7608 24.8986 27.914 24.5783 28.1367 24.3277C28.3178 24.0353 28.6241 23.8403 28.9722 23.7985C29.376 23.7568 29.5431 23.896 29.4735 23.9239ZM23.1099 30.5799C22.9707 30.4685 22.8732 30.3014 22.8593 30.1204C22.8593 29.9393 22.9568 29.7862 23.1239 29.7165C23.3049 29.6469 23.4998 29.6608 23.6669 29.7583C23.8619 29.8976 23.8758 30.0368 23.9454 30.2457C23.9593 30.2457 23.9593 30.2596 23.9733 30.2596C24.1404 30.1761 24.4467 30.0368 24.6556 29.9254L24.767 29.8697C24.767 29.8697 24.8087 29.8558 24.7948 29.7862C24.7252 29.5634 24.6973 29.3406 24.6973 29.1178C24.7113 28.8671 24.7948 28.6165 24.9341 28.4076C25.2543 27.8646 25.8531 27.9203 25.7974 27.962C25.5885 28.1987 25.4493 28.4912 25.3936 28.8114C25.3657 28.9925 25.3657 29.1735 25.3936 29.3406C25.4075 29.4241 25.4075 29.5077 25.4632 29.5355C25.505 29.5634 25.6999 29.4659 25.8252 29.4241C25.9784 29.3684 26.1873 29.3406 26.3126 29.2988C26.3962 29.2709 26.3683 29.2292 26.3683 29.2152C26.3544 28.7279 26.4936 28.2405 26.7582 27.8367C26.9671 27.5582 27.2873 27.3772 27.6215 27.3493C27.7469 27.3354 27.9279 27.3911 27.8722 27.4329C27.8026 27.4747 27.7329 27.5304 27.6633 27.5861C27.4684 27.7392 27.3152 27.9203 27.1759 28.1291C27.0228 28.4355 26.9671 28.7697 27.0228 29.1178C27.3013 29.1178 27.5658 29.0899 27.8304 29.0064C27.8722 28.9925 27.9 28.9507 27.9139 28.9089C28.0114 28.6026 28.1228 28.0038 28.4431 27.7949C28.5963 27.6557 28.8051 27.5861 29.014 27.5721C29.1672 27.5582 29.571 27.6835 29.4735 27.7253C29.2229 27.8367 29.0001 28.0038 28.833 28.2127C28.7077 28.3798 28.6241 28.5747 28.5963 28.7836C28.5684 28.895 28.6937 28.9368 28.6937 28.9368C28.9165 28.9507 29.1393 28.9785 29.3482 29.0203C29.4178 29.0342 29.4596 28.9507 29.4735 28.9228C29.571 28.7697 29.6963 28.6165 29.8356 28.5051C29.9748 28.3658 30.1558 28.2823 30.3508 28.2684C30.7546 28.2684 30.9635 28.5608 30.9078 28.5886C30.5596 28.6722 30.2533 28.8811 30.0305 29.1735C30.0166 29.1874 29.9748 29.2152 30.0444 29.257C30.4065 29.5634 30.6571 29.9811 30.7267 30.4545C30.7267 30.4963 30.7546 30.6634 30.6989 30.6773C30.4343 30.371 30.128 30.0925 29.7938 29.8697C29.3203 29.633 28.8051 29.5077 28.276 29.5216C27.6355 29.5216 26.9949 29.6191 26.3822 29.8001C25.6999 30.009 25.0455 30.3014 24.4328 30.6634C24.5302 30.733 24.5999 30.8305 24.6416 30.9419C24.7252 31.1369 24.6695 31.3596 24.5024 31.4989C24.4049 31.5824 24.2657 31.5964 24.1404 31.5546C23.8479 31.5128 23.7644 31.2065 23.7226 31.1229C23.6808 31.2204 23.6112 31.3039 23.5137 31.3596C23.3188 31.5128 23.0542 31.485 22.9011 31.29C22.8871 31.2761 22.8871 31.2622 22.8732 31.2482C22.7479 31.0672 22.7757 30.8305 22.9428 30.6913C23.096 30.6077 23.1099 30.5799 23.1099 30.5799ZM24.1404 34.2421C24.0847 34.1446 24.0429 34.0471 24.015 33.9357C23.9315 33.7129 23.9036 33.4762 23.9315 33.2395C23.9872 32.9471 24.2378 32.7243 24.5302 32.7103C24.391 32.8635 24.3214 33.0724 24.3632 33.2813C24.3771 33.4901 24.4467 33.6851 24.5442 33.8661C24.572 33.8939 24.5859 33.88 24.5999 33.88C24.767 33.7965 24.9341 33.7129 25.1012 33.6433C25.1151 33.6433 25.1151 33.6294 25.1151 33.6154C25.0037 33.2256 25.0455 32.8078 25.2404 32.4597C25.3936 32.1812 25.6581 32.0002 25.9784 31.9445C25.9923 31.9445 26.1873 31.9445 26.1873 32.0141C25.9784 32.1673 25.8113 32.3761 25.6999 32.6129C25.6164 32.8496 25.5885 33.1142 25.6442 33.3648C25.6442 33.3787 25.6721 33.3787 25.6721 33.3787C25.867 33.323 26.048 33.2813 26.2569 33.2395C26.2708 33.2256 26.2848 33.2116 26.2987 33.1977C26.3683 32.8357 26.5633 32.5015 26.8278 32.2648C27.0367 32.0977 27.2873 31.9863 27.5519 31.9584C27.9 31.9445 27.9418 32.0698 27.9836 32.1116C28.0114 32.1394 27.914 32.0977 27.7469 32.1673C27.5519 32.2648 27.3709 32.404 27.2316 32.5711C27.1063 32.7243 27.0228 32.9053 26.9949 33.1142C26.9949 33.1281 26.9949 33.1559 27.0088 33.1559C27.2038 33.1838 27.3987 33.2395 27.5937 33.2952C27.6076 33.2952 27.6215 33.2952 27.6215 33.2813C27.7329 33.0724 27.8722 32.8774 28.0393 32.7103C28.2064 32.5572 28.4152 32.4875 28.638 32.4736C28.7773 32.4736 28.9026 32.5154 29.014 32.585C29.014 32.585 29.1532 32.6964 29.1115 32.7103C28.8748 32.78 28.6659 32.9053 28.5127 33.0863C28.276 33.3648 28.276 33.4344 28.2621 33.4901C28.2481 33.5597 28.2481 33.5737 28.3178 33.6294C28.6798 33.8661 28.7355 34.061 28.7494 34.2003C28.7773 34.3395 28.6798 34.5484 28.5684 34.3952C28.4152 34.1864 28.1924 34.0471 27.9557 33.9636C27.6215 33.8243 27.2595 33.7547 26.8835 33.7547C26.5493 33.7547 26.2012 33.8104 25.8809 33.9218C25.4493 34.0471 25.0455 34.256 24.6695 34.5205C24.6138 34.5623 24.5581 34.6041 24.5024 34.6459C24.391 34.7294 24.2796 34.8269 24.1821 34.9244C24.1404 34.9661 24.21 34.994 24.2518 35.0079C24.6695 35.1889 24.6834 35.4814 24.572 35.6067C24.4746 35.7041 24.3214 35.732 24.21 35.6624C23.8897 35.4535 23.9454 35.2725 23.8062 35.3143C23.7087 35.3421 23.6112 35.5788 23.5416 35.6763C23.4302 35.8155 23.2213 35.8434 23.0821 35.732C22.9289 35.6067 22.9011 35.3839 23.0125 35.2168C23.096 35.1472 23.1796 35.0775 23.2631 35.0079C23.2492 34.994 23.0264 34.8547 22.9428 34.7851C22.8036 34.6459 22.8036 34.4231 22.9428 34.2838C22.9428 34.2699 22.9568 34.2699 22.9707 34.2699C23.1378 34.1446 23.3745 34.1864 23.4998 34.3535C23.4998 34.3535 23.653 34.5623 23.6669 34.5762C23.6808 34.5902 23.6948 34.5902 23.7087 34.5762C23.7644 34.5205 24.0986 34.2699 24.1125 34.256C24.1404 34.256 24.1543 34.2421 24.1404 34.2421ZM26.1037 22.2947C26.062 22.3086 26.0063 22.3086 25.9645 22.2947C25.9227 22.2808 25.867 22.2529 25.8392 22.2111C25.8113 22.1833 25.7835 22.1415 25.7695 22.0858C25.7695 22.058 25.7974 22.0301 25.8252 22.0162C25.8949 21.9605 25.9645 21.8909 26.0063 21.8212C26.048 21.7516 26.062 21.6681 26.062 21.5845C26.062 21.5706 26.0341 21.5567 26.0202 21.5706C25.9645 21.6124 25.9366 21.682 25.8809 21.7238C25.8252 21.7655 25.7695 21.7795 25.6999 21.7795C25.6581 21.7795 25.6164 21.7516 25.5885 21.7238C25.5607 21.682 25.5468 21.6402 25.5328 21.5984C25.5189 21.5567 25.5746 21.5288 25.6164 21.5288C25.6999 21.5288 25.7835 21.501 25.8531 21.4592C25.8949 21.4314 25.9366 21.3896 25.9645 21.3339C25.9784 21.2921 25.9923 21.2503 25.9923 21.2086C25.9923 21.1946 26.0063 21.1807 25.9784 21.1807C25.9366 21.1946 25.9088 21.2225 25.867 21.2364C25.7974 21.2643 25.7138 21.2503 25.6442 21.2225C25.5746 21.1668 25.5189 21.1111 25.4771 21.0275C25.4632 21.0136 25.4771 20.9858 25.4911 20.9858C25.5607 20.9718 25.6164 20.9022 25.6721 20.8047C25.686 20.7908 25.6999 20.763 25.6999 20.749C25.7138 20.7212 25.7417 20.6933 25.7417 20.6794C25.7556 20.6237 25.7556 20.568 25.7556 20.5123C25.7556 20.4706 25.7278 20.4288 25.686 20.387C25.6721 20.3731 25.6442 20.3731 25.6303 20.387C25.6025 20.4427 25.6164 20.5123 25.5885 20.568C25.5468 20.6237 25.505 20.6794 25.4493 20.7212C25.4214 20.749 25.3797 20.7769 25.3518 20.763C25.2961 20.7351 25.2543 20.6794 25.2404 20.6237C25.2265 20.5541 25.2543 20.4845 25.2822 20.4288C25.3518 20.3035 25.4214 20.1781 25.505 20.0667C25.5746 19.9832 25.6303 19.9275 25.6999 19.8439C25.7417 19.7882 25.7695 19.6629 25.7138 19.6351C25.6581 19.6072 25.6303 19.7465 25.5746 19.7743C25.3936 19.8439 25.2126 19.9414 25.0594 20.0528C24.9898 20.1503 24.9341 20.2617 24.9062 20.3731C24.8784 20.4427 24.8923 20.5402 24.8784 20.5959C24.8644 20.6237 24.8227 20.6376 24.7948 20.6237C24.7391 20.568 24.6973 20.4984 24.6695 20.4149C24.6556 20.3592 24.6556 20.3035 24.6834 20.2478C24.6973 20.2199 24.6695 20.206 24.6556 20.2199C24.5859 20.2617 24.5302 20.3313 24.5024 20.4009C24.4746 20.5123 24.4745 20.6237 24.5302 20.7212C24.6138 20.8744 24.7113 21.0136 24.8227 21.1529C24.9062 21.2782 25.0037 21.4174 25.0733 21.5428C25.1429 21.6402 25.1708 21.7795 25.1569 21.8909C25.129 22.0162 25.0594 22.1415 24.9619 22.2251C24.948 22.239 24.9201 22.239 24.9062 22.239C24.8087 22.1415 24.6973 22.058 24.5999 21.9744C24.4745 21.8909 24.3214 21.8352 24.1682 21.8073C23.9733 21.7795 23.7922 21.7795 23.5973 21.8073C23.4023 21.8073 23.1935 21.8491 22.9985 21.8352C22.8314 21.8491 22.6783 21.8212 22.5112 21.7655C22.3998 21.7238 22.3023 21.6402 22.2327 21.5288C22.177 21.4174 22.1491 21.2782 22.177 21.1529C22.1909 21.0554 22.2187 20.944 22.2605 20.8604C22.3023 20.7769 22.3719 20.7073 22.4415 20.6655C22.5251 20.6098 22.6365 20.5959 22.734 20.6237C22.7897 20.6516 22.8314 20.6794 22.8732 20.7073C22.915 20.7351 22.9568 20.7769 22.9846 20.8187H23.0125C23.0264 20.6794 23.0125 20.5402 22.9568 20.4149C22.9011 20.3174 22.8454 20.2199 22.7757 20.1364C22.7757 20.1085 22.8314 20.1224 22.8593 20.1085C22.9707 20.1085 23.0682 20.1364 23.1656 20.1921C23.2213 20.2338 23.277 20.2895 23.3188 20.3452H23.3466C23.3606 20.1781 23.3049 20.025 23.1935 19.8996C23.1517 19.83 23.0821 19.7743 22.9985 19.7325C22.9568 19.7186 23.0264 19.6768 23.0682 19.6768C23.1517 19.6629 23.2353 19.6768 23.3188 19.7186C23.3466 19.7325 23.3745 19.7465 23.4023 19.7743C23.4163 19.7882 23.4302 19.8022 23.458 19.8161C23.472 19.83 23.4859 19.8022 23.4859 19.7882C23.472 19.7465 23.458 19.6908 23.4302 19.649C23.3049 19.5237 23.1656 19.4123 23.0264 19.3009C23.0125 19.287 22.9846 19.273 22.9846 19.273C22.9428 19.2173 22.915 19.1616 22.9011 19.092C22.8871 19.0642 22.8593 19.0502 22.8454 19.0085C22.8314 18.9806 22.8454 18.9388 22.8593 18.911C22.9011 18.8274 22.9428 18.8274 23.0264 18.7857C23.096 18.7578 23.1656 18.7439 23.2353 18.7439C23.2631 18.7439 23.277 18.7578 23.3049 18.7578C23.3188 18.7578 23.3188 18.73 23.2909 18.7021C23.2074 18.6464 23.1099 18.6186 23.0125 18.6186C22.8732 18.5907 22.7479 18.6046 22.6086 18.6464C22.5112 18.7021 22.4137 18.73 22.3023 18.73C22.2327 18.73 22.163 18.716 22.0934 18.6882C22.0517 18.6603 22.0099 18.6186 22.0099 18.5768C22.0099 18.4932 22.0238 18.4097 22.0656 18.3401C22.0934 18.2844 22.1491 18.2426 22.2048 18.2287C22.2466 18.2148 22.2744 18.2008 22.2605 18.173C22.2605 18.1451 22.2048 18.1591 22.1909 18.173C22.0656 18.2008 21.9542 18.2426 21.8567 18.3122C21.7732 18.3818 21.7175 18.4654 21.6478 18.5489C21.6339 18.5629 21.62 18.5768 21.5921 18.5907C21.5643 18.6046 21.5504 18.5907 21.5225 18.6046C21.439 18.6325 21.3554 18.6743 21.2719 18.716C21.1883 18.7578 21.1187 18.8274 21.0351 18.8553C20.9655 18.8692 20.8959 18.8831 20.8263 18.8831C20.687 18.8692 20.506 18.8692 20.4782 19.0363C20.4642 19.0642 20.4782 19.1059 20.5199 19.1199C20.5478 19.1338 20.5617 19.1477 20.5896 19.1616L20.6731 19.1895C20.687 19.1895 20.7149 19.2034 20.7288 19.2173V19.2313V19.2452C20.7288 19.2452 20.7288 19.2452 20.7288 19.2591C20.7149 19.287 20.701 19.3009 20.6731 19.3009C20.6035 19.3148 20.5199 19.3009 20.4503 19.273L20.4364 19.2591C20.4085 19.2452 20.3668 19.2452 20.3389 19.273C20.1857 19.3984 20.0326 19.5097 19.8794 19.6072C19.8655 19.6211 19.8515 19.6351 19.8376 19.649C19.8237 19.6629 19.8237 19.6768 19.8237 19.6768C19.8237 19.6908 19.8237 19.7047 19.8237 19.7047C19.8237 19.7465 19.7819 19.7604 19.7541 19.7604C19.7262 19.7743 19.6984 19.8022 19.6984 19.83C19.6984 19.8579 19.6984 19.8857 19.6984 19.9136C19.7123 19.9693 19.7541 19.9971 19.8098 19.9971C19.8237 19.9971 19.8237 19.9971 19.8376 19.9832C19.8794 19.9693 19.9212 19.9553 19.9629 19.9414C19.9908 19.9275 20.0047 19.9414 20.0326 19.9553C20.0326 19.9553 20.0326 19.9553 20.0465 19.9693V19.9832C20.0465 19.9971 20.0465 20.011 20.0326 20.011C20.0186 20.0389 20.0047 20.0667 19.9769 20.0807C19.9629 20.1085 19.949 20.1503 19.9769 20.1642C20.0326 20.206 20.1161 20.206 20.1718 20.1503C20.1997 20.1224 20.2136 20.0946 20.2275 20.0667C20.2414 20.025 20.2693 19.9971 20.3111 19.9832C20.3807 19.9553 20.4503 19.9414 20.5199 19.9414C20.5756 19.9414 20.6174 19.9553 20.6731 19.9832C20.687 19.9971 20.701 19.9971 20.701 20.011V20.025V20.0389C20.701 20.0389 20.701 20.0389 20.701 20.0528C20.687 20.1085 20.6731 20.1503 20.6453 20.1921C20.6313 20.2199 20.6313 20.2617 20.6035 20.3035C20.5896 20.3452 20.5617 20.387 20.5617 20.4149C20.5478 20.4427 20.5478 20.4427 20.5199 20.4706C20.4503 20.5262 20.3668 20.5819 20.3111 20.6376C20.1997 20.749 20.1022 20.8604 20.0186 20.9997C19.9908 21.0415 19.9769 21.0832 19.9629 21.1389C19.9351 21.2503 19.9212 21.3896 19.7819 21.32C19.6566 21.2503 19.5313 21.1668 19.406 21.0832C19.3642 21.0554 19.3224 21.0136 19.2946 20.9579C19.1832 20.7908 19.03 20.944 18.9464 21.0693C18.8211 21.2643 18.6819 21.4453 18.5426 21.6263C18.5148 21.6542 18.5009 21.682 18.4869 21.7238C18.473 21.7655 18.4452 21.8212 18.4034 21.8491C18.3616 21.9048 18.3477 21.9744 18.3477 22.044C18.3477 22.1554 18.3198 22.2808 18.2502 22.3643C18.1945 22.42 18.1667 22.4896 18.1667 22.5593C18.1667 22.6289 18.1667 22.6846 18.1667 22.7542C18.1667 22.796 18.1945 22.8377 18.2363 22.8377C18.2502 22.8377 18.2641 22.8377 18.2781 22.8238C18.3755 22.782 18.473 22.7403 18.5566 22.6707C18.5705 22.6567 18.5844 22.6567 18.5844 22.6428C18.6122 22.615 18.6122 22.5732 18.5983 22.5453C18.5983 22.5314 18.5844 22.5314 18.5844 22.5175L18.5705 22.5036C18.5566 22.4896 18.5287 22.4757 18.5287 22.4479V22.4339C18.5287 22.4061 18.5287 22.3922 18.5287 22.3643C18.5287 22.3365 18.5426 22.3086 18.5426 22.2808C18.5426 22.2529 18.5566 22.2111 18.5844 22.1972C18.6262 22.1554 18.6679 22.1276 18.7236 22.0858C18.7933 22.0301 18.8072 21.9466 18.7793 21.863C18.7793 21.8491 18.7654 21.8352 18.7654 21.8212C18.7654 21.8073 18.7654 21.8073 18.7654 21.7934C18.7654 21.7516 18.7933 21.7238 18.8072 21.6959C18.835 21.6542 18.8629 21.6124 18.8907 21.5706C18.9325 21.501 19.0021 21.4453 19.0857 21.4314C19.1832 21.4174 19.2806 21.4453 19.3642 21.5149C19.4477 21.6124 19.5034 21.7377 19.5174 21.863C19.5452 21.9605 19.587 22.058 19.6427 22.1554C19.6845 22.2251 19.768 22.2529 19.8376 22.2111C19.8515 22.2111 19.8515 22.1972 19.8655 22.1972L19.8794 22.1833H19.8933C19.9212 22.1694 19.949 22.1833 19.9629 22.2111C20.0047 22.2529 20.0465 22.2947 20.0883 22.3365C20.144 22.3643 20.1022 22.4061 20.0465 22.4061C20.0047 22.4061 19.9769 22.4061 19.9351 22.4061C19.9072 22.4061 19.8794 22.4061 19.8515 22.42C19.6427 22.4896 19.4199 22.5175 19.1971 22.5175C19.1832 22.5175 19.1692 22.5175 19.1553 22.5175C19.1275 22.5175 19.0996 22.5453 19.0996 22.5593C19.0996 22.5732 19.0857 22.5732 19.0857 22.5871C19.0718 22.601 19.0718 22.6289 19.0578 22.6567C19.0439 22.7124 19.0439 22.7681 19.0578 22.8099C19.1414 23.1162 19.1692 23.4226 19.1275 23.7289C19.0996 23.8403 19.1275 23.9517 19.1971 24.0492C19.2249 24.077 19.2667 24.1049 19.2946 24.1188C19.3085 24.1188 19.3224 24.1327 19.3363 24.1467C19.3642 24.1745 19.3781 24.2163 19.3781 24.2581C19.3781 24.3138 19.406 24.3695 19.4477 24.4252C19.5034 24.4948 19.5731 24.5505 19.6566 24.5923C19.6705 24.5923 19.6705 24.6062 19.6845 24.6062C19.7262 24.6201 19.7819 24.6062 19.7958 24.5644C19.8376 24.4669 19.8655 24.3555 19.8655 24.2441C19.8655 24.1884 19.8237 24.1467 19.7819 24.1327H19.768C19.7541 24.1327 19.7262 24.1327 19.7123 24.1467C19.6984 24.1467 19.6984 24.1606 19.6845 24.1606H19.6705H19.6566H19.6427H19.6288C19.6009 24.1467 19.587 24.1188 19.5731 24.091C19.5452 24.0353 19.5452 23.9656 19.5591 23.896C19.5591 23.8821 19.5731 23.8542 19.5731 23.8403C19.5731 23.8125 19.587 23.7846 19.5731 23.7568C19.5731 23.7289 19.5591 23.7011 19.5452 23.6732C19.5174 23.6175 19.5174 23.6036 19.4756 23.5897H19.4617C19.4477 23.5897 19.4199 23.5758 19.406 23.5618C19.406 23.5618 19.406 23.5618 19.392 23.5479C19.3781 23.534 19.3781 23.5201 19.392 23.5061C19.4199 23.3669 19.4199 23.2137 19.406 23.0605C19.406 23.0188 19.392 22.9631 19.4338 22.9213C19.5313 22.8377 19.6984 22.9074 19.8098 22.9491C19.949 22.9909 20.0883 23.0327 20.2275 23.0605C20.4642 23.0884 20.701 23.0188 20.8959 22.8795C20.9098 22.8656 20.9098 22.8656 20.9377 22.8656C21.0212 22.9074 21.063 22.9631 21.1326 23.0188C21.2997 23.1302 21.4947 23.2137 21.6896 23.2833C21.9542 23.3112 22.2327 23.3112 22.4972 23.2694C22.5669 23.2694 22.6365 23.2833 22.6922 23.3112C22.7061 23.3112 22.72 23.3251 22.72 23.353C22.72 23.4504 22.6783 23.5479 22.6783 23.6454C22.6783 23.7011 22.7061 23.7568 22.734 23.7985C22.7618 23.8403 22.7757 23.9099 22.8036 23.9517L22.8314 24.0074C22.9846 24.2024 22.9846 24.4669 22.8454 24.6758C22.7479 24.7733 22.6365 24.8568 22.5251 24.9404C22.4137 25.0239 22.2884 25.0796 22.1491 25.0796C22.0517 25.0796 21.9681 25.1214 21.8985 25.1771C21.8289 25.2606 21.7314 25.3303 21.6339 25.372C21.5921 25.386 21.5643 25.4138 21.5504 25.4556C21.5086 25.567 21.4668 25.6784 21.4529 25.8037C21.439 25.8733 21.4947 25.8872 21.5504 25.8872C21.6478 25.8733 21.7453 25.8455 21.8428 25.8037C21.8985 25.7898 21.9263 25.7341 21.9124 25.6784C21.9124 25.6784 21.9124 25.6645 21.8985 25.6645L21.8706 25.5809C21.8706 25.567 21.8706 25.567 21.8706 25.5531V25.5391V25.5252C21.8706 25.5113 21.8846 25.5113 21.8846 25.4974C21.8985 25.4834 21.9263 25.4556 21.9403 25.4417C21.9681 25.4277 21.996 25.4138 22.0377 25.4138C22.0656 25.4138 22.0795 25.4277 22.1073 25.4277C22.2327 25.4695 22.358 25.4277 22.4276 25.3163C22.4415 25.3024 22.4415 25.2885 22.4555 25.2746C22.4833 25.2328 22.5112 25.2049 22.539 25.1771C22.7897 25.01 23.0682 24.8707 23.3606 24.7733C23.3884 24.7733 23.4023 24.7454 23.4163 24.7176C23.4163 24.6758 23.4163 24.648 23.4163 24.6062C23.4023 24.5087 23.4023 24.3973 23.4163 24.2998C23.4163 24.2302 23.4441 24.1049 23.5416 24.1049C23.5834 24.1049 23.6112 24.1327 23.6251 24.1606C23.7226 24.272 23.834 24.3695 23.9733 24.4112C24.015 24.4252 24.0568 24.4391 24.0986 24.453C24.21 24.5087 24.2796 24.6062 24.3075 24.7176C24.3214 24.7872 24.3075 24.8429 24.2657 24.8986C24.1682 25.0239 24.0707 25.1632 23.9872 25.3024C23.9454 25.372 23.8897 25.4417 23.8201 25.4834C23.7087 25.5531 23.6112 25.6366 23.5137 25.7202C23.4302 25.7759 23.3745 25.8455 23.3188 25.929C23.2631 26.0683 23.2213 26.2075 23.1796 26.3468C23.1517 26.4303 23.2074 26.4442 23.277 26.4303C23.3884 26.4025 23.4859 26.3607 23.5834 26.305C23.5973 26.2911 23.6112 26.2911 23.6251 26.2771C23.6391 26.2632 23.653 26.2354 23.6391 26.2214C23.6391 26.1797 23.6251 26.1518 23.5973 26.124C23.5694 26.0961 23.5555 26.0404 23.5694 25.9986C23.5694 25.9986 23.5694 25.9847 23.5834 25.9847C23.5973 25.9569 23.6251 25.9429 23.653 25.9429C23.7365 25.9151 23.8062 25.9012 23.8897 25.8733C23.9872 25.8594 24.0847 25.8037 24.1682 25.7341C24.1821 25.7202 24.1961 25.6923 24.1961 25.6784V25.6645C24.2935 25.3442 24.5024 25.0657 24.7948 24.8986C24.8366 24.8847 24.8505 24.8429 24.8644 24.8011C24.8784 24.7594 24.8644 24.7176 24.8505 24.6758L24.6277 24.3277C24.5581 24.2441 24.5163 24.1327 24.5024 24.0213C24.5024 23.9099 24.5302 23.7985 24.5859 23.6872C24.5999 23.6593 24.6277 23.6315 24.6416 23.6036C24.6834 23.5201 24.753 23.4922 24.8087 23.4087C24.8644 23.339 24.9201 23.2555 24.9758 23.1719C25.0315 23.0605 25.0594 22.9491 25.0872 22.8377C25.1151 22.7542 25.0733 22.6567 25.0733 22.5593C25.0733 22.5314 25.0872 22.4896 25.1151 22.4757C25.1569 22.42 25.2126 22.3782 25.2683 22.3504C25.3379 22.3365 25.3936 22.3365 25.4632 22.3643C25.5746 22.3922 25.6581 22.4479 25.7695 22.4757C25.8252 22.4896 25.8949 22.4896 25.9506 22.4618C26.0202 22.4479 26.0759 22.4061 26.1177 22.3643C26.1177 22.3365 26.1177 22.2947 26.1037 22.2947ZM22.0656 20.4288C22.0795 20.5541 21.982 20.6655 21.8567 20.6655C21.8428 20.6655 21.8428 20.6655 21.8289 20.6655C21.7871 20.6655 21.7732 20.5959 21.7592 20.4984C21.7592 20.4288 21.7592 20.4009 21.7592 20.387C21.7592 20.3452 21.7592 20.2895 21.7592 20.2478C21.7592 20.2199 21.7592 20.1781 21.7592 20.1503C21.7592 20.1224 21.7592 20.0667 21.7592 20.0389C21.7592 19.9553 21.7592 19.8718 21.7453 19.7882C21.7314 19.6908 21.7035 19.5794 21.6757 19.4819C21.6618 19.4123 21.6339 19.3705 21.6061 19.3009C21.5921 19.273 21.5782 19.2452 21.5643 19.2173C21.5504 19.1895 21.5364 19.1756 21.5086 19.1477C21.4807 19.1199 21.439 19.1059 21.4111 19.0781C21.3972 19.0642 21.4111 19.0502 21.425 19.0502C21.5364 18.9806 21.6896 19.0085 21.7871 19.092C21.9403 19.2173 22.0377 19.4123 22.0517 19.6211C22.1074 19.8718 22.1074 20.1503 22.0656 20.4288ZM9.81184 26.1657H18.0135C17.2476 25.3442 16.816 24.2581 16.802 23.1441V23.0188H9.31055C9.35232 24.077 9.51942 25.1353 9.81184 26.1657ZM21.6618 30.1204H11.4689C11.7334 30.6077 12.0259 31.0951 12.3461 31.5824C12.736 32.1812 13.1677 32.7521 13.6411 33.2952H21.6618V30.1204ZM34.8206 15.9729H27.3013V16.5995V17.9502V18.7578H34.7788C34.7928 17.8388 34.8067 16.9058 34.8206 15.9729ZM34.9042 11.2942C34.9042 11.2942 34.8902 11.2942 34.8902 11.2803C33.5395 10.7372 32.161 10.2916 30.7546 9.92957C28.8191 9.45613 26.8417 9.13586 24.8644 8.96877C23.9176 8.88522 23.0682 8.85737 22.1213 8.84345V11.9347H34.8902C34.9042 11.7119 34.9042 11.5031 34.9042 11.2942ZM26.8278 15.8754H17.2059C17.1919 15.8754 17.178 15.8893 17.178 15.9033L17.1919 23.0327C17.2198 24.3277 17.7907 25.5391 18.7933 26.3746C19.6984 27.1544 20.8541 27.6 22.0517 27.6139C22.9428 27.6 23.8062 27.3633 24.5581 26.9038C25.5189 26.3468 26.2569 25.4556 26.6329 24.4112C26.7582 24.0631 26.8278 23.6872 26.8417 23.3112V15.9033C26.8557 15.8754 26.8418 15.8754 26.8278 15.8754ZM26.6329 23.2416C26.6329 23.6036 26.5633 23.9656 26.4379 24.2998C26.0759 25.3024 25.3797 26.1518 24.4606 26.6949C23.7365 27.1265 22.915 27.3633 22.0656 27.3772C20.9237 27.3633 19.8237 26.9455 18.9604 26.1797C18.0135 25.386 17.4565 24.2024 17.4426 22.9631L17.4147 16.1261C17.4147 16.1121 17.4147 16.0982 17.4286 16.0982H26.605C26.619 16.0982 26.6329 16.1121 26.6329 16.1121V23.2416ZM23.8479 27.6557C23.5277 27.781 23.1935 27.8646 22.8454 27.9203C22.8593 27.9481 22.8593 27.976 22.8732 28.0038C22.9011 28.0734 22.9707 28.1291 23.0542 28.1291C23.1656 28.143 23.2492 28.0734 23.3327 27.8924C23.3466 27.8785 23.3884 27.8506 23.4023 27.8785C23.4859 28.0177 23.6808 28.143 23.8201 28.0734C23.9315 28.0038 23.9593 27.8646 23.8897 27.7671C23.8897 27.7671 23.8897 27.7532 23.8758 27.7532C23.8897 27.7392 23.8619 27.6696 23.8479 27.6557Z" fill="black"/>
</g>
<defs>
<linearGradient id="paint0_linear_12575_210519" x1="8.50195" y1="21.9159" x2="35.4994" y2="21.9159" gradientUnits="userSpaceOnUse">
<stop stop-color="#E1BE78"/>
<stop offset="1" stop-color="#E3AB36"/>
</linearGradient>
<linearGradient id="paint1_linear_12575_210519" x1="6.48681" y1="10.6445" x2="34.8873" y2="27.0415" gradientUnits="userSpaceOnUse">
<stop stop-color="#E1BE78"/>
<stop offset="0.34" stop-color="#FFFAD1"/>
<stop offset="0.75" stop-color="#C69632"/>
<stop offset="0.995" stop-color="#FCDC99"/>
</linearGradient>
<linearGradient id="paint2_linear_12575_210519" x1="9.50531" y1="7.89561" x2="34.3765" y2="7.89561" gradientUnits="userSpaceOnUse">
<stop stop-color="#FFE3A8"/>
<stop offset="1" stop-color="#D2A249"/>
</linearGradient>
<clipPath id="clip0_12575_210519">
<rect width="27" height="34.8117" fill="white" transform="translate(8.5 4.59375)"/>
</clipPath>
</defs>
</svg>
