<svg width="44" height="44" viewBox="0 0 44 44" fill="none" xmlns="http://www.w3.org/2000/svg">
<path d="M21.9999 37.8899C13.285 37.8899 6.14497 30.715 6.14497 21.9999C6.14497 20.04 6.49495 18.1849 7.16003 16.435L16.435 35.0899C16.5399 35.335 16.7149 35.545 16.995 35.545C17.275 35.545 17.45 35.335 17.555 35.0899L21.8249 25.5349C21.86 25.43 21.9299 25.3249 22.035 25.3249C22.14 25.3249 22.1749 25.4298 22.245 25.5349L26.5149 35.0899C26.6199 35.335 26.795 35.545 27.0749 35.545C27.3549 35.545 27.53 35.335 27.6349 35.0899L36.9099 16.435C37.5748 18.185 37.9249 20.04 37.9249 21.9999C37.8549 30.7149 30.715 37.8899 22.0001 37.8899H21.9999ZM21.9999 18.395C21.895 18.395 21.86 18.2901 21.7899 18.185L16.82 6.98504C18.4299 6.39001 20.18 6.07506 21.9999 6.07506C23.8199 6.07506 25.5699 6.39001 27.1799 6.98504L22.2099 18.185C22.1399 18.325 22.105 18.395 21.9999 18.395ZM16.9249 29.91C16.82 29.91 16.7849 29.805 16.7149 29.7L8.66504 13.46C10.1 11.255 12.025 9.40003 14.37 8.10504L20.18 21.02C20.25 21.2301 20.425 21.3001 20.6 21.3001H23.4C23.61 21.3001 23.75 21.2651 23.8551 21.02L29.6651 8.10504C31.9751 9.40003 33.935 11.255 35.37 13.46L27.2501 29.7C27.2151 29.8049 27.1451 29.91 27.0401 29.91C26.935 29.91 26.9001 29.805 26.83 29.7L23.785 22.7699C23.6801 22.5249 23.54 22.4899 23.3299 22.4899H20.5299C20.3199 22.4899 20.18 22.5249 20.0749 22.7699L17.1349 29.7C17.0999 29.8049 17.03 29.91 16.9249 29.91ZM21.9999 39.4999C31.6949 39.4999 39.4999 31.6949 39.4999 21.9999C39.4999 12.305 31.6949 4.5 21.9999 4.5C12.305 4.5 4.5 12.305 4.5 21.9999C4.5 31.6949 12.305 39.4999 21.9999 39.4999Z" fill="#001E50"/>
</svg>
