<svg width="44" height="44" viewBox="0 0 44 44" fill="none" xmlns="http://www.w3.org/2000/svg">
<mask id="mask0_11335_169581" style="mask-type:luminance" maskUnits="userSpaceOnUse" x="2" y="11" width="40" height="22">
<path d="M21.9983 32.2248C33.0466 32.2248 42.0002 27.6473 42.0002 22.002C42.0002 16.3566 33.0466 11.7754 21.9983 11.7754C10.9499 11.7754 2 16.3529 2 22.002C2 27.651 10.9574 32.2248 21.9983 32.2248ZM25.7619 27.2142C25.4371 27.9796 24.8546 29.6299 23.5403 30.2907C23.1445 30.4849 22.6479 30.582 22.1999 30.5894C22.1028 30.5969 22.0356 30.5894 22.002 30.5894C18.3839 30.5894 15.0011 30.1003 12.1597 29.2603C11.9506 29.2005 11.4876 29.0848 11.4876 28.801C11.4876 28.6741 11.5548 28.5733 11.6519 28.4799C11.693 28.4388 11.7527 28.3903 11.8311 28.3231C12.492 27.7668 14.5008 26.3181 18.2645 24.8844C19.5862 24.3803 21.2366 23.7493 22.9653 23.3872C23.9884 23.1706 27.7521 22.6031 25.7582 27.2179M35.8656 16.9129C35.9365 16.7823 36.0336 16.6815 36.2016 16.674C36.295 16.6591 36.4182 16.6889 36.6124 16.8047C38.9647 18.2533 40.3574 20.0492 40.3574 22.002C40.3574 25.5303 35.8208 28.5583 29.324 29.8875C28.9058 29.9696 28.6332 29.9697 28.5361 29.8576C28.4764 29.7904 28.4577 29.6784 28.5361 29.544C28.5772 29.4656 28.622 29.4059 28.7079 29.3088C32.2438 25.142 34.9396 19.0075 35.7013 17.2266C35.7536 17.1108 35.8171 16.9914 35.8656 16.9167M18.2943 16.7785C18.6229 16.0131 19.2016 14.3591 20.5197 13.702C20.9155 13.5041 21.4158 13.4145 21.8526 13.3995H22.058C25.6835 13.3995 29.0589 13.8924 31.9078 14.7474C32.1131 14.8109 32.5687 14.893 32.5687 15.188C32.5687 15.3187 32.494 15.4232 32.4006 15.5128C32.3596 15.5576 32.3036 15.6099 32.2177 15.6734C31.5568 16.2297 29.5555 17.6746 25.7918 19.1084C24.47 19.6236 22.8085 20.2434 21.0872 20.613C20.0679 20.8258 16.3042 21.3971 18.2943 16.7823M14.6763 14.1313C15.0982 14.0455 15.4156 14.0455 15.5126 14.1575C15.5724 14.221 15.5948 14.333 15.5126 14.4711C15.4641 14.5458 15.423 14.6093 15.3409 14.7101C11.8012 18.8731 9.1129 25.0113 8.34747 26.7811C8.28773 26.908 8.23172 27.0312 8.18691 27.1096C8.10477 27.2366 8.01516 27.3299 7.8434 27.3449C7.75753 27.3449 7.62684 27.3262 7.42895 27.2067C5.08786 25.7655 3.63541 23.9621 3.63541 22.0132C3.63541 18.4886 8.18318 15.4493 14.6725 14.1313" fill="white"/>
</mask>
<g mask="url(#mask0_11335_169581)">
<path d="M21.9958 32.0229C11.0782 32.0229 2.19922 27.5313 2.19922 22.0054C2.19922 16.4796 11.0782 11.9805 21.9958 11.9805C32.9135 11.9805 41.7925 16.4758 41.7925 22.0017C41.7925 27.5275 32.9135 32.0192 21.9958 32.0192M24.2361 23.0359C23.8366 23.0359 23.3885 23.0845 22.9256 23.1815C21.1968 23.5437 19.5502 24.1747 18.2247 24.675L18.1911 24.6862C14.1661 26.2207 12.2021 27.7329 11.698 28.1623L11.6121 28.2369C11.5711 28.2743 11.5337 28.3041 11.5076 28.334C11.4142 28.4236 11.2836 28.5767 11.2836 28.797C11.2836 29.2152 11.7876 29.3608 12.0565 29.4392L12.105 29.4504C15.0584 30.3278 18.4823 30.787 22.0033 30.787C22.0444 30.787 22.078 30.787 22.1116 30.787C22.1415 30.787 22.1751 30.787 22.2161 30.787C22.7053 30.7758 23.2243 30.6638 23.6275 30.466C24.897 29.835 25.4981 28.3788 25.8529 27.5089L25.9425 27.2886C26.6108 25.7428 26.7116 24.5891 26.2374 23.8685C25.8753 23.3085 25.1994 23.0322 24.2324 23.0322M36.244 16.4534H36.1731C35.9677 16.4684 35.7997 16.5841 35.6802 16.8081C35.6242 16.894 35.5533 17.0471 35.5122 17.1255C34.2875 20.0079 31.7485 25.3956 28.5487 29.1629C28.4628 29.2637 28.4068 29.3384 28.3545 29.4355C28.2201 29.6632 28.2836 29.8723 28.3844 29.988C28.474 30.0851 28.6233 30.1374 28.8362 30.1374C28.9743 30.1374 29.1461 30.1187 29.3626 30.0776C36.1656 28.6887 40.5603 25.5151 40.5603 21.9942C40.5603 20.0266 39.2311 18.1709 36.7182 16.6214C36.5353 16.5094 36.3859 16.4572 36.244 16.4572M15.1891 13.851C15.0323 13.851 14.8493 13.8734 14.6365 13.9183C7.83353 15.3035 3.43884 18.4771 3.43884 22.0054C3.43884 23.9507 4.78301 25.8063 7.3332 27.3745C7.52362 27.4902 7.69538 27.5462 7.84846 27.5462C8.13223 27.5238 8.27038 27.3595 8.36373 27.2176C8.4048 27.143 8.45334 27.0459 8.50188 26.9414L8.53548 26.8667C10.7384 21.7665 13.143 17.6109 15.499 14.8405C15.5961 14.721 15.6446 14.6538 15.6932 14.5754C15.8388 14.3364 15.7753 14.1273 15.667 14.0153C15.5812 13.9183 15.4243 13.866 15.1929 13.866M21.8465 13.1977C21.32 13.2163 20.816 13.3321 20.4314 13.5225C19.1694 14.1497 18.5719 15.5947 18.2135 16.4572L18.1127 16.7036C17.4443 18.2493 17.3435 19.3993 17.8177 20.1236C18.1836 20.68 18.8594 20.96 19.8265 20.96C20.226 20.96 20.6778 20.9077 21.1371 20.8144C22.7874 20.4634 24.3892 19.8809 25.8753 19.3022C29.8816 17.7752 31.8493 16.2593 32.3571 15.8336C32.4542 15.7627 32.5177 15.703 32.5625 15.6544C32.6596 15.5611 32.7791 15.4155 32.7791 15.1952C32.7791 14.7807 32.3049 14.6501 32.0472 14.5828L31.9688 14.5604C29.0079 13.6756 25.5803 13.2051 22.0593 13.2051H21.8465" fill="#003469"/>
<mask id="mask1_11335_169581" style="mask-type:luminance" maskUnits="userSpaceOnUse" x="2" y="11" width="40" height="22">
<path d="M21.9958 32.0307C11.0782 32.0307 2.19922 27.5391 2.19922 22.0132C2.19922 16.4874 11.0782 11.9883 21.9958 11.9883C32.9135 11.9883 41.7925 16.4836 41.7925 22.0095C41.7925 27.5354 32.9135 32.027 21.9958 32.027M24.2361 23.0437C23.8366 23.0437 23.3885 23.0923 22.9256 23.1893C21.1968 23.5515 19.5502 24.1825 18.2247 24.6828L18.1911 24.694C14.1661 26.2286 12.2021 27.7407 11.698 28.1701L11.6121 28.2448C11.5711 28.2821 11.5337 28.312 11.5076 28.3418C11.4142 28.4314 11.2836 28.5845 11.2836 28.8048C11.2836 29.223 11.7876 29.3686 12.0565 29.447L12.105 29.4582C15.0584 30.3356 18.4823 30.7949 22.0033 30.7949C22.0444 30.7949 22.078 30.7949 22.1116 30.7949C22.1415 30.7949 22.1751 30.7949 22.2161 30.7949C22.7053 30.7837 23.2243 30.6716 23.6275 30.4738C24.897 29.8428 25.4981 28.3866 25.8529 27.5167L25.9425 27.2964C26.6108 25.7507 26.7116 24.5969 26.2374 23.8763C25.8753 23.3163 25.1994 23.04 24.2324 23.04M36.244 16.4612H36.1731C35.9677 16.4762 35.7997 16.5919 35.6802 16.8159C35.6242 16.9018 35.5533 17.0549 35.5122 17.1333C34.2875 20.0157 31.7485 25.4034 28.5487 29.1707C28.4628 29.2715 28.4068 29.3462 28.3545 29.4433C28.2201 29.671 28.2836 29.8801 28.3844 29.9959C28.474 30.0929 28.6233 30.1452 28.8362 30.1452C28.9743 30.1452 29.1461 30.1265 29.3626 30.0855C36.1656 28.6965 40.5603 25.5229 40.5603 22.002C40.5603 20.0344 39.2311 18.1787 36.7182 16.6293C36.5353 16.5172 36.3859 16.465 36.244 16.465M15.1891 13.8589C15.0323 13.8589 14.8493 13.8813 14.6365 13.9261C7.83353 15.3113 3.43884 18.4849 3.43884 22.0132C3.43884 23.9585 4.78301 25.8141 7.3332 27.3823C7.52362 27.498 7.69538 27.554 7.84846 27.554C8.13223 27.5316 8.27038 27.3673 8.36373 27.2255C8.4048 27.1508 8.45334 27.0537 8.50188 26.9492L8.53548 26.8745C10.7384 21.7743 13.143 17.6187 15.499 14.8483C15.5961 14.7288 15.6446 14.6616 15.6932 14.5832C15.8388 14.3442 15.7753 14.1352 15.667 14.0231C15.5812 13.9261 15.4243 13.8738 15.1929 13.8738M21.8465 13.2055C21.32 13.2241 20.816 13.3399 20.4314 13.5303C19.1694 14.1576 18.5719 15.6025 18.2135 16.465L18.1127 16.7114C17.4443 18.2571 17.3435 19.4071 17.8177 20.1315C18.1836 20.6878 18.8594 20.9678 19.8265 20.9678C20.226 20.9678 20.6778 20.9155 21.1371 20.8222C22.7874 20.4712 24.3892 19.8888 25.8753 19.31C29.8816 17.783 31.8493 16.2671 32.3571 15.8414C32.4542 15.7705 32.5177 15.7108 32.5625 15.6622C32.6596 15.5689 32.7791 15.4233 32.7791 15.203C32.7791 14.7885 32.3049 14.6579 32.0472 14.5907L31.9688 14.5683C29.0079 13.6834 25.5803 13.2129 22.0593 13.2129H21.8465" fill="white"/>
</mask>
<g mask="url(#mask1_11335_169581)">
<path d="M21.9971 32.0026C11.0943 32.0026 2.22656 27.511 2.22656 21.9963C2.22656 16.4817 11.0943 11.9863 21.9971 11.9863C32.8998 11.9863 41.7713 16.4742 41.7713 21.9926C41.7713 27.511 32.9035 31.9989 21.9971 31.9989M24.2336 23.0231C23.8378 23.0231 23.3823 23.0754 22.9268 23.1725C21.198 23.5346 19.5551 24.1619 18.2371 24.6622L18.2035 24.6771C14.1822 26.2117 12.2257 27.7164 11.7216 28.1457L11.632 28.2241C11.5909 28.2615 11.5573 28.2876 11.5275 28.3175C11.4341 28.4108 11.3072 28.5602 11.3072 28.7842C11.3072 29.1986 11.8075 29.3442 12.0801 29.4226L12.1249 29.4376C15.0783 30.3113 18.4947 30.7742 22.012 30.7742C22.0568 30.7742 22.0867 30.7742 22.1203 30.7742C22.1501 30.7742 22.1837 30.7742 22.2248 30.7705C22.7139 30.763 23.2367 30.6436 23.6325 30.4494C24.8982 29.8147 25.4994 28.3623 25.8578 27.4923L25.9512 27.272C26.6158 25.7263 26.7166 24.5763 26.2461 23.8557C25.8802 23.3031 25.2081 23.0194 24.2411 23.0194M36.2378 16.4518H36.1668C35.9615 16.4668 35.7935 16.5825 35.6777 16.8065C35.618 16.8961 35.547 17.0455 35.5097 17.1239C34.2813 20.0026 31.746 25.3828 28.5536 29.1426C28.4677 29.2434 28.4117 29.3181 28.3595 29.4152C28.225 29.6467 28.2848 29.852 28.3893 29.9678C28.4789 30.0686 28.6283 30.1171 28.8374 30.1171C28.9755 30.1171 29.1473 30.0984 29.3638 30.0536C36.1594 28.6647 40.5466 25.4985 40.5466 21.9814C40.5466 20.0175 39.2248 18.1618 36.712 16.6161C36.5327 16.5041 36.3797 16.4518 36.2378 16.4518ZM15.209 13.8494C15.0559 13.8494 14.873 13.8718 14.6564 13.9166C7.84967 15.3018 3.46245 18.4717 3.46245 21.9963C3.46245 23.9416 4.80662 25.7935 7.34934 27.3616C7.5435 27.4737 7.71152 27.5259 7.87207 27.5259C8.15211 27.5073 8.29026 27.3392 8.37987 27.1974C8.42468 27.119 8.46948 27.0219 8.51802 26.9211L8.55163 26.8501C10.7508 21.7537 13.1517 17.6018 15.5077 14.8351C15.601 14.7194 15.6496 14.6484 15.6981 14.57C15.8437 14.3348 15.7765 14.1257 15.6683 14.01C15.5861 13.9129 15.4293 13.8606 15.1978 13.8606M21.8402 13.196C21.3138 13.2147 20.8097 13.3305 20.4289 13.5209C19.1706 14.1481 18.5694 15.5893 18.211 16.4518L18.1102 16.6945C17.4418 18.2403 17.3447 19.3902 17.8152 20.1108C18.1811 20.6634 18.8532 20.9472 19.8202 20.9472C20.216 20.9472 20.6678 20.8949 21.1271 20.8016C22.7774 20.4506 24.3755 19.8681 25.8578 19.2894C29.8567 17.7623 31.8244 16.2502 32.3322 15.8246C32.4256 15.7499 32.489 15.6976 32.5338 15.6416C32.6309 15.552 32.7541 15.4064 32.7541 15.1824C32.7541 14.7679 32.2799 14.6372 32.026 14.57L31.9476 14.5476C28.9867 13.6628 25.5703 13.196 22.0493 13.196H21.8365" fill="#003469"/>
<mask id="mask2_11335_169581" style="mask-type:luminance" maskUnits="userSpaceOnUse" x="2" y="11" width="40" height="22">
<path d="M22.001 32.0143C11.0983 32.0143 2.23047 27.5227 2.23047 22.0081C2.23047 16.4934 11.0983 11.998 22.001 11.998C32.9037 11.998 41.7752 16.4859 41.7752 22.0043C41.7752 27.5227 32.9074 32.0106 22.001 32.0106M24.2375 23.0348C23.8417 23.0348 23.3862 23.0871 22.9307 23.1842C21.2019 23.5463 19.5591 24.1736 18.241 24.6739L18.2074 24.6888C14.1861 26.2234 12.2296 27.7281 11.7255 28.1574L11.6359 28.2358C11.5948 28.2732 11.5612 28.2993 11.5314 28.3292C11.438 28.4225 11.3111 28.5719 11.3111 28.7959C11.3111 29.2103 11.8114 29.356 12.084 29.4344L12.1288 29.4493C15.0822 30.323 18.4986 30.786 22.0159 30.786C22.0607 30.786 22.0906 30.786 22.1242 30.786C22.154 30.786 22.1876 30.786 22.2287 30.7822C22.7178 30.7748 23.2406 30.6553 23.6364 30.4611C24.9021 29.8264 25.5033 28.374 25.8617 27.504L25.9551 27.2838C26.6197 25.738 26.7205 24.588 26.25 23.8674C25.8841 23.3149 25.212 23.0311 24.245 23.0311M36.2417 16.4635H36.1707C35.9654 16.4785 35.7974 16.5942 35.6816 16.8182C35.6219 16.9078 35.5509 17.0572 35.5136 17.1356C34.2852 20.0143 31.7499 25.3945 28.5575 29.1543C28.4716 29.2551 28.4156 29.3298 28.3634 29.4269C28.2289 29.6584 28.2887 29.8637 28.3932 29.9795C28.4828 30.0803 28.6322 30.1288 28.8413 30.1288C28.9794 30.1288 29.1512 30.1102 29.3678 30.0654C36.1633 28.6764 40.5505 25.5103 40.5505 21.9931C40.5505 20.0292 39.2287 18.1736 36.7159 16.6278C36.5367 16.5158 36.3836 16.4635 36.2417 16.4635ZM15.2129 13.8612C15.0598 13.8612 14.8769 13.8836 14.6603 13.9284C7.85358 15.3136 3.46636 18.4835 3.46636 22.0081C3.46636 23.9533 4.81053 25.8052 7.35325 27.3734C7.54741 27.4854 7.71543 27.5377 7.87598 27.5377C8.15601 27.519 8.29417 27.351 8.38378 27.2091C8.42858 27.1307 8.47339 27.0336 8.52193 26.9328L8.55553 26.8619C10.7547 21.7654 13.1556 17.6135 15.5116 14.8468C15.605 14.7311 15.6535 14.6602 15.702 14.5818C15.8476 14.3465 15.7804 14.1374 15.6722 14.0217C15.59 13.9246 15.4332 13.8724 15.2017 13.8724M21.8441 13.2078C21.3177 13.2264 20.8136 13.3422 20.4328 13.5326C19.1745 14.1599 18.5733 15.6011 18.2149 16.4635L18.1141 16.7062C17.4457 18.252 17.3486 19.4019 17.8191 20.1225C18.185 20.6751 18.8571 20.9589 19.8242 20.9589C20.2199 20.9589 20.6717 20.9066 21.131 20.8133C22.7813 20.4623 24.3794 19.8799 25.8617 19.3011C29.8606 17.7741 31.8283 16.2619 32.3361 15.8363C32.4295 15.7616 32.4929 15.7093 32.5378 15.6533C32.6348 15.5637 32.758 15.4181 32.758 15.1941C32.758 14.7796 32.2839 14.649 32.03 14.5818L31.9515 14.5594C28.9906 13.6745 25.5742 13.2078 22.0532 13.2078H21.8404" fill="white"/>
</mask>
<g mask="url(#mask2_11335_169581)">
<path d="M21.9993 32.2026C33.0327 32.2026 41.9751 27.6325 41.9751 21.9909C41.9751 16.3493 33.0327 11.7793 21.9993 11.7793C10.9659 11.7793 2.02344 16.3531 2.02344 21.9947C2.02344 27.6363 10.9734 32.2063 21.9993 32.2063M25.7592 27.2032C25.4344 27.9686 24.8556 29.6189 23.5413 30.2722C23.1456 30.4664 22.649 30.5635 22.2046 30.5747C22.1076 30.5821 22.0404 30.5747 22.0068 30.5747C18.3252 30.5747 14.8827 30.0669 12.0151 29.2007L11.9292 29.1596C11.6455 29.07 11.5073 28.9431 11.5073 28.79C11.5073 28.663 11.5745 28.5622 11.6716 28.4689C11.7127 28.4278 11.7724 28.3793 11.8508 28.3121C12.5117 27.752 14.5167 26.3108 18.2767 24.8771C19.5947 24.373 21.2451 23.7458 22.9738 23.3799C23.9969 23.167 27.7531 22.5958 25.763 27.2069M35.8592 16.9131C35.9264 16.7862 36.0235 16.6816 36.1915 16.6742C36.2886 16.6592 36.408 16.6854 36.6059 16.8048C38.9508 18.2498 40.3397 20.0419 40.3397 21.9947C40.3397 25.5193 35.8069 28.5435 29.3213 29.8653C28.9031 29.9511 28.6305 29.9511 28.5372 29.8391C28.4737 29.7719 28.455 29.6599 28.5372 29.5218C28.5783 29.4471 28.6231 29.3874 28.7052 29.2866C32.2374 25.1272 34.9332 19.0002 35.6912 17.223C35.7472 17.1073 35.8069 16.9878 35.8592 16.9094M18.3066 16.7712C18.6389 16.0096 19.2101 14.3555 20.5282 13.6984C20.9277 13.5005 21.4205 13.4109 21.8611 13.3922H22.0665C25.7518 13.3922 29.1757 13.9038 32.0507 14.7812L32.1627 14.8148C32.4278 14.9044 32.5585 15.0239 32.5697 15.1732C32.5697 15.3076 32.4987 15.4047 32.4017 15.498C32.3606 15.5429 32.3046 15.5914 32.2187 15.6549C31.5541 16.2149 29.5602 17.6561 25.8003 19.0861C24.4785 19.6014 22.8207 20.2249 21.0994 20.5871C20.0764 20.8036 16.3202 21.3711 18.3103 16.76M14.696 14.1129C15.1179 14.027 15.4353 14.027 15.5323 14.1427C15.5921 14.2062 15.6145 14.3182 15.5323 14.4563C15.4875 14.5273 15.4427 14.5945 15.3643 14.6953C11.8284 18.8509 9.1438 24.9853 8.37837 26.7514C8.32237 26.8783 8.25889 27.0015 8.21782 27.0762C8.13941 27.2032 8.0498 27.3002 7.87804 27.3114C7.78843 27.3114 7.66148 27.289 7.46359 27.1733C5.12249 25.7321 3.67005 23.9287 3.67005 21.9835C3.67005 18.4626 8.21409 15.4271 14.6922 14.1091" fill="#003469"/>
<path d="M21.9993 32.2026C33.0327 32.2026 41.9751 27.6325 41.9751 21.9909C41.9751 16.3493 33.0327 11.7793 21.9993 11.7793C10.9659 11.7793 2.02344 16.3531 2.02344 21.9947C2.02344 27.6363 10.9734 32.2063 21.9993 32.2063M25.7592 27.2032C25.4344 27.9686 24.8556 29.6189 23.5413 30.2722C23.1456 30.4664 22.649 30.5635 22.2046 30.5747C22.1076 30.5821 22.0404 30.5747 22.0068 30.5747C18.3252 30.5747 14.8827 30.0669 12.0151 29.2007L11.9292 29.1596C11.6455 29.07 11.5073 28.9431 11.5073 28.79C11.5073 28.663 11.5745 28.5622 11.6716 28.4689C11.7127 28.4278 11.7724 28.3793 11.8508 28.3121C12.5117 27.752 14.5167 26.3108 18.2767 24.8771C19.5947 24.373 21.2451 23.7458 22.9738 23.3799C23.9969 23.167 27.7531 22.5958 25.763 27.2069M35.8592 16.9131C35.9264 16.7862 36.0235 16.6816 36.1915 16.6742C36.2886 16.6592 36.408 16.6854 36.6059 16.8048C38.9508 18.2498 40.3397 20.0419 40.3397 21.9947C40.3397 25.5193 35.8069 28.5435 29.3213 29.8653C28.9031 29.9511 28.6305 29.9511 28.5372 29.8391C28.4737 29.7719 28.455 29.6599 28.5372 29.5218C28.5783 29.4471 28.6231 29.3874 28.7052 29.2866C32.2374 25.1272 34.9332 19.0002 35.6912 17.223C35.7472 17.1073 35.8069 16.9878 35.8592 16.9094M18.3066 16.7712C18.6389 16.0096 19.2101 14.3555 20.5282 13.6984C20.9277 13.5005 21.4205 13.4109 21.8611 13.3922H22.0665C25.7518 13.3922 29.1757 13.9038 32.0507 14.7812L32.1627 14.8148C32.4278 14.9044 32.5585 15.0239 32.5697 15.1732C32.5697 15.3076 32.4987 15.4047 32.4017 15.498C32.3606 15.5429 32.3046 15.5914 32.2187 15.6549C31.5541 16.2149 29.5602 17.6561 25.8003 19.0861C24.4785 19.6014 22.8207 20.2249 21.0994 20.5871C20.0764 20.8036 16.3202 21.3711 18.3103 16.76M14.696 14.1129C15.1179 14.027 15.4353 14.027 15.5323 14.1427C15.5921 14.2062 15.6145 14.3182 15.5323 14.4563C15.4875 14.5273 15.4427 14.5945 15.3643 14.6953C11.8284 18.8509 9.1438 24.9853 8.37837 26.7514C8.32237 26.8783 8.25889 27.0015 8.21782 27.0762C8.13941 27.2032 8.0498 27.3002 7.87804 27.3114C7.78843 27.3114 7.66148 27.289 7.46359 27.1733C5.12249 25.7321 3.67005 23.9287 3.67005 21.9835C3.67005 18.4626 8.21409 15.4271 14.6922 14.1091" fill="#003469"/>
<path d="M21.9993 32.2026C33.0327 32.2026 41.9751 27.6325 41.9751 21.9909C41.9751 16.3493 33.0327 11.7793 21.9993 11.7793C10.9659 11.7793 2.02344 16.3531 2.02344 21.9947C2.02344 27.6363 10.9734 32.2063 21.9993 32.2063M25.7592 27.2032C25.4344 27.9686 24.8556 29.6189 23.5413 30.2722C23.1456 30.4664 22.649 30.5635 22.2046 30.5747C22.1076 30.5821 22.0404 30.5747 22.0068 30.5747C18.3924 30.5747 15.0171 30.0856 12.1757 29.2455C11.9666 29.1857 11.5036 29.07 11.5036 28.79C11.5036 28.663 11.5708 28.5622 11.6679 28.4689C11.7089 28.4278 11.7687 28.3793 11.8471 28.3121C12.508 27.752 14.513 26.3108 18.273 24.8771C19.591 24.373 21.2413 23.7458 22.9701 23.3799C23.9931 23.167 27.7493 22.5958 25.7592 27.2069M35.8554 16.9131C35.9226 16.7862 36.0197 16.6816 36.1877 16.6742C36.2848 16.6592 36.4043 16.6854 36.6022 16.8048C38.9508 18.2498 40.3397 20.0419 40.3397 21.9947C40.3397 25.5193 35.8069 28.5435 29.3213 29.8653C28.9031 29.9511 28.6305 29.9511 28.5372 29.8391C28.4737 29.7719 28.455 29.6599 28.5372 29.5218C28.5783 29.4471 28.6231 29.3874 28.7052 29.2866C32.2374 25.1272 34.9332 19.0002 35.6912 17.223C35.7472 17.1073 35.8069 16.9878 35.8592 16.9131M18.3066 16.775C18.6389 16.0096 19.2101 14.3593 20.5282 13.7021C20.9277 13.5043 21.4205 13.4147 21.8611 13.396H22.0628C25.6883 13.396 29.0599 13.8888 31.9013 14.7438C32.1104 14.8036 32.566 14.8895 32.566 15.1807C32.566 15.3151 32.495 15.4122 32.3979 15.5055C32.3569 15.5503 32.3009 15.5989 32.215 15.6623C31.5541 16.2224 29.5565 17.6636 25.7966 19.0936C24.4748 19.6088 22.817 20.2324 21.0957 20.5945C20.0726 20.8111 16.3164 21.3786 18.3066 16.7675M14.6922 14.1203C15.1142 14.0344 15.4315 14.0344 15.5286 14.1502C15.5883 14.2137 15.6108 14.3257 15.5286 14.4638C15.4838 14.5348 15.439 14.602 15.3569 14.7028C11.8247 18.8584 9.13633 24.9928 8.37464 26.7588C8.31863 26.8858 8.25516 27.009 8.21409 27.0837C8.13567 27.2106 8.04606 27.3077 7.87431 27.3189C7.7847 27.3189 7.65401 27.2965 7.45986 27.1808C5.11876 25.7395 3.66631 23.9362 3.66631 21.9909C3.66631 18.4701 8.21035 15.4346 14.6885 14.1166" fill="#003469"/>
</g>
</g>
<mask id="mask3_11335_169581" style="mask-type:luminance" maskUnits="userSpaceOnUse" x="20" y="22" width="13" height="10">
<path d="M20.6992 22.2402H32.3002V31.8806H20.6992V22.2402Z" fill="white"/>
</mask>
<g mask="url(#mask3_11335_169581)">
<mask id="mask4_11335_169581" style="mask-type:luminance" maskUnits="userSpaceOnUse" x="20" y="22" width="12" height="10">
<path d="M31.1709 22.6229L28.4788 23.5302C28.4788 23.5563 28.4788 23.5787 28.4788 23.6048C28.4788 23.7355 28.4713 23.8662 28.4601 24.0006C28.3743 24.8967 28.027 25.8413 27.7806 26.476C27.4819 27.2564 27.1197 28.0106 26.7165 28.7424C26.7052 28.7611 26.6978 28.7797 26.6866 28.7984C26.246 29.5899 25.7681 30.374 25.2117 31.0871C25.1595 31.1469 25.0922 31.2029 25.0101 31.2477C24.8159 31.3485 24.5322 31.4082 24.1476 31.4306C23.4419 31.468 22.7325 31.4904 22.0119 31.4904H21.9745C21.6198 31.4904 21.2688 31.4866 20.9141 31.4754L20.873 31.5427C21.2502 31.5539 21.631 31.5576 22.0156 31.5576C25.0997 31.5576 28.0681 31.1992 30.7415 30.5159L30.7751 30.4412C29.289 30.8183 27.7096 31.0983 26.0705 31.2738C25.9921 31.2813 25.9137 31.2888 25.839 31.2962H25.8278C25.7569 31.2962 25.7046 31.2813 25.671 31.2552C25.671 31.2552 25.6449 31.2141 25.6449 31.188C25.6449 31.1581 25.6598 31.1207 25.6859 31.0797C25.8427 30.837 26.007 30.5943 26.1713 30.3516C26.5746 29.7617 26.9965 29.183 27.4072 28.5968C27.5267 28.4288 27.6424 28.2607 27.7582 28.089C28.9866 26.2819 30.1105 24.4673 31.1671 22.6191" fill="white"/>
</mask>
<g mask="url(#mask4_11335_169581)">
<path d="M31.1709 22.6191H20.873V31.5539H31.1709V22.6191Z" fill="url(#paint0_linear_11335_169581)"/>
</g>
</g>
<path d="M21.4471 20.5102C21.3276 20.5401 21.2044 20.5662 21.0887 20.5924C20.5435 20.7081 19.2068 20.9246 18.3929 20.3907C17.6872 19.9278 17.3698 18.901 18.2958 16.7616C18.6057 16.0447 19.1284 14.54 20.2859 13.8194L19.0127 12.7441C18.9305 12.7927 18.8596 12.8412 18.8073 12.9047C18.2547 13.6178 17.7731 14.4019 17.3325 15.1934C16.918 15.9439 16.5446 16.7168 16.2385 17.5158C15.992 18.1468 15.6448 19.0989 15.5589 19.9912C15.4618 20.9993 15.6971 21.9402 16.7985 22.2725C16.8695 22.2949 16.9591 22.321 17.0562 22.3472C17.6984 22.504 18.9231 22.6272 21.6898 21.8842L21.4434 20.5139" fill="#003469"/>
<path d="M34.5475 14.9355L32.5723 15.1446V15.1596C32.5723 15.2902 32.5014 15.3948 32.408 15.4881C32.367 15.5292 32.3109 15.5815 32.2251 15.6449C31.5642 16.2013 29.5629 17.6462 25.7992 19.0837C24.8919 19.4384 23.8165 19.8416 22.674 20.1814C22.2745 20.3009 21.8675 20.4129 21.453 20.5062C21.3336 20.5361 21.2103 20.5622 21.0946 20.5883C20.5793 20.6966 19.3845 20.8908 18.5668 20.4801L16.8418 22.276C16.909 22.2984 16.9837 22.317 17.0696 22.3394C17.7118 22.4963 18.9365 22.6195 21.7032 21.8765C22.9578 21.5367 24.5297 21.0177 26.5086 20.2411C29.8914 18.9157 33.853 16.6456 34.54 15.0588C34.5587 15.014 34.5624 14.9766 34.555 14.9393" fill="#003469"/>
<path d="M7.85273 27.3372C7.76685 27.3372 7.6399 27.3148 7.43828 27.1991C5.09718 25.7579 3.64473 23.9545 3.64473 22.0055C3.64473 18.4809 8.19251 15.4417 14.6819 14.1237C15.1038 14.0378 15.4212 14.0378 15.5182 14.1498L15.5481 14.1984L18.3671 12.7758C18.3485 12.7273 18.2812 12.7012 18.1842 12.7012C14.4168 13.0783 10.963 14.008 8.19624 15.4156C4.6678 17.2152 2.71875 19.5525 2.71875 22.0018C2.71875 24.4511 4.6678 26.7958 8.20371 28.5917C8.36053 28.6702 8.52108 28.7486 8.6779 28.8232C8.77871 28.868 8.87579 28.8718 8.9542 28.8419L7.99088 27.3036C7.95354 27.3223 7.91247 27.3335 7.8602 27.3372" fill="#003469"/>
<path d="M27.2195 21.7128C26.4429 21.4776 24.5274 20.9848 17.5228 23.744C14.14 25.0657 10.1747 27.3395 9.49141 28.9263C9.46901 28.9861 9.46901 29.0346 9.49141 29.0831L11.5002 28.8516L11.4927 28.7994C11.4927 28.6724 11.5599 28.5716 11.657 28.4783C11.6981 28.4372 11.7578 28.3887 11.8362 28.3215C12.4971 27.7651 14.5059 26.3165 18.2696 24.8827C19.5876 24.3787 21.2417 23.7477 22.9742 23.3855C23.9935 23.169 27.7572 22.6014 25.7633 27.2163C25.4422 27.9742 24.871 29.5872 23.594 30.2592L25.0091 31.2449C25.0912 31.2001 25.1585 31.1479 25.2107 31.0844C25.7671 30.3713 26.245 29.5834 26.6856 28.7956C27.1 28.0452 27.4734 27.2723 27.7796 26.4733C28.026 25.8386 28.3733 24.8939 28.4591 23.9978C28.5599 22.9898 28.321 22.0489 27.2158 21.7166" fill="#003469"/>
<path d="M23.5384 30.2912C23.1426 30.4853 22.646 30.5824 22.198 30.5899C22.1046 30.5973 22.0337 30.5899 22.0001 30.5899C18.3111 30.5899 14.8685 30.0821 11.9972 29.2121L11.9113 29.1748C11.6574 29.0926 11.5193 28.9881 11.4932 28.8574L9.48438 29.0889C9.52545 29.1748 9.63373 29.2457 9.76814 29.3055C13.2182 30.7205 17.4934 31.4897 22.0076 31.4897C22.7244 31.4897 23.4339 31.4673 24.1433 31.4299C24.5316 31.4075 24.8116 31.3478 25.0058 31.247L23.5907 30.2613L23.5384 30.2912Z" fill="#003469"/>
<path d="M28.5404 29.5523C28.5815 29.4738 28.6263 29.4141 28.7122 29.317C32.2481 25.1502 34.9439 19.0121 35.7056 17.2348C35.7579 17.1191 35.8213 16.9996 35.8699 16.9249C35.9259 16.8241 35.9931 16.7382 36.1088 16.7009L35.0783 15.1738C35.0186 15.2 34.97 15.241 34.9476 15.297C32.8306 19.8409 30.5604 23.9853 27.7638 28.1073C27.0842 29.1079 26.3487 30.0824 25.6878 31.098C25.6355 31.1764 25.6355 31.2361 25.6729 31.2735L28.5217 29.8435C28.4769 29.7763 28.4695 29.6755 28.5404 29.5523Z" fill="#003469"/>
<path d="M20.5223 13.7051C20.9181 13.5072 21.4184 13.4176 21.8553 13.4026H22.0606C25.7496 13.4026 29.1773 13.9104 32.0598 14.7953L32.1718 14.8289C32.4294 14.9148 32.5601 15.0305 32.575 15.1724L34.5502 14.9633C34.5278 14.8588 34.4083 14.7766 34.2552 14.7057C30.8052 13.2944 26.53 12.5215 22.0121 12.5215C21.2952 12.5215 20.5858 12.5439 19.8838 12.5812C19.4955 12.6036 19.2117 12.6634 19.0176 12.7679L20.2908 13.8432C20.3655 13.7947 20.4439 13.7499 20.5223 13.7088" fill="#003469"/>
<path d="M41.3061 21.994C41.3061 19.541 39.3571 17.2037 35.8249 15.4041C35.6718 15.3256 35.5112 15.2472 35.3507 15.1688C35.2499 15.124 35.1565 15.1203 35.0781 15.1502L36.1087 16.6772C36.1385 16.666 36.1721 16.6586 36.2095 16.6586C36.3028 16.6436 36.426 16.6735 36.6202 16.7892C38.9725 18.2379 40.3652 20.0338 40.3652 21.9865C40.3652 22.0537 40.3652 22.1247 40.3615 22.1919H41.3061C41.3061 22.1247 41.3098 22.0537 41.3098 21.9865" fill="#003469"/>
<path d="M40.3569 22.201C40.1852 25.6397 35.6971 28.5931 29.3273 29.8961C28.9091 29.9783 28.6365 29.9783 28.5394 29.8663L28.5208 29.8401L25.6719 31.2701C25.7092 31.3 25.7615 31.3149 25.8399 31.3112C29.6036 30.9341 33.0611 30.0044 35.8241 28.5968C39.2629 26.8494 41.197 24.5719 41.3016 22.1973H40.3569" fill="#003469"/>
<mask id="mask5_11335_169581" style="mask-type:luminance" maskUnits="userSpaceOnUse" x="31" y="14" width="4" height="3">
<path d="M31.9609 14.1699H34.5522V16.1226H31.9609V14.1699Z" fill="white"/>
</mask>
<g mask="url(#mask5_11335_169581)">
<path d="M34.5464 14.9588L32.5712 15.1679C32.5712 15.1679 32.5712 15.1791 32.5712 15.1828V15.1903C32.5712 15.3172 32.4965 15.4181 32.4032 15.5077C32.392 15.5189 32.3845 15.5263 32.3696 15.5375C32.3323 15.5749 32.2837 15.6159 32.2202 15.6645C32.2202 15.6645 32.1904 15.6906 32.1717 15.7055C32.1344 15.7392 32.0896 15.7728 32.041 15.8101L33.7324 16.1125C34.1095 15.7466 34.3858 15.3957 34.5277 15.0746C34.5389 15.0447 34.5464 15.0186 34.5464 14.9924C34.5464 14.9812 34.5464 14.9663 34.5427 14.9551" fill="url(#paint1_linear_11335_169581)"/>
<path d="M32.8105 14.1699L31.9629 14.7636C31.9629 14.7636 31.9666 14.7636 31.9704 14.7636C32.1907 14.8233 32.5603 14.9129 32.5752 15.1705L34.5504 14.9615C34.528 14.8569 34.4085 14.7748 34.2554 14.7038C33.7887 14.5172 33.3071 14.3379 32.8105 14.1699Z" fill="url(#paint2_linear_11335_169581)"/>
</g>
<path d="M9.47266 29.0059C9.47266 29.0357 9.47639 29.0619 9.48759 29.0843C9.48012 29.0619 9.47266 29.0395 9.47266 29.0133V29.0059Z" fill="#003468"/>
<mask id="mask6_11335_169581" style="mask-type:luminance" maskUnits="userSpaceOnUse" x="9" y="27" width="4" height="3">
<path d="M9.47266 27.7559H12.1498V29.7982H9.47266V27.7559Z" fill="white"/>
</mask>
<g mask="url(#mask6_11335_169581)">
<path d="M9.77136 29.3133C10.2007 29.4925 10.6488 29.6605 11.1081 29.8136C10.6488 29.6568 10.2045 29.4888 9.77136 29.3133ZM9.49132 28.9362C9.48012 28.9661 9.47266 28.9922 9.47266 29.0146C9.47266 28.9885 9.48012 28.9661 9.49132 28.9362Z" fill="url(#paint3_linear_11335_169581)"/>
<path d="M10.4173 27.7596C10.2642 27.9015 10.1261 28.0396 10.0029 28.174C9.76763 28.4354 9.59587 28.6855 9.49132 28.9208C9.48012 28.9506 9.47266 28.9768 9.47266 28.9992V29.0066C9.47266 29.029 9.48012 29.0552 9.48759 29.0776L11.4964 28.8461C11.4964 28.8461 11.4926 28.8125 11.4926 28.7938C11.4926 28.6669 11.5599 28.5661 11.6569 28.4727C11.698 28.4317 11.7577 28.3831 11.8362 28.3159C11.8362 28.3159 11.866 28.2898 11.8847 28.2748C11.9332 28.2338 11.9892 28.189 12.049 28.1404L10.4173 27.7559" fill="url(#paint4_linear_11335_169581)"/>
<path d="M11.4971 28.8496L9.48828 29.0811C9.52935 29.167 9.63763 29.2379 9.77205 29.2977C10.2052 29.4769 10.6532 29.6411 11.1088 29.798L12.1468 29.2491C12.0198 29.2118 11.8182 29.1595 11.6726 29.0662C11.6091 29.0288 11.5568 28.9803 11.5232 28.9205C11.512 28.8981 11.5008 28.8757 11.4971 28.8496Z" fill="url(#paint5_linear_11335_169581)"/>
</g>
<mask id="mask7_11335_169581" style="mask-type:luminance" maskUnits="userSpaceOnUse" x="34" y="15" width="3" height="3">
<path d="M34.4297 15.1543H36.9351V17.4057H34.4297V15.1543Z" fill="white"/>
</mask>
<g mask="url(#mask7_11335_169581)">
<path d="M35.1839 15.1543C35.1466 15.1543 35.1092 15.1618 35.0756 15.173C35.0159 15.1991 34.9674 15.2402 34.945 15.2962C34.7732 15.6621 34.6014 16.028 34.4297 16.3864C34.6014 16.0242 34.7732 15.6621 34.945 15.2962C34.9674 15.2402 35.0159 15.1991 35.0756 15.173C35.1092 15.158 35.1466 15.1543 35.1839 15.1543C35.2362 15.1543 35.2922 15.1655 35.3482 15.1916C35.5088 15.2663 35.6693 15.3447 35.8224 15.4269C35.6693 15.3484 35.5088 15.27 35.3482 15.1916C35.2922 15.1655 35.2362 15.1543 35.1839 15.1543Z" fill="url(#paint6_linear_11335_169581)"/>
<path d="M35.0756 15.1699C35.0159 15.1961 34.9674 15.2371 34.945 15.2931C34.7732 15.659 34.6014 16.0212 34.4297 16.3834L35.6282 17.4027C35.6282 17.4027 35.6394 17.3765 35.6469 17.3653C35.6656 17.3205 35.6842 17.2757 35.7029 17.2347C35.7552 17.1189 35.8187 16.9994 35.8672 16.9248C35.8859 16.8874 35.9083 16.8538 35.9344 16.8202C35.9531 16.7941 35.9755 16.7717 36.0016 16.753C36.0315 16.7306 36.0651 16.7119 36.1062 16.697L35.9867 16.5215L35.0756 15.1699Z" fill="url(#paint7_linear_11335_169581)"/>
<path d="M35.1845 15.1543C35.1471 15.1543 35.1098 15.1618 35.0762 15.173L35.9872 16.5246L36.1067 16.7C36.1067 16.7 36.1216 16.6963 36.1291 16.6926C36.1515 16.6851 36.1776 16.6814 36.2075 16.6814C36.2075 16.6814 36.2374 16.6814 36.2523 16.6814C36.3419 16.6814 36.4539 16.715 36.6145 16.8158C36.6892 16.8643 36.7676 16.9091 36.8385 16.9577L36.9356 16.0429C36.8012 15.9608 36.6593 15.8786 36.5174 15.8002C36.2934 15.6733 36.0619 15.5501 35.8229 15.4269C35.6698 15.3484 35.5093 15.27 35.3487 15.1916C35.2927 15.1655 35.2367 15.1543 35.1845 15.1543Z" fill="url(#paint8_linear_11335_169581)"/>
</g>
<mask id="mask8_11335_169581" style="mask-type:luminance" maskUnits="userSpaceOnUse" x="18" y="12" width="4" height="3">
<path d="M18.1328 12.502H21.3514V14.716H18.1328V12.502Z" fill="white"/>
</mask>
<g mask="url(#mask8_11335_169581)">
<path d="M19.014 12.7598C18.9318 12.8083 18.8609 12.8568 18.8086 12.9203C18.5734 13.2265 18.3456 13.5476 18.1328 13.8761L19.3426 14.7312C19.4434 14.593 19.5517 14.4623 19.6711 14.3391C19.8541 14.1487 20.0557 13.9732 20.2835 13.8313L19.014 12.7598Z" fill="url(#paint9_linear_11335_169581)"/>
<path d="M21.3493 12.502C20.8564 12.5094 20.3635 12.5281 19.8819 12.5542C19.4936 12.5766 19.2098 12.6364 19.0156 12.7409L20.2851 13.8125C20.3598 13.7639 20.4382 13.7191 20.5203 13.6781C20.7705 13.5549 21.0617 13.4727 21.3493 13.4242V12.502Z" fill="url(#paint10_linear_11335_169581)"/>
</g>
<mask id="mask9_11335_169581" style="mask-type:luminance" maskUnits="userSpaceOnUse" x="19" y="27" width="8" height="5">
<path d="M19.8105 27.8418H26.8002V31.5083H19.8105V27.8418Z" fill="white"/>
</mask>
<g mask="url(#mask9_11335_169581)">
<path d="M25.5094 27.8418C25.3525 28.2077 25.1509 28.6296 24.8858 29.0291C24.561 29.522 24.1465 29.9849 23.5977 30.2762L25.009 31.2619C25.0912 31.2171 25.1584 31.1648 25.2107 31.1013C25.767 30.3882 26.2449 29.6004 26.6855 28.8126C26.6855 28.8126 26.7042 28.7752 26.7154 28.7566C26.7415 28.7043 26.7677 28.652 26.7975 28.5997L25.5056 27.8418" fill="url(#paint11_linear_11335_169581)"/>
<path d="M23.5966 30.2987C23.5966 30.2987 23.5593 30.3173 23.5406 30.3285C23.1448 30.5227 22.6482 30.6198 22.2002 30.6272C22.1666 30.6272 22.1404 30.6272 22.1143 30.6272C22.062 30.6272 22.0247 30.6272 22.006 30.6272C21.3227 30.6272 20.6469 30.6086 19.9786 30.5749L19.8105 31.4598C20.5237 31.5009 21.2443 31.5233 21.9724 31.5233H22.0098C22.7266 31.5233 23.4361 31.5009 24.1455 31.4636C24.5338 31.4412 24.8138 31.3814 25.008 31.2806L23.5966 30.2949" fill="url(#paint12_linear_11335_169581)"/>
</g>
<path d="M15.5489 14.1821C15.5825 14.2456 15.5825 14.3427 15.519 14.4472C15.4705 14.5219 15.4294 14.5854 15.3473 14.6862C11.8114 18.8492 9.11928 24.9874 8.35385 26.7572C8.29411 26.8841 8.2381 27.0073 8.1933 27.0858C8.13729 27.1716 8.07381 27.25 7.98047 27.2874L8.94379 28.8256C9.00353 28.8032 9.04834 28.7622 9.07447 28.6987C11.1915 24.1623 13.458 20.0104 16.2546 15.8922C16.9379 14.8915 17.6734 13.917 18.3306 12.9015C18.3679 12.8417 18.3791 12.7932 18.3642 12.7559L15.5452 14.1784" fill="#003469"/>
<mask id="mask10_11335_169581" style="mask-type:luminance" maskUnits="userSpaceOnUse" x="6" y="26" width="4" height="3">
<path d="M6.89062 26.2598H9.84406V28.8509H6.89062V26.2598Z" fill="white"/>
</mask>
<g mask="url(#mask10_11335_169581)">
<path d="M8.46748 26.5215C8.46748 26.5215 8.46375 26.529 8.46001 26.5364C8.42268 26.6223 8.38907 26.7044 8.35547 26.7754C8.38907 26.7007 8.42641 26.6148 8.46375 26.5215" fill="url(#paint13_linear_11335_169581)"/>
<path d="M7.49609 28.1855C7.72012 28.3125 7.95535 28.4394 8.19805 28.5627C7.95535 28.4394 7.72386 28.3162 7.49609 28.1855Z" fill="url(#paint14_linear_11335_169581)"/>
<path d="M6.89062 26.8455L6.96903 27.9059C7.14079 28.0104 7.31254 28.115 7.4955 28.2158C7.72326 28.3427 7.95476 28.4697 8.19746 28.5929C8.35428 28.6713 8.51483 28.7497 8.67165 28.8244C8.72766 28.8505 8.78366 28.8617 8.83594 28.8617C8.87701 28.8617 8.91435 28.8543 8.94795 28.8393L7.98463 27.301C7.96596 27.3085 7.94356 27.316 7.92115 27.3234C7.89875 27.3272 7.87635 27.3309 7.85021 27.3346C7.76434 27.3346 7.63365 27.316 7.43576 27.1965C7.33121 27.133 7.2304 27.0696 7.12959 27.0023C7.04744 26.9501 6.96903 26.8978 6.89062 26.8418" fill="url(#paint15_linear_11335_169581)"/>
<path d="M8.57075 26.2598C8.53342 26.3456 8.49608 26.4278 8.46621 26.5025C8.42514 26.5958 8.39153 26.6779 8.35793 26.7563C8.35793 26.7563 8.35793 26.7563 8.35793 26.7601C8.29819 26.887 8.24218 27.0102 8.19737 27.0886C8.14137 27.1783 8.07789 27.2529 7.98828 27.2903L8.9516 28.8285C9.01134 28.8061 9.05615 28.7651 9.08229 28.7016C9.33618 28.1602 9.59008 27.6226 9.84772 27.0924L8.57449 26.2598" fill="url(#paint16_linear_11335_169581)"/>
</g>
<path d="M18.3751 12.8262V12.8336C18.3751 12.8635 18.3601 12.8971 18.334 12.9382C18.3601 12.8971 18.3751 12.8598 18.3751 12.8299" fill="#003468"/>
<mask id="mask11_11335_169581" style="mask-type:luminance" maskUnits="userSpaceOnUse" x="14" y="12" width="5" height="3">
<path d="M14.3184 12.7246H18.377V14.8043H14.3184V12.7246Z" fill="white"/>
</mask>
<g mask="url(#mask11_11335_169581)">
<path d="M18.194 12.7239H18.1866C17.1 12.8322 16.0434 12.989 15.0203 13.1869L14.3184 14.2211C14.4378 14.195 14.5573 14.1689 14.6805 14.1465C14.8784 14.1054 15.0502 14.0867 15.1921 14.0867C15.3078 14.0867 15.3974 14.1016 15.4572 14.1315C15.4572 14.1315 15.4758 14.1427 15.4833 14.1502C15.4833 14.1502 15.4833 14.1502 15.487 14.1539C15.487 14.1539 15.5094 14.1838 15.5206 14.2025L18.3397 12.7837C18.321 12.7351 18.2575 12.709 18.1642 12.709" fill="url(#paint17_linear_11335_169581)"/>
<path d="M17.4206 14.307C17.2974 14.4788 17.1779 14.6505 17.0547 14.8223C17.1742 14.6505 17.2974 14.4788 17.4206 14.307Z" fill="url(#paint18_linear_11335_169581)"/>
<path d="M18.3712 12.818L15.5522 14.2368C15.5671 14.263 15.5746 14.2966 15.5746 14.3302C15.5746 14.3824 15.5597 14.4384 15.5186 14.5019C15.4701 14.5766 15.429 14.6401 15.3469 14.7409L15.2871 14.8155H17.0569C17.1801 14.6438 17.3034 14.472 17.4228 14.3003C17.505 14.1845 17.5871 14.0688 17.6655 13.9531C17.897 13.6245 18.1211 13.2922 18.3414 12.9562C18.3675 12.9151 18.3787 12.8815 18.3824 12.8516V12.8442C18.3824 12.8442 18.3824 12.8217 18.375 12.8105" fill="url(#paint19_linear_11335_169581)"/>
</g>
<path d="M21.9983 11.7754C10.9537 11.7754 2 16.3529 2 21.9982C2 27.6436 10.9537 32.2248 21.9983 32.2248C33.0429 32.2248 42.0002 27.6473 42.0002 21.9982C42.0002 16.3492 33.0466 11.7754 21.9983 11.7754ZM35.8432 28.633C32.1617 30.5185 27.248 31.5565 22.0132 31.5565C16.7784 31.5565 11.8647 30.5185 8.17945 28.633C4.64727 26.8259 2.69449 24.4699 2.69449 22.002C2.69449 19.534 4.64727 17.1818 8.18318 15.3709C11.8684 13.4892 16.7784 12.4512 22.0169 12.4512C27.2555 12.4512 32.1654 13.4892 35.8469 15.3709C39.3866 17.1818 41.3356 19.534 41.3356 22.002C41.3356 24.4699 39.3829 26.8259 35.8469 28.633" fill="#003469"/>
<path d="M22.6092 21.6312C22.288 21.7282 21.9819 21.8179 21.6981 21.8963C20.0552 22.3406 18.9538 22.475 18.1958 22.4787H18.1286C17.6507 22.4787 17.3146 22.419 17.0645 22.3592C17.3184 22.4227 17.6656 22.4787 18.1622 22.4787C18.9202 22.4787 20.0291 22.348 21.6981 21.8963C21.9856 21.8179 22.2918 21.7282 22.6092 21.6312Z" fill="#003468"/>
<mask id="mask12_11335_169581" style="mask-type:luminance" maskUnits="userSpaceOnUse" x="15" y="18" width="8" height="5">
<path d="M15.541 18.498H22.6726V22.4856H15.541V18.498Z" fill="white"/>
</mask>
<g mask="url(#mask12_11335_169581)">
<path d="M17.7673 18.5018C17.7187 18.8191 17.715 19.0917 17.7486 19.3269C17.7337 19.2261 17.7299 19.1216 17.7299 19.0058C17.7299 18.849 17.7411 18.681 17.771 18.498" fill="url(#paint20_linear_11335_169581)"/>
<path d="M17.7646 18.5018L15.6923 19.2485C15.6326 19.5024 15.5878 19.7638 15.5616 20.0139C15.5504 20.1483 15.543 20.279 15.543 20.4097C15.543 21.261 15.8491 22.0077 16.805 22.2952C16.8759 22.3176 16.9655 22.3437 17.0626 22.3699C16.9767 22.3475 16.9021 22.3251 16.8349 22.3064L18.5599 20.5105C18.5113 20.4881 18.4665 20.462 18.4217 20.4321C18.4217 20.4321 18.4031 20.4209 18.3919 20.4134C18.2126 20.2977 18.0596 20.1446 17.9475 19.9467C17.8467 19.775 17.7758 19.5696 17.7422 19.3232C17.7123 19.088 17.716 18.8117 17.7609 18.498" fill="url(#paint21_linear_11335_169581)"/>
<path d="M22.6717 20.2129C22.2946 20.3249 21.91 20.4294 21.518 20.5228C21.4806 20.5303 21.447 20.5415 21.4097 20.5489C21.3051 20.5751 21.1968 20.5975 21.0886 20.6199C20.8123 20.6796 20.3343 20.7617 19.8228 20.7617C19.3897 20.7617 18.9342 20.702 18.557 20.5116L16.832 22.3075C16.8992 22.3299 16.9739 22.3486 17.0598 22.371C17.3062 22.4307 17.6423 22.4867 18.1239 22.4904H18.1911C18.9491 22.4867 20.0468 22.3523 21.6934 21.908C21.9809 21.8296 22.2871 21.74 22.6045 21.6429L22.668 20.2129" fill="url(#paint22_linear_11335_169581)"/>
</g>
<mask id="mask13_11335_169581" style="mask-type:luminance" maskUnits="userSpaceOnUse" x="19" y="21" width="10" height="6">
<path d="M19.8965 21.5215H28.4805V26.4649H19.8965V21.5215Z" fill="white"/>
</mask>
<g mask="url(#mask13_11335_169581)">
<path d="M20.7451 23.987C20.5099 24.0616 20.2746 24.1438 20.0469 24.2222C20.2746 24.1438 20.5061 24.0654 20.7451 23.987ZM24.2437 23.2402C24.6955 23.2402 25.1697 23.3074 25.5542 23.5128C25.1697 23.3037 24.6955 23.2402 24.2437 23.2402Z" fill="url(#paint23_linear_11335_169581)"/>
<path d="M26.243 24.3457C26.3027 24.5287 26.3326 24.7452 26.3326 24.9879C26.3326 25.3874 26.2467 25.8728 26.0488 26.4627C26.3699 25.5106 26.3961 24.8273 26.243 24.3457Z" fill="url(#paint24_linear_11335_169581)"/>
<path d="M26.9805 21.6543C27.0701 21.6767 27.1485 21.6991 27.2194 21.7215C27.1522 21.6991 27.0738 21.6767 26.9805 21.6543Z" fill="url(#paint25_linear_11335_169581)"/>
<path d="M25.8668 21.5215C24.7878 21.5215 22.9993 21.7903 19.8965 22.8619L20.0458 24.2209C20.2736 24.1425 20.5051 24.0641 20.7441 23.9857C21.4572 23.7542 22.2077 23.5414 22.9731 23.3809C23.2494 23.3211 23.7311 23.239 24.2426 23.239C24.6944 23.239 25.1686 23.3062 25.5532 23.5115L27.6964 21.9285C28.0324 22.1375 28.2415 22.4288 28.3573 22.7723L26.244 24.3479C26.397 24.8333 26.3709 25.5128 26.0498 26.4649L27.9242 26.0841C28.1445 25.4829 28.3872 24.7213 28.4581 23.9932C28.473 23.8588 28.4768 23.7281 28.4768 23.5974C28.4768 23.5713 28.4768 23.5489 28.4768 23.5227C28.4581 22.7051 28.1445 21.9919 27.2147 21.7119C27.1438 21.6895 27.0691 21.6671 26.9758 21.6447C26.7219 21.5812 26.3709 21.5215 25.8594 21.5215" fill="url(#paint26_linear_11335_169581)"/>
</g>
<path d="M25.6719 31.2598C25.7055 31.2896 25.7578 31.3008 25.8287 31.3008H25.8399H25.8212C25.754 31.3008 25.7092 31.2859 25.6756 31.2598" fill="#003468"/>
<mask id="mask14_11335_169581" style="mask-type:luminance" maskUnits="userSpaceOnUse" x="25" y="28" width="5" height="4">
<path d="M25.6484 28.5684H29.6809V31.2678H25.6484V28.5684Z" fill="white"/>
</mask>
<g mask="url(#mask14_11335_169581)">
<path d="M27.4127 28.5684C27.002 29.1545 26.5801 29.7333 26.1769 30.3232C26.0126 30.5621 25.8483 30.8048 25.6915 31.0513C25.6616 31.0923 25.6504 31.1297 25.6504 31.1595C25.6504 31.1857 25.6579 31.2081 25.6765 31.2267L28.5254 29.7967C28.5254 29.7967 28.518 29.7855 28.518 29.7818C28.503 29.7519 28.4918 29.7183 28.4918 29.681C28.4918 29.6287 28.5067 29.5727 28.5441 29.5092C28.5441 29.5092 28.5441 29.5092 28.5441 29.5055C28.5852 29.4271 28.63 29.3711 28.7121 29.274C28.7644 29.2143 28.8167 29.1508 28.8689 29.0873C28.9473 28.9903 29.0295 28.8932 29.1079 28.7924L27.409 28.5721" fill="url(#paint27_linear_11335_169581)"/>
<path d="M29.6782 29.7908C29.5625 29.817 29.4468 29.8394 29.3273 29.8655C29.1331 29.9029 28.9726 29.9215 28.8419 29.9215C28.6925 29.9215 28.5917 29.8954 28.5394 29.8356C28.532 29.8282 28.5245 29.8207 28.5208 29.8095L25.6719 31.2395C25.7055 31.2656 25.7503 31.2806 25.8175 31.2806H25.8362C25.9146 31.2731 25.993 31.2656 26.0677 31.2582C27.311 31.1238 28.517 30.9259 29.6745 30.6757V29.7871" fill="url(#paint28_linear_11335_169581)"/>
</g>
<path d="M14.6779 14.1337C8.1923 15.4517 3.64453 18.4909 3.64453 22.0155C3.64453 23.9645 5.09698 25.7679 7.43808 27.2091C7.6397 27.3248 7.76292 27.3472 7.85253 27.3472C8.02428 27.336 8.11389 27.239 8.19604 27.112C8.23711 27.0336 8.29685 26.9104 8.35659 26.7835C9.12202 25.0137 11.8141 18.8718 15.35 14.7125C15.4322 14.6079 15.477 14.5444 15.5218 14.4735C15.6039 14.3353 15.5815 14.2271 15.5218 14.1599C15.4247 14.0479 15.1036 14.0479 14.6854 14.1337H14.6779Z" fill="#003469"/>
<path d="M32.1692 14.8032L32.0572 14.7696C29.1747 13.8885 25.7508 13.377 22.0581 13.377H21.8527C21.4121 13.3956 20.9155 13.4852 20.5198 13.6794C19.2017 14.3402 18.6267 15.9905 18.2944 16.7559C16.3043 21.3708 20.068 20.7995 21.0873 20.5867C22.8123 20.2208 24.4701 19.5973 25.7919 19.0858C29.5556 17.652 31.5569 16.2071 32.2178 15.647C32.2999 15.5836 32.3596 15.5313 32.4007 15.4902C32.4978 15.3969 32.5687 15.2961 32.5687 15.1617C32.5613 15.0123 32.4306 14.8928 32.1618 14.7995L32.1692 14.8032Z" fill="#003469"/>
<path d="M18.1596 22.5241C17.424 22.5241 17.0133 22.4009 16.7856 22.33C15.8148 22.035 15.3817 21.2472 15.5049 19.9852C15.587 19.1452 15.8969 18.2528 16.1882 17.4949C16.4831 16.7332 16.8416 15.9715 17.2896 15.165C17.8161 14.2242 18.2828 13.4924 18.7682 12.8688C18.9512 12.6485 19.2947 12.5365 19.8809 12.4992C20.5978 12.4619 21.3147 12.4395 22.0129 12.4395C26.5457 12.4395 30.7836 13.1974 34.2784 14.6274C34.383 14.6759 34.7041 14.8178 34.5883 15.0792C33.8901 16.6884 29.9136 18.9697 26.5233 20.2951C22.7709 21.7699 19.9593 22.5167 18.1596 22.5167V22.5241ZM22.0092 12.5589C21.3147 12.5589 20.5978 12.5776 19.8846 12.6149C19.3358 12.6485 19.0146 12.7493 18.8541 12.9435C18.3762 13.5596 17.9094 14.2839 17.3904 15.2211C16.9461 16.0201 16.5877 16.778 16.2964 17.5359C16.106 18.0288 15.7102 19.0555 15.6169 19.9964C15.5011 21.195 15.9044 21.938 16.8154 22.218C17.0357 22.2852 17.439 22.4047 18.1559 22.4047C19.9369 22.4047 22.7372 21.6579 26.4748 20.1906C29.8427 18.8726 33.793 16.6212 34.4763 15.0418C34.5099 14.9672 34.5062 14.8701 34.2262 14.7431C30.75 13.3169 26.5271 12.5627 22.0092 12.5627V12.5589Z" fill="#003469"/>
<path d="M17.0859 14.6388C16.7947 15.0458 16.4997 15.464 16.2122 15.8859C13.6807 19.6121 11.474 23.5101 9.30469 28.11L9.40923 28.1585C11.5786 23.5661 13.7853 19.6718 16.3093 15.9494C16.5931 15.5312 16.8918 15.113 17.1793 14.7023C17.463 14.3028 17.7543 13.8958 18.0381 13.4777L17.9111 13.459C17.6385 13.8548 17.3585 14.2505 17.0822 14.6351L17.0859 14.6388Z" fill="#003469"/>
<path d="M26.936 29.3764C27.2273 28.9694 27.526 28.5475 27.8097 28.1293C30.3226 24.4367 32.5069 20.5723 34.665 16.0247L34.5418 16.0098C32.3911 20.5313 30.2143 24.3844 27.7127 28.0621C27.4289 28.4803 27.1302 28.9022 26.839 29.3054C26.5813 29.6713 26.3162 30.0447 26.0586 30.4218H26.2005C26.4432 30.0671 26.6896 29.7161 26.9323 29.3764H26.936Z" fill="#003469"/>
<path d="M22.0092 31.5556C17.4801 31.5556 13.2422 30.7976 9.74366 29.3639C9.63912 29.3191 9.32174 29.1697 9.43376 28.9121C10.132 27.2992 14.1085 25.0216 17.4988 23.6999C21.2475 22.2251 24.0665 21.4746 25.8588 21.4746C26.5906 21.4746 27.0088 21.6016 27.2328 21.665C28.2073 21.96 28.6367 22.7478 28.5172 24.0135C28.4351 24.8536 28.1289 25.7422 27.8377 26.5039C27.5427 27.2581 27.1768 28.0422 26.7362 28.8337C26.2135 29.7783 25.743 30.5064 25.2576 31.1299C25.0709 31.3502 24.7274 31.466 24.1449 31.4958C23.4393 31.5332 22.7186 31.5593 22.0092 31.5593V31.5556ZM25.8625 21.5904C24.0815 21.5904 21.2811 22.3334 17.5436 23.8082C14.172 25.1224 10.2253 27.3776 9.54204 28.9569C9.51217 29.0316 9.5159 29.1287 9.7922 29.2593C13.2684 30.6856 17.495 31.4361 22.0092 31.4361C22.7186 31.4361 23.4318 31.4137 24.1337 31.3763C24.6863 31.3427 25.0037 31.2457 25.1643 31.0515C25.6422 30.4392 26.1089 29.7149 26.6317 28.774C27.0685 27.9899 27.4382 27.2096 27.7257 26.4591C28.0132 25.7086 28.3193 24.8312 28.4015 23.9986C28.5172 22.8001 28.1102 22.0571 27.1992 21.777C26.9826 21.7136 26.5757 21.5866 25.8588 21.5866L25.8625 21.5904Z" fill="#003469"/>
<path d="M18.4186 12.7553C18.3962 12.7105 18.3364 12.6582 18.202 12.6582H18.1834C14.3861 13.039 10.9286 13.9799 8.17676 15.3801C4.61845 17.1872 2.6582 19.5469 2.6582 22.0186C2.6582 24.4903 4.61845 26.8537 8.17676 28.6608C8.33358 28.7392 8.4904 28.8176 8.64722 28.8923C8.71443 28.9221 8.77417 28.9371 8.83765 28.9371C8.97206 28.9371 9.08034 28.8699 9.12888 28.7579C9.22223 28.5562 9.31557 28.3621 9.40892 28.1642L9.30437 28.1157C9.21103 28.3098 9.11768 28.5077 9.02434 28.7056C8.97953 28.8101 8.83391 28.8475 8.6995 28.784C8.53521 28.7093 8.37839 28.6309 8.2253 28.5525C4.71179 26.7678 2.77395 24.4417 2.77395 22.0148C2.77395 19.5879 4.70806 17.2656 8.2253 15.4809C10.9622 14.0882 14.4122 13.151 18.1983 12.7739C18.2692 12.7739 18.3066 12.7926 18.314 12.8076C18.3252 12.8262 18.314 12.8598 18.2879 12.9046C18.1647 13.0913 18.0415 13.278 17.9108 13.4684L18.0377 13.4871C18.1535 13.3153 18.2692 13.1436 18.385 12.9681C18.4485 12.8636 18.4373 12.7963 18.4149 12.7553H18.4186Z" fill="#003469"/>
<path d="M35.8489 15.3562C35.6921 15.274 35.5315 15.1994 35.3747 15.1209C35.1768 15.0313 34.9603 15.0948 34.8893 15.2554C34.7698 15.5055 34.6541 15.7557 34.5383 16.0021L34.6616 16.017C34.7698 15.7818 34.8818 15.5429 34.9939 15.3039C35.0237 15.2367 35.0947 15.1956 35.1805 15.1956C35.2254 15.1956 35.2739 15.2068 35.315 15.2292C35.4755 15.3039 35.6361 15.3823 35.7892 15.4607C39.3027 17.2492 41.2442 19.5715 41.2442 21.9984C41.2442 24.4253 39.3064 26.7477 35.7892 28.5361C33.0597 29.925 29.6321 30.8584 25.8722 31.2393C25.7826 31.2505 25.6444 31.2393 25.7266 31.1123C25.8796 30.8808 26.0327 30.6494 26.1933 30.4179H26.0514C25.9095 30.627 25.7676 30.836 25.6295 31.0451C25.5623 31.1497 25.5772 31.2169 25.5959 31.2617C25.6519 31.3662 25.8012 31.3588 25.9058 31.3476C29.6732 30.963 33.1083 30.0258 35.8452 28.6369C39.3997 26.8261 41.36 24.4701 41.36 21.9947C41.36 19.5192 39.3997 17.1633 35.8452 15.3524L35.8489 15.3562Z" fill="#003469"/>
</g>
<defs>
<linearGradient id="paint0_linear_11335_169581" x1="25.4957" y1="31.3359" x2="27.3279" y2="24.1739" gradientUnits="userSpaceOnUse">
<stop stop-color="#003468"/>
<stop offset="0.63" stop-color="#003468"/>
<stop offset="1" stop-color="#003468"/>
</linearGradient>
<linearGradient id="paint1_linear_11335_169581" x1="39.392" y1="69.7324" x2="39.4607" y2="70.3258" gradientUnits="userSpaceOnUse">
<stop stop-color="#003468"/>
<stop offset="0.42" stop-color="#003468"/>
<stop offset="0.58" stop-color="#003468"/>
<stop offset="1" stop-color="#003468"/>
</linearGradient>
<linearGradient id="paint2_linear_11335_169581" x1="39.4101" y1="69.7329" x2="39.4788" y2="70.3264" gradientUnits="userSpaceOnUse">
<stop stop-color="#003468"/>
<stop offset="0.42" stop-color="#003468"/>
<stop offset="0.58" stop-color="#003468"/>
<stop offset="1" stop-color="#003468"/>
</linearGradient>
<linearGradient id="paint3_linear_11335_169581" x1="10.2853" y1="28.5392" x2="10.4135" y2="29.6857" gradientUnits="userSpaceOnUse">
<stop stop-color="#003468"/>
<stop offset="0.06" stop-color="#003468"/>
<stop offset="0.4" stop-color="#003468"/>
<stop offset="0.5" stop-color="#003468"/>
<stop offset="0.79" stop-color="#003468"/>
<stop offset="1" stop-color="#003468"/>
</linearGradient>
<linearGradient id="paint4_linear_11335_169581" x1="22.6999" y1="134.565" x2="22.8281" y2="135.712" gradientUnits="userSpaceOnUse">
<stop stop-color="#003468"/>
<stop offset="0.06" stop-color="#003468"/>
<stop offset="0.4" stop-color="#003468"/>
<stop offset="0.5" stop-color="#003468"/>
<stop offset="0.79" stop-color="#003468"/>
<stop offset="1" stop-color="#003468"/>
</linearGradient>
<linearGradient id="paint5_linear_11335_169581" x1="22.6891" y1="134.566" x2="22.8173" y2="135.713" gradientUnits="userSpaceOnUse">
<stop stop-color="#003468"/>
<stop offset="0.06" stop-color="#003468"/>
<stop offset="0.4" stop-color="#003468"/>
<stop offset="0.5" stop-color="#003468"/>
<stop offset="0.79" stop-color="#003468"/>
<stop offset="1" stop-color="#003468"/>
</linearGradient>
<linearGradient id="paint6_linear_11335_169581" x1="35.0257" y1="15.875" x2="35.823" y2="15.3753" gradientUnits="userSpaceOnUse">
<stop stop-color="#003468"/>
<stop offset="0.42" stop-color="#003468"/>
<stop offset="0.52" stop-color="#003468"/>
<stop offset="1" stop-color="#003468"/>
</linearGradient>
<linearGradient id="paint7_linear_11335_169581" x1="108.953" y1="-30.1319" x2="109.75" y2="-30.6316" gradientUnits="userSpaceOnUse">
<stop stop-color="#003468"/>
<stop offset="0.42" stop-color="#003468"/>
<stop offset="0.52" stop-color="#003468"/>
<stop offset="1" stop-color="#003468"/>
</linearGradient>
<linearGradient id="paint8_linear_11335_169581" x1="109.023" y1="-30.0173" x2="109.821" y2="-30.517" gradientUnits="userSpaceOnUse">
<stop stop-color="#003468"/>
<stop offset="0.42" stop-color="#003468"/>
<stop offset="0.52" stop-color="#003468"/>
<stop offset="1" stop-color="#003468"/>
</linearGradient>
<linearGradient id="paint9_linear_11335_169581" x1="-92.6336" y1="134.087" x2="-93.8545" y2="135.394" gradientUnits="userSpaceOnUse">
<stop stop-color="#003468"/>
<stop offset="0.4" stop-color="#003468"/>
<stop offset="1" stop-color="#003468"/>
</linearGradient>
<linearGradient id="paint10_linear_11335_169581" x1="-92.4396" y1="134.252" x2="-93.6605" y2="135.559" gradientUnits="userSpaceOnUse">
<stop stop-color="#003468"/>
<stop offset="0.4" stop-color="#003468"/>
<stop offset="1" stop-color="#003468"/>
</linearGradient>
<linearGradient id="paint11_linear_11335_169581" x1="26.0277" y1="28.9792" x2="23.524" y2="32.4076" gradientUnits="userSpaceOnUse">
<stop stop-color="#003468"/>
<stop offset="0.51" stop-color="#003468"/>
<stop offset="1" stop-color="#003468"/>
</linearGradient>
<linearGradient id="paint12_linear_11335_169581" x1="-206.834" y1="345.405" x2="-209.338" y2="348.833" gradientUnits="userSpaceOnUse">
<stop stop-color="#003468"/>
<stop offset="0.51" stop-color="#003468"/>
<stop offset="1" stop-color="#003468"/>
</linearGradient>
<linearGradient id="paint13_linear_11335_169581" x1="8.24699" y1="26.1945" x2="6.84937" y2="27.2246" gradientUnits="userSpaceOnUse">
<stop stop-color="#003468"/>
<stop offset="0.45" stop-color="#003468"/>
<stop offset="0.64" stop-color="#003468"/>
<stop offset="1" stop-color="#003468"/>
</linearGradient>
<linearGradient id="paint14_linear_11335_169581" x1="-120.454" y1="122.345" x2="-121.851" y2="123.375" gradientUnits="userSpaceOnUse">
<stop stop-color="#003468"/>
<stop offset="0.45" stop-color="#003468"/>
<stop offset="0.64" stop-color="#003468"/>
<stop offset="1" stop-color="#003468"/>
</linearGradient>
<linearGradient id="paint15_linear_11335_169581" x1="-120.691" y1="122.058" x2="-122.089" y2="123.088" gradientUnits="userSpaceOnUse">
<stop stop-color="#003468"/>
<stop offset="0.45" stop-color="#003468"/>
<stop offset="0.64" stop-color="#003468"/>
<stop offset="1" stop-color="#003468"/>
</linearGradient>
<linearGradient id="paint16_linear_11335_169581" x1="-120.526" y1="122.267" x2="-121.924" y2="123.297" gradientUnits="userSpaceOnUse">
<stop stop-color="#003468"/>
<stop offset="0.45" stop-color="#003468"/>
<stop offset="0.64" stop-color="#003468"/>
<stop offset="1" stop-color="#003468"/>
</linearGradient>
<linearGradient id="paint17_linear_11335_169581" x1="15.8934" y1="13.4417" x2="16.3491" y2="14.3367" gradientUnits="userSpaceOnUse">
<stop stop-color="#003468"/>
<stop offset="0.47" stop-color="#003468"/>
<stop offset="0.57" stop-color="#003468"/>
<stop offset="0.91" stop-color="#003468"/>
<stop offset="1" stop-color="#003468"/>
</linearGradient>
<linearGradient id="paint18_linear_11335_169581" x1="58.9917" y1="95.8183" x2="59.4473" y2="96.7134" gradientUnits="userSpaceOnUse">
<stop stop-color="#003468"/>
<stop offset="0.47" stop-color="#003468"/>
<stop offset="0.57" stop-color="#003468"/>
<stop offset="0.91" stop-color="#003468"/>
<stop offset="1" stop-color="#003468"/>
</linearGradient>
<linearGradient id="paint19_linear_11335_169581" x1="58.3315" y1="96.1525" x2="58.7872" y2="97.0476" gradientUnits="userSpaceOnUse">
<stop stop-color="#003468"/>
<stop offset="0.47" stop-color="#003468"/>
<stop offset="0.57" stop-color="#003468"/>
<stop offset="0.91" stop-color="#003468"/>
<stop offset="1" stop-color="#003468"/>
</linearGradient>
<linearGradient id="paint20_linear_11335_169581" x1="17.2309" y1="18.4721" x2="20.924" y2="21.7975" gradientUnits="userSpaceOnUse">
<stop stop-color="#003468"/>
<stop offset="0.07" stop-color="#003468"/>
<stop offset="0.5" stop-color="#003468"/>
<stop offset="0.94" stop-color="#003468"/>
<stop offset="1" stop-color="#003468"/>
</linearGradient>
<linearGradient id="paint21_linear_11335_169581" x1="358.099" y1="327.19" x2="361.793" y2="330.515" gradientUnits="userSpaceOnUse">
<stop stop-color="#003468"/>
<stop offset="0.07" stop-color="#003468"/>
<stop offset="0.5" stop-color="#003468"/>
<stop offset="0.94" stop-color="#003468"/>
<stop offset="1" stop-color="#003468"/>
</linearGradient>
<linearGradient id="paint22_linear_11335_169581" x1="358.832" y1="326.378" x2="362.525" y2="329.704" gradientUnits="userSpaceOnUse">
<stop stop-color="#003468"/>
<stop offset="0.07" stop-color="#003468"/>
<stop offset="0.5" stop-color="#003468"/>
<stop offset="0.94" stop-color="#003468"/>
<stop offset="1" stop-color="#003468"/>
</linearGradient>
<linearGradient id="paint23_linear_11335_169581" x1="25.1999" y1="26.5206" x2="21.7955" y2="22.1631" gradientUnits="userSpaceOnUse">
<stop stop-color="#003468"/>
<stop offset="0.12" stop-color="#003468"/>
<stop offset="0.44" stop-color="#003468"/>
<stop offset="0.71" stop-color="#003468"/>
<stop offset="1" stop-color="#003468"/>
</linearGradient>
<linearGradient id="paint24_linear_11335_169581" x1="-288.499" y1="-377.77" x2="-291.904" y2="-382.127" gradientUnits="userSpaceOnUse">
<stop stop-color="#003468"/>
<stop offset="0.12" stop-color="#003468"/>
<stop offset="0.44" stop-color="#003468"/>
<stop offset="0.71" stop-color="#003468"/>
<stop offset="1" stop-color="#003468"/>
</linearGradient>
<linearGradient id="paint25_linear_11335_169581" x1="-285.971" y1="-379.736" x2="-289.375" y2="-384.094" gradientUnits="userSpaceOnUse">
<stop stop-color="#003468"/>
<stop offset="0.12" stop-color="#003468"/>
<stop offset="0.44" stop-color="#003468"/>
<stop offset="0.71" stop-color="#003468"/>
<stop offset="1" stop-color="#003468"/>
</linearGradient>
<linearGradient id="paint26_linear_11335_169581" x1="-288.761" y1="-377.563" x2="-292.165" y2="-381.921" gradientUnits="userSpaceOnUse">
<stop stop-color="#003468"/>
<stop offset="0.12" stop-color="#003468"/>
<stop offset="0.44" stop-color="#003468"/>
<stop offset="0.71" stop-color="#003468"/>
<stop offset="1" stop-color="#003468"/>
</linearGradient>
<linearGradient id="paint27_linear_11335_169581" x1="27.5054" y1="29.9521" x2="27.8757" y2="30.7103" gradientUnits="userSpaceOnUse">
<stop stop-color="#003468"/>
<stop offset="0.39" stop-color="#003468"/>
<stop offset="0.76" stop-color="#003468"/>
<stop offset="1" stop-color="#003468"/>
</linearGradient>
<linearGradient id="paint28_linear_11335_169581" x1="61.8111" y1="100.112" x2="62.1814" y2="100.87" gradientUnits="userSpaceOnUse">
<stop stop-color="#003468"/>
<stop offset="0.39" stop-color="#003468"/>
<stop offset="0.76" stop-color="#003468"/>
<stop offset="1" stop-color="#003468"/>
</linearGradient>
</defs>
</svg>
