<svg width="44" height="44" viewBox="0 0 44 44" fill="none" xmlns="http://www.w3.org/2000/svg">
<path d="M0 22.0001C0 29.5418 9.86987 35.677 22.0005 35.677C34.1312 35.677 44 29.5418 44 22.0001C44 14.4585 34.1312 8.32227 22.0005 8.32227C9.86987 8.32227 0 14.4575 0 22.0001ZM0.21332 22.0001C0.21332 14.5758 9.98622 8.53558 22.0005 8.53558C34.0148 8.53558 43.7867 14.5758 43.7867 22.0001C43.7867 29.4244 34.0128 35.4637 22.0005 35.4637C9.98826 35.4637 0.21332 29.4234 0.21332 22.0001Z" fill="#231F20"/>
<path d="M19.9139 10.8495C14.883 11.1577 11.0963 12.508 10.4921 14.2095C10.4339 14.3748 10.4043 14.5392 10.4043 14.7035C10.4043 14.9678 10.4798 15.2312 10.6319 15.4894C11.3178 16.658 13.502 17.6338 16.6232 18.1645L16.7284 18.1829L16.7457 18.0768C17.2795 14.827 18.4604 12.2621 19.9863 11.0403L20.2486 10.8301L19.9128 10.8505L19.9139 10.8495ZM10.8166 15.3802C10.685 15.1556 10.6186 14.929 10.6186 14.7004C10.6186 14.5606 10.6431 14.4208 10.6931 14.2799C11.2474 12.7163 14.9024 11.418 19.6271 11.0842C18.191 12.3876 17.0805 14.8474 16.5569 17.9329C13.5969 17.4154 11.4525 16.4651 10.8156 15.3792L10.8166 15.3802Z" fill="#231F20"/>
<path d="M19.1786 18.3585L19.1582 18.4748L19.2766 18.483C20.1625 18.5514 21.0801 18.5851 22.0008 18.5851C22.9214 18.5851 23.838 18.5514 24.726 18.483L24.8433 18.4748L24.8229 18.3585C24.3381 15.6384 23.2572 13.9492 22.0018 13.9492C20.7464 13.9492 19.6645 15.6384 19.1796 18.3585H19.1786ZM22.0008 14.1625C23.1276 14.1625 24.1125 15.7395 24.5871 18.2778C23.743 18.3391 22.8745 18.3717 22.0008 18.3717C21.1271 18.3717 20.2585 18.3381 19.4144 18.2778C19.889 15.7384 20.8729 14.1625 22.0008 14.1625Z" fill="#231F20"/>
<path d="M24.0143 11.0414C25.5391 12.2641 26.7211 14.829 27.2539 18.0778L27.2712 18.1839L27.3774 18.1656C30.4986 17.6348 32.6828 16.6591 33.3687 15.4894C33.6147 15.0709 33.6616 14.6402 33.5085 14.2105C32.9053 12.5091 29.1197 11.1587 24.0878 10.8505L23.752 10.8301L24.0143 11.0403V11.0414ZM24.3746 11.0873C29.0992 11.421 32.7542 12.7193 33.3085 14.283C33.3575 14.4228 33.383 14.5637 33.383 14.7035C33.383 14.9321 33.3166 15.1597 33.185 15.3832C32.5481 16.4692 30.4037 17.4195 27.4437 17.9369C26.9211 14.8515 25.8106 12.3917 24.3735 11.0883L24.3746 11.0873Z" fill="#231F20"/>
<path d="M7.12936 15.6495C4.8451 17.5622 3.63867 19.827 3.63867 22.2001C3.63867 27.829 10.5588 32.5904 19.7356 33.2752L20.0602 33.2987L19.8132 33.0874C17.7259 31.3003 16.4287 27.0972 16.4287 22.1164L16.447 21.1457L16.3582 21.1284C11.2967 20.219 7.82647 18.1419 7.30287 15.7076L7.26511 15.5352L7.12936 15.6484V15.6495ZM3.85199 22.2001C3.85199 19.9373 4.9931 17.7714 7.14365 15.925C7.80198 18.3552 11.2478 20.4088 16.2296 21.3213C16.2266 21.4672 16.2153 22.1174 16.2153 22.1174C16.2153 26.9716 17.4473 31.1012 19.4437 33.0303C10.5353 32.2709 3.85199 27.6524 3.85199 22.2001Z" fill="#231F20"/>
<path d="M18.9043 21.586V21.7095C18.9033 26.0729 20.2638 29.491 22.001 29.491C23.7382 29.491 25.0977 26.0729 25.0977 21.7095L25.0947 21.4707L24.9803 21.4809C24.0087 21.5666 23.0064 21.6095 22.001 21.6095C20.9956 21.6095 19.9923 21.5666 19.0207 21.4809L18.9063 21.4707V21.586H18.9043ZM19.1146 21.7095V21.7014C20.0566 21.781 21.0252 21.8228 21.999 21.8228C22.9727 21.8228 23.9403 21.781 24.8824 21.7014V21.7095C24.8824 25.9534 23.6157 29.2777 21.999 29.2777C20.3822 29.2777 19.1146 25.9534 19.1146 21.7095Z" fill="#231F20"/>
<path d="M36.6987 15.7086C36.1751 18.1429 32.7059 20.2199 27.6434 21.1293L27.5546 21.1456L27.5719 22.1173C27.5719 27.0981 26.2757 31.3012 24.1884 33.0884L23.9414 33.2997L24.266 33.2762C33.4428 32.5913 40.3629 27.8299 40.3629 22.201C40.3629 19.828 39.1555 17.5631 36.8712 15.6504L36.7355 15.5371L36.6977 15.7096L36.6987 15.7086ZM36.8569 15.925C39.0075 17.7724 40.1496 19.9372 40.1496 22.2C40.1496 27.6523 33.4663 32.2718 24.5569 33.0302C26.5533 31.1001 27.7842 26.9716 27.7842 22.1173C27.7842 22.1173 27.773 21.4671 27.7699 21.3212C32.7518 20.4087 36.1976 18.3552 36.8559 15.925H36.8569Z" fill="#231F20"/>
<path d="M36.709 13.902C36.7406 13.9908 36.7692 14.0786 36.7917 14.1674C36.9213 14.6777 36.8947 15.1809 36.7284 15.6678C38.9453 17.4978 40.2548 19.7555 40.2548 22.199C40.2548 28.3035 32.0813 33.2517 22.0001 33.2517C11.919 33.2517 3.74445 28.3046 3.74445 22.2C3.74445 19.7565 5.05396 17.4988 7.27086 15.6688C7.10449 15.1809 7.07795 14.6777 7.20655 14.1684C7.23003 14.0766 7.26779 13.9827 7.31168 13.8867C4.2854 16.0424 2.44922 18.8696 2.44922 21.9652C2.44922 28.7261 11.2015 34.206 21.9991 34.206C32.7968 34.206 41.549 28.7261 41.549 21.9652C41.549 18.8767 39.721 16.0566 36.708 13.903L36.709 13.902Z" fill="url(#paint0_linear_11337_188565)"/>
<path d="M19.2832 18.3792L18.7188 18.7875C19.1821 15.2815 20.4763 13.0371 22.0012 13.0371C23.5261 13.0371 24.8193 15.2815 25.2827 18.7875L24.7172 18.3792C24.2436 15.7204 23.2056 14.0567 22.0002 14.0567C20.7948 14.0567 19.7578 15.7194 19.2832 18.3792Z" fill="url(#paint1_linear_11337_188565)"/>
<path d="M25.4482 20.7608L24.99 21.5885C24.99 21.6294 24.991 21.6692 24.991 21.71C24.991 26.0774 23.6508 29.3854 21.9994 29.3854C20.348 29.3854 19.0088 26.0774 19.0088 21.71C19.0088 21.662 19.0088 21.6151 19.0099 21.5671L18.5516 20.7598C18.5393 21.069 18.5332 21.3854 18.5332 21.708C18.5332 26.6561 20.0846 30.403 21.9994 30.403C23.9142 30.403 25.4656 26.6551 25.4656 21.708C25.4656 21.3854 25.4584 21.07 25.4472 20.7608H25.4482Z" fill="url(#paint2_linear_11337_188565)"/>
<path d="M24.7149 18.3787C23.8534 18.444 22.9461 18.4797 21.9989 18.4797C21.0517 18.4797 20.1453 18.444 19.2829 18.3787H19.2819L18.7184 18.7869C19.7575 18.8788 20.8547 18.9298 21.9999 18.9298C23.1451 18.9298 24.2423 18.8788 25.2803 18.7869L24.7159 18.3787H24.7149ZM34.7001 14.0899C34.0142 11.822 28.3566 10.1562 21.9999 10.1562C15.6432 10.1562 9.98458 11.822 9.29869 14.0899C8.70262 16.0577 11.9555 17.8786 17.0854 18.6012L16.6393 18.0602C12.4893 17.3529 10.0234 15.8474 10.5919 14.246C11.2808 12.3037 16.2913 10.8942 21.9989 10.8942C27.7064 10.8942 32.7179 12.3037 33.4069 14.246C33.9754 15.8474 31.5095 17.3539 27.3584 18.0602L26.9124 18.6022C32.0422 17.8796 35.2941 16.0587 34.699 14.0909L34.7001 14.0899Z" fill="url(#paint3_linear_11337_188565)"/>
<path d="M36.7284 15.67C37.5766 16.3702 38.29 17.1326 38.8503 17.9451C38.6513 16.6254 38.1257 15.4128 37.3571 14.3932C37.1469 14.2268 36.9315 14.0635 36.709 13.9043C36.7406 13.9931 36.7692 14.0809 36.7917 14.1697C36.9213 14.68 36.8947 15.1832 36.7284 15.67Z" fill="#414042"/>
<path d="M7.27143 15.6688C7.10506 15.1809 7.07852 14.6777 7.20713 14.1684C7.2306 14.0766 7.26837 13.9827 7.31225 13.8867C7.08056 14.051 6.85806 14.2195 6.64168 14.3919C5.87311 15.4116 5.34747 16.6241 5.14844 17.9438C5.70878 17.1314 6.42325 16.3679 7.27143 15.6688Z" fill="#414042"/>
<path d="M0.105469 21.9994C0.105469 14.5037 9.90797 8.42773 21.9998 8.42773C34.0917 8.42773 43.8932 14.5037 43.8932 21.9984C43.8932 29.4931 34.0907 35.5691 21.9998 35.5691C9.90899 35.5691 0.105469 29.4942 0.105469 21.9994ZM21.9988 34.2055C32.7954 34.2055 41.5477 28.7256 41.5477 21.9647C41.5477 15.2039 32.7954 9.72397 21.9998 9.72397C11.2042 9.72397 2.44892 15.2039 2.44892 21.9647C2.44892 28.7256 11.2012 34.2055 21.9988 34.2055Z" fill="url(#paint4_linear_11337_188565)"/>
<path d="M2.32227 21.9641C2.32227 28.7841 11.15 34.3324 22.0008 34.3324C32.8515 34.3324 41.6772 28.7841 41.6772 21.9641C41.6772 15.144 32.8505 9.5957 22.0008 9.5957C11.151 9.5957 2.32227 15.144 2.32227 21.9641ZM2.57845 21.9641C2.57845 15.2849 11.2909 9.85087 22.0008 9.85087C32.7106 9.85087 41.422 15.2849 41.422 21.9641C41.422 28.6433 32.7096 34.0762 22.0008 34.0762C11.2919 34.0762 2.57845 28.6433 2.57845 21.9641Z" fill="white"/>
<path d="M16.8574 22.1183C16.8574 15.582 19.16 10.1582 21.9995 10.1582C24.839 10.1582 27.1417 15.582 27.1417 22.1183C27.1417 28.6546 24.839 34.0784 21.9995 34.0784C19.16 34.0784 16.8574 28.724 16.8574 22.1183ZM21.9995 30.404C23.9143 30.404 25.4657 26.6561 25.4657 21.709C25.4657 16.7619 23.9143 13.0385 21.9995 13.0385C20.0848 13.0385 18.5334 16.5751 18.5334 21.709C18.5334 26.8429 20.0848 30.404 21.9995 30.404Z" fill="url(#paint5_linear_11337_188565)"/>
<path d="M7.20846 14.1687C7.77289 11.9335 14.5971 8.68164 22.001 8.68164C29.4049 8.68164 35.9934 11.0047 36.7925 14.1687C37.6877 17.7135 31.1105 20.9204 22.001 20.9204C12.8915 20.9204 6.31333 17.7135 7.20846 14.1687ZM22.001 10.1575C15.6433 10.1575 9.9857 11.8232 9.29981 14.0911C8.53124 16.6326 14.1776 18.9301 22.001 18.9301C29.8244 18.9301 35.4708 16.6316 34.7012 14.0911C34.0153 11.8232 28.3577 10.1575 22.001 10.1575Z" fill="url(#paint6_linear_11337_188565)"/>
<path d="M18.5477 20.7585L18.5528 20.7605L19.0223 21.5883C19.9786 21.672 20.9728 21.7169 22.0006 21.7169C23.0284 21.7169 24.0307 21.671 24.9911 21.5873L25.4484 20.7605L25.4504 20.7585C24.3512 20.8626 23.1978 20.9208 22.0006 20.9208C20.8033 20.9208 19.6479 20.8636 18.5477 20.7585ZM36.8697 14.9336C36.7513 17.4699 32.8564 19.7144 27.0958 20.5615H27.0988L27.6622 21.2331C33.2963 20.2206 37.0034 17.7343 36.8697 14.9336ZM7.13046 14.9336C6.99675 17.7343 10.7028 20.2206 16.3379 21.2331L16.9013 20.5615H16.9023C11.1427 19.7144 7.24885 17.4689 7.13046 14.9336Z" fill="url(#paint7_linear_11337_188565)"/>
<path d="M26.9135 18.6031L27.3585 18.0622C26.5828 13.3355 24.4741 10.1582 22 10.1582C24.3098 10.1582 26.2644 13.7468 26.9135 18.6031Z" fill="url(#paint8_linear_11337_188565)"/>
<path d="M17.0867 18.6031C17.7358 13.7468 19.6904 10.1582 22.0002 10.1582C19.525 10.1582 17.4163 13.3355 16.6406 18.0632L17.0867 18.6031Z" fill="url(#paint9_linear_11337_188565)"/>
<path d="M16.8581 22.1171C16.8581 21.5904 16.8744 21.0709 16.903 20.5605H16.902L16.3386 21.2311C16.3284 21.523 16.3223 21.817 16.3223 22.1171C16.3223 29.1116 18.8158 34.0771 22.0002 34.0771C19.1607 34.0771 16.8581 28.7228 16.8581 22.1171Z" fill="url(#paint10_linear_11337_188565)"/>
<path d="M27.6616 21.2331L27.0982 20.5625H27.0962C27.1258 21.0728 27.1421 21.5923 27.1421 22.119C27.1421 28.7247 24.8395 34.0791 22 34.0791C25.1835 34.0791 27.678 29.1126 27.678 22.119C27.678 21.82 27.6708 21.526 27.6616 21.2331Z" fill="url(#paint11_linear_11337_188565)"/>
<defs>
<linearGradient id="paint0_linear_11337_188565" x1="22.0001" y1="32.6934" x2="22.0001" y2="17.2314" gradientUnits="userSpaceOnUse">
<stop stop-color="#D1D3D4"/>
<stop offset="0.16" stop-color="#F0F1F1"/>
<stop offset="0.26" stop-color="#E8E9EA"/>
<stop offset="0.44" stop-color="#E6E7E8"/>
<stop offset="0.56" stop-color="#CECFD0"/>
<stop offset="0.81" stop-color="#939496"/>
<stop offset="1" stop-color="#636466"/>
</linearGradient>
<linearGradient id="paint1_linear_11337_188565" x1="24.7907" y1="19.3744" x2="19.5425" y2="14.9712" gradientUnits="userSpaceOnUse">
<stop stop-color="#E6E7E8"/>
<stop offset="0.44" stop-color="#E6E7E8"/>
<stop offset="0.56" stop-color="#CECFD0"/>
<stop offset="0.81" stop-color="#939496"/>
<stop offset="1" stop-color="#636466"/>
</linearGradient>
<linearGradient id="paint2_linear_11337_188565" x1="25.2951" y1="26.6081" x2="17.7055" y2="22.2264" gradientUnits="userSpaceOnUse">
<stop stop-color="#E6E7E8"/>
<stop offset="0.44" stop-color="#E6E7E8"/>
<stop offset="0.56" stop-color="#CECFD0"/>
<stop offset="0.81" stop-color="#939496"/>
<stop offset="1" stop-color="#636466"/>
</linearGradient>
<linearGradient id="paint3_linear_11337_188565" x1="21.9989" y1="20.9109" x2="21.9989" y2="12.5323" gradientUnits="userSpaceOnUse">
<stop stop-color="#E6E7E8"/>
<stop offset="0.44" stop-color="#E6E7E8"/>
<stop offset="0.56" stop-color="#CECFD0"/>
<stop offset="0.81" stop-color="#939496"/>
<stop offset="1" stop-color="#636466"/>
</linearGradient>
<linearGradient id="paint4_linear_11337_188565" x1="21.9988" y1="8.42773" x2="21.9988" y2="35.5691" gradientUnits="userSpaceOnUse">
<stop stop-color="#C7C8CA"/>
<stop offset="0.04" stop-color="#D3D4D6"/>
<stop offset="0.12" stop-color="#E8E9EA"/>
<stop offset="0.15" stop-color="#EFF0F0"/>
<stop offset="0.21" stop-color="#F1F2F2"/>
<stop offset="0.55" stop-color="#F1F2F2"/>
<stop offset="0.61" stop-color="#CCCDCE"/>
<stop offset="0.69" stop-color="#A6A7A9"/>
<stop offset="0.77" stop-color="#898A8B"/>
<stop offset="0.85" stop-color="#747576"/>
<stop offset="0.93" stop-color="#67686A"/>
<stop offset="1" stop-color="#636466"/>
</linearGradient>
<linearGradient id="paint5_linear_11337_188565" x1="22.0006" y1="8.42818" x2="22.0006" y2="35.5696" gradientUnits="userSpaceOnUse">
<stop stop-color="#C7C8CA"/>
<stop offset="0.04" stop-color="#D3D4D6"/>
<stop offset="0.12" stop-color="#E8E9EA"/>
<stop offset="0.15" stop-color="#EFF0F0"/>
<stop offset="0.21" stop-color="#F1F2F2"/>
<stop offset="0.55" stop-color="#F1F2F2"/>
<stop offset="0.61" stop-color="#CCCDCE"/>
<stop offset="0.69" stop-color="#A6A7A9"/>
<stop offset="0.77" stop-color="#898A8B"/>
<stop offset="0.85" stop-color="#747576"/>
<stop offset="0.93" stop-color="#67686A"/>
<stop offset="1" stop-color="#636466"/>
</linearGradient>
<linearGradient id="paint6_linear_11337_188565" x1="22" y1="8.42954" x2="22" y2="35.5709" gradientUnits="userSpaceOnUse">
<stop stop-color="#C7C8CA"/>
<stop offset="0.04" stop-color="#D3D4D6"/>
<stop offset="0.12" stop-color="#E8E9EA"/>
<stop offset="0.15" stop-color="#EFF0F0"/>
<stop offset="0.21" stop-color="#F1F2F2"/>
<stop offset="0.55" stop-color="#F1F2F2"/>
<stop offset="0.61" stop-color="#CCCDCE"/>
<stop offset="0.69" stop-color="#A6A7A9"/>
<stop offset="0.77" stop-color="#898A8B"/>
<stop offset="0.85" stop-color="#747576"/>
<stop offset="0.93" stop-color="#67686A"/>
<stop offset="1" stop-color="#636466"/>
</linearGradient>
<linearGradient id="paint7_linear_11337_188565" x1="22.0006" y1="14.0568" x2="22.0006" y2="21.7924" gradientUnits="userSpaceOnUse">
<stop stop-color="#E6E7E8"/>
<stop offset="1" stop-color="#6D6E71"/>
</linearGradient>
<linearGradient id="paint8_linear_11337_188565" x1="24.6793" y1="8.42921" x2="24.6793" y2="21.7172" gradientUnits="userSpaceOnUse">
<stop stop-color="#E6E7E8"/>
<stop offset="0.44" stop-color="#E6E7E8"/>
<stop offset="0.56" stop-color="#CECFD0"/>
<stop offset="0.81" stop-color="#939496"/>
<stop offset="1" stop-color="#636466"/>
</linearGradient>
<linearGradient id="paint9_linear_11337_188565" x1="19.3199" y1="8.42921" x2="19.3199" y2="21.7172" gradientUnits="userSpaceOnUse">
<stop stop-color="#E6E7E8"/>
<stop offset="0.44" stop-color="#E6E7E8"/>
<stop offset="0.56" stop-color="#CECFD0"/>
<stop offset="0.81" stop-color="#939496"/>
<stop offset="1" stop-color="#636466"/>
</linearGradient>
<linearGradient id="paint10_linear_11337_188565" x1="19.1618" y1="8.42796" x2="19.1618" y2="30.4028" gradientUnits="userSpaceOnUse">
<stop stop-color="#E6E7E8"/>
<stop offset="0.44" stop-color="#E6E7E8"/>
<stop offset="0.56" stop-color="#CECFD0"/>
<stop offset="0.81" stop-color="#939496"/>
<stop offset="1" stop-color="#636466"/>
</linearGradient>
<linearGradient id="paint11_linear_11337_188565" x1="24.8385" y1="8.42889" x2="24.8385" y2="30.4037" gradientUnits="userSpaceOnUse">
<stop stop-color="#E6E7E8"/>
<stop offset="0.44" stop-color="#E6E7E8"/>
<stop offset="0.56" stop-color="#CECFD0"/>
<stop offset="0.81" stop-color="#939496"/>
<stop offset="1" stop-color="#636466"/>
</linearGradient>
</defs>
</svg>
