<svg width="44" height="44" viewBox="0 0 44 44" fill="none" xmlns="http://www.w3.org/2000/svg">
<path d="M35.6994 25.5246C35.5114 25.61 35.1669 25.6357 35.1669 25.6357H20.401C20.401 25.6357 17.9548 25.5018 20.401 22.6454L27.5518 12.3135C27.5518 12.3135 27.8423 12.043 28.0474 11.687C28.3208 11.2029 28.4404 10.5678 27.5063 10.2403C25.8147 9.84445 23.9693 9.63086 21.9901 9.63086C11.6497 9.62517 5.03145 15.4034 5.00013 22.1528C4.9688 28.6344 10.7726 34.3813 21.9929 34.3699C27.8907 34.3699 32.658 32.5189 35.6367 29.6283H32.7234C30.1604 31.6873 26.4526 32.9631 21.9929 32.9631C12.3731 32.9631 7.41791 28.1304 7.41791 22.1499C7.41791 16.1695 13.1334 10.958 21.9929 10.9494C22.3745 10.9437 22.7362 10.9665 23.0922 10.9836C23.3343 11.1345 23.34 11.5617 22.292 12.7208C22.292 12.7208 20.2017 15.2781 17.4222 19.117C14.5915 23.047 14.2441 23.9099 14.2441 23.9099C14.2441 23.9099 11.1998 28.4721 18.419 28.7085H36.5053C38.1001 26.8118 39 24.5677 39 22.1499C39 17.2488 35.52 12.8859 29.6222 10.8526L28.9701 11.9604C34.3097 13.7716 36.7645 17.7557 36.7645 22.1442C36.7645 23.2093 36.6278 24.058 36.0924 24.9209C36.0924 24.9209 35.8874 25.4363 35.6994 25.5217V25.5246Z" fill="#231815"/>
</svg>
