<svg width="44" height="44" viewBox="0 0 44 44" fill="none" xmlns="http://www.w3.org/2000/svg">
<path d="M15.3411 21.0727C14.5986 20.6505 11.2442 20.438 8.73422 20.1768C5.69997 19.8613 1.82031 19.5215 1.82031 19.5215C3.17407 20.8283 3.89308 21.185 5.25714 21.4968C6.46298 21.7729 10.2125 21.9583 13.3703 22.0921C14.2026 22.1268 14.2803 22.5827 14.2803 22.5827L8.10228 22.4516C9.05066 22.7811 10.939 23.3222 12.2956 23.5628C13.2065 23.7248 15.0031 23.6518 15.7099 23.6096C16.4177 23.5675 16.6246 24.0683 16.6246 24.0683L14.6211 24.2144C14.6211 24.2144 15.356 24.4437 16.6602 24.7733C17.6619 25.027 18.9735 25.2329 18.9735 25.2329C16.9832 23.6995 16.4729 21.7158 15.3411 21.0717" fill="#231815"/>
<path d="M26.5763 20.1248C26.5304 20.4075 26.0417 22.1375 25.0015 23.3891C23.8332 24.7971 22.4522 25.5666 22.0001 25.8184C21.5479 25.5666 20.167 24.7971 18.9976 23.3891C17.9584 22.1375 17.4688 20.4075 17.4239 20.1248C17.3771 19.8402 17.5222 19.5846 17.8807 19.3824C18.5567 19.0033 21.2932 18.1757 22.0001 18.1739C22.7069 18.1757 25.4434 19.0024 26.1194 19.3824C26.478 19.5837 26.6231 19.8402 26.5763 20.1248ZM27.3243 18.7721C26.5538 18.7721 23.425 17.453 22.0001 17.4512C20.5751 17.453 17.4463 18.7721 16.6758 18.7721C14.7594 18.7721 0.5 18.0887 0.5 18.0887C0.943763 18.7384 1.22275 18.8208 1.60847 18.9275C2.31999 19.1231 11.2776 19.8215 13.6051 20.0902C15.6151 20.3223 16.1122 20.5526 16.6543 21.3109C17.3405 22.2695 18.1007 24.6923 22.0001 26.5505C25.8994 24.6913 26.6596 22.2695 27.3458 21.3109C27.8888 20.5526 28.385 20.3214 30.3951 20.0902C32.7225 19.8215 41.6801 19.1231 42.3916 18.9275C42.7783 18.8208 43.0564 18.7374 43.5001 18.0887C43.5001 18.0887 29.2407 18.7721 27.3233 18.7721" fill="#231815"/>
<path d="M28.6598 21.0727C29.4023 20.6505 32.7567 20.438 35.2667 20.1768C38.3009 19.8613 42.1806 19.5215 42.1806 19.5215C40.8268 20.8283 40.1078 21.185 38.7438 21.4968C37.537 21.7729 33.7875 21.9583 30.6306 22.0921C29.7973 22.1268 29.7206 22.5827 29.7206 22.5827L35.8986 22.4516C34.9493 22.7811 33.0619 23.3222 31.7053 23.5628C30.7944 23.7248 28.9978 23.6518 28.291 23.6096C27.5841 23.5675 27.3763 24.0683 27.3763 24.0683L29.3798 24.2144C29.3798 24.2144 28.6439 24.4437 27.3407 24.7733C26.339 25.027 25.0273 25.2329 25.0273 25.2329C27.0177 23.6995 27.528 21.7158 28.6598 21.0717" fill="#231815"/>
<path d="M19.0925 20.8521L19.203 20.898C19.2348 20.912 19.2479 20.9279 19.2479 20.9663V21.2191C19.2002 21.2434 19.1365 21.2649 19.0654 21.2621C18.8491 21.2537 18.6909 21.0796 18.6909 20.8268C18.6909 20.5741 18.8332 20.3756 19.0785 20.3756C19.1393 20.3756 19.2741 20.3887 19.4136 20.5029L19.4642 20.3175C19.2985 20.2473 19.2002 20.2305 19.0738 20.2249C18.7227 20.2164 18.4297 20.413 18.4297 20.8287C18.4297 21.2013 18.6909 21.4138 19.0345 21.4138C19.2882 21.4138 19.4417 21.3295 19.4782 21.2996V20.7847H19.1187L19.0925 20.8502V20.8521ZM21.5969 21.0262L20.9874 20.2567H20.7468L20.7178 20.3241L20.7683 20.3484C20.8049 20.3681 20.8133 20.3868 20.8133 20.4215V21.3904H20.9921V20.6555L21.5763 21.3904H21.7766V20.2558H21.5969V21.0253V21.0262ZM22.8767 20.3999L22.8374 20.2558H22.0294L22.0032 20.3232L22.0538 20.3475C22.0875 20.3644 22.0959 20.3859 22.0959 20.4233V21.3894H22.8776V21.2425H22.3468V20.8727H22.8055V20.7313H22.3468V20.399H22.8776L22.8767 20.3999ZM24.0572 20.3241L24.1078 20.3484C24.1443 20.3681 24.1527 20.3868 24.1527 20.4243V21.3904H24.4036V20.2558H24.0872L24.0582 20.3232L24.0572 20.3241ZM23.5891 20.7295C23.4487 20.6564 23.3017 20.6152 23.3017 20.4879C23.3017 20.4252 23.3626 20.3737 23.4815 20.3737C23.6004 20.3737 23.7193 20.4168 23.8194 20.4608L23.8513 20.2923C23.7558 20.2595 23.635 20.2324 23.5002 20.2324C23.2072 20.2324 23.0546 20.3625 23.0546 20.5422C23.0546 20.722 23.1725 20.8118 23.3467 20.8933C23.5002 20.9644 23.6275 21.0103 23.6275 21.1217C23.6275 21.206 23.5611 21.2602 23.4319 21.2602C23.3111 21.2602 23.181 21.2172 23.0808 21.1732L23.0621 21.3698C23.1098 21.3829 23.297 21.4156 23.4403 21.4156C23.6753 21.4156 23.8859 21.3014 23.8859 21.0945C23.8859 20.8877 23.7371 20.809 23.5891 20.7304M20.5465 20.4009L20.5071 20.2567H19.6992L19.672 20.3241L19.7226 20.3484C19.7563 20.3653 19.7647 20.3868 19.7647 20.4243V21.3904H20.5465V21.2434H20.0156V20.8736H20.4753V20.7323H20.0156V20.3999H20.5465V20.4009ZM25.2172 20.7304C25.0777 20.6574 24.9298 20.6162 24.9298 20.4889C24.9298 20.4261 24.9906 20.3747 25.1095 20.3747C25.2284 20.3747 25.3473 20.4177 25.4475 20.4617L25.4784 20.2932C25.3829 20.2604 25.2621 20.2333 25.1273 20.2333C24.8343 20.2333 24.6733 20.3634 24.6733 20.5432C24.6733 20.7229 24.7997 20.8128 24.9738 20.8942C25.1273 20.9654 25.2547 21.0112 25.2547 21.1226C25.2547 21.2069 25.1882 21.2612 25.059 21.2612C24.9373 21.2612 24.8081 21.2181 24.7079 21.1741L24.6892 21.3707C24.7369 21.3838 24.9232 21.4166 25.0665 21.4166C25.3015 21.4166 25.5131 21.3024 25.5131 21.0955C25.5131 20.8886 25.3642 20.81 25.2163 20.7313" fill="#231815"/>
</svg>
