<svg width="44" height="44" viewBox="0 0 44 44" fill="none" xmlns="http://www.w3.org/2000/svg">
<path d="M10.2017 21.0551C10.2017 17.6544 15.8331 14.8956 22.7791 14.8956C23.778 14.8956 24.7511 14.9525 25.6879 15.0612L24.1766 17.908C23.4778 17.8304 22.748 17.789 21.9975 17.789C16.9769 17.789 12.9035 19.6782 12.9035 22.0023C12.9035 23.6482 14.9428 25.0768 17.919 25.7704L17.4531 26.64C13.1675 25.6565 10.2017 23.5292 10.2017 21.0551ZM16.9925 27.5147C11.7131 26.3656 8.02788 23.7466 8.02788 20.6979C8.02788 16.5933 14.7254 13.2652 22.981 13.2652C24.2025 13.2652 25.3929 13.3376 26.5264 13.4774L28.1361 10.4494C26.9301 10.3355 25.6828 10.2734 24.4095 10.2734C13.6903 10.2734 5 14.5126 5 19.7404C5 23.5965 9.73592 26.9195 16.5215 28.3946L16.9873 27.5199L16.9925 27.5147ZM26.5368 17.3594L26.0709 18.229C29.0471 18.9225 31.0864 20.3511 31.0864 21.9971C31.0864 24.3263 27.0181 26.2104 21.9924 26.2104C21.2419 26.2104 20.5121 26.1689 19.8185 26.0913L18.3071 28.9381C19.2388 29.0468 20.2119 29.1037 21.216 29.1037C28.162 29.1037 33.7933 26.3449 33.7933 22.9443C33.7933 20.4753 30.8276 18.3428 26.5419 17.3594M27.0078 16.4846C32.2872 17.6337 35.9724 20.2528 35.9724 23.3014C35.9724 27.406 29.2748 30.7342 21.0193 30.7342C19.7978 30.7342 18.6073 30.6617 17.4738 30.522L15.8641 33.5499C17.0701 33.6638 18.3175 33.7259 19.5908 33.7259C30.31 33.7259 39.0002 29.4868 39.0002 24.259C39.0002 20.3977 34.2643 17.0799 27.4788 15.6047L27.0129 16.4795L27.0078 16.4846Z" fill="black"/>
</svg>
